G04 #@! TF.GenerationSoftware,KiCad,Pcbnew,5.0.2-bee76a0~70~ubuntu16.04.1*
G04 #@! TF.CreationDate,2019-04-13T19:03:10+02:00*
G04 #@! TF.ProjectId,birduino-kicad,62697264-7569-46e6-9f2d-6b696361642e,rev?*
G04 #@! TF.SameCoordinates,Original*
G04 #@! TF.FileFunction,Legend,Bot*
G04 #@! TF.FilePolarity,Positive*
%FSLAX46Y46*%
G04 Gerber Fmt 4.6, Leading zero omitted, Abs format (unit mm)*
G04 Created by KiCad (PCBNEW 5.0.2-bee76a0~70~ubuntu16.04.1) date Sat 13 Apr 2019 07:03:10 PM CEST*
%MOMM*%
%LPD*%
G01*
G04 APERTURE LIST*
%ADD10C,0.300000*%
G04 APERTURE END LIST*
D10*
X169070571Y-119412571D02*
X167570571Y-119412571D01*
X168142000Y-119412571D02*
X168070571Y-119555428D01*
X168070571Y-119841142D01*
X168142000Y-119984000D01*
X168213428Y-120055428D01*
X168356285Y-120126857D01*
X168784857Y-120126857D01*
X168927714Y-120055428D01*
X168999142Y-119984000D01*
X169070571Y-119841142D01*
X169070571Y-119555428D01*
X168999142Y-119412571D01*
X169070571Y-120769714D02*
X168070571Y-120769714D01*
X167570571Y-120769714D02*
X167642000Y-120698285D01*
X167713428Y-120769714D01*
X167642000Y-120841142D01*
X167570571Y-120769714D01*
X167713428Y-120769714D01*
X169070571Y-121484000D02*
X168070571Y-121484000D01*
X168356285Y-121484000D02*
X168213428Y-121555428D01*
X168142000Y-121626857D01*
X168070571Y-121769714D01*
X168070571Y-121912571D01*
X169070571Y-123055428D02*
X167570571Y-123055428D01*
X168999142Y-123055428D02*
X169070571Y-122912571D01*
X169070571Y-122626857D01*
X168999142Y-122484000D01*
X168927714Y-122412571D01*
X168784857Y-122341142D01*
X168356285Y-122341142D01*
X168213428Y-122412571D01*
X168142000Y-122484000D01*
X168070571Y-122626857D01*
X168070571Y-122912571D01*
X168142000Y-123055428D01*
X168070571Y-124412571D02*
X169070571Y-124412571D01*
X168070571Y-123769714D02*
X168856285Y-123769714D01*
X168999142Y-123841142D01*
X169070571Y-123984000D01*
X169070571Y-124198285D01*
X168999142Y-124341142D01*
X168927714Y-124412571D01*
X169070571Y-125126857D02*
X168070571Y-125126857D01*
X167570571Y-125126857D02*
X167642000Y-125055428D01*
X167713428Y-125126857D01*
X167642000Y-125198285D01*
X167570571Y-125126857D01*
X167713428Y-125126857D01*
X168070571Y-125841142D02*
X169070571Y-125841142D01*
X168213428Y-125841142D02*
X168142000Y-125912571D01*
X168070571Y-126055428D01*
X168070571Y-126269714D01*
X168142000Y-126412571D01*
X168284857Y-126484000D01*
X169070571Y-126484000D01*
X169070571Y-127412571D02*
X168999142Y-127269714D01*
X168927714Y-127198285D01*
X168784857Y-127126857D01*
X168356285Y-127126857D01*
X168213428Y-127198285D01*
X168142000Y-127269714D01*
X168070571Y-127412571D01*
X168070571Y-127626857D01*
X168142000Y-127769714D01*
X168213428Y-127841142D01*
X168356285Y-127912571D01*
X168784857Y-127912571D01*
X168927714Y-127841142D01*
X168999142Y-127769714D01*
X169070571Y-127626857D01*
X169070571Y-127412571D01*
X169070571Y-130484000D02*
X169070571Y-129626857D01*
X169070571Y-130055428D02*
X167570571Y-130055428D01*
X167784857Y-129912571D01*
X167927714Y-129769714D01*
X167999142Y-129626857D01*
X168927714Y-131126857D02*
X168999142Y-131198285D01*
X169070571Y-131126857D01*
X168999142Y-131055428D01*
X168927714Y-131126857D01*
X169070571Y-131126857D01*
X167570571Y-132126857D02*
X167570571Y-132269714D01*
X167642000Y-132412571D01*
X167713428Y-132484000D01*
X167856285Y-132555428D01*
X168142000Y-132626857D01*
X168499142Y-132626857D01*
X168784857Y-132555428D01*
X168927714Y-132484000D01*
X168999142Y-132412571D01*
X169070571Y-132269714D01*
X169070571Y-132126857D01*
X168999142Y-131984000D01*
X168927714Y-131912571D01*
X168784857Y-131841142D01*
X168499142Y-131769714D01*
X168142000Y-131769714D01*
X167856285Y-131841142D01*
X167713428Y-131912571D01*
X167642000Y-131984000D01*
X167570571Y-132126857D01*
X170263428Y-121198285D02*
X170192000Y-121269714D01*
X170120571Y-121412571D01*
X170120571Y-121769714D01*
X170192000Y-121912571D01*
X170263428Y-121984000D01*
X170406285Y-122055428D01*
X170549142Y-122055428D01*
X170763428Y-121984000D01*
X171620571Y-121126857D01*
X171620571Y-122055428D01*
X170120571Y-122984000D02*
X170120571Y-123126857D01*
X170192000Y-123269714D01*
X170263428Y-123341142D01*
X170406285Y-123412571D01*
X170692000Y-123484000D01*
X171049142Y-123484000D01*
X171334857Y-123412571D01*
X171477714Y-123341142D01*
X171549142Y-123269714D01*
X171620571Y-123126857D01*
X171620571Y-122984000D01*
X171549142Y-122841142D01*
X171477714Y-122769714D01*
X171334857Y-122698285D01*
X171049142Y-122626857D01*
X170692000Y-122626857D01*
X170406285Y-122698285D01*
X170263428Y-122769714D01*
X170192000Y-122841142D01*
X170120571Y-122984000D01*
X171620571Y-124912571D02*
X171620571Y-124055428D01*
X171620571Y-124484000D02*
X170120571Y-124484000D01*
X170334857Y-124341142D01*
X170477714Y-124198285D01*
X170549142Y-124055428D01*
X171620571Y-125626857D02*
X171620571Y-125912571D01*
X171549142Y-126055428D01*
X171477714Y-126126857D01*
X171263428Y-126269714D01*
X170977714Y-126341142D01*
X170406285Y-126341142D01*
X170263428Y-126269714D01*
X170192000Y-126198285D01*
X170120571Y-126055428D01*
X170120571Y-125769714D01*
X170192000Y-125626857D01*
X170263428Y-125555428D01*
X170406285Y-125484000D01*
X170763428Y-125484000D01*
X170906285Y-125555428D01*
X170977714Y-125626857D01*
X171049142Y-125769714D01*
X171049142Y-126055428D01*
X170977714Y-126198285D01*
X170906285Y-126269714D01*
X170763428Y-126341142D01*
X172192000Y-128555428D02*
X172120571Y-128484000D01*
X171906285Y-128341142D01*
X171763428Y-128269714D01*
X171549142Y-128198285D01*
X171192000Y-128126857D01*
X170906285Y-128126857D01*
X170549142Y-128198285D01*
X170334857Y-128269714D01*
X170192000Y-128341142D01*
X169977714Y-128484000D01*
X169906285Y-128555428D01*
X171549142Y-129769714D02*
X171620571Y-129626857D01*
X171620571Y-129341142D01*
X171549142Y-129198285D01*
X171477714Y-129126857D01*
X171334857Y-129055428D01*
X170906285Y-129055428D01*
X170763428Y-129126857D01*
X170692000Y-129198285D01*
X170620571Y-129341142D01*
X170620571Y-129626857D01*
X170692000Y-129769714D01*
X172192000Y-130269714D02*
X172120571Y-130341142D01*
X171906285Y-130484000D01*
X171763428Y-130555428D01*
X171549142Y-130626857D01*
X171192000Y-130698285D01*
X170906285Y-130698285D01*
X170549142Y-130626857D01*
X170334857Y-130555428D01*
X170192000Y-130484000D01*
X169977714Y-130341142D01*
X169906285Y-130269714D01*
X174170571Y-115841142D02*
X172670571Y-115841142D01*
X172670571Y-116198285D01*
X172742000Y-116412571D01*
X172884857Y-116555428D01*
X173027714Y-116626857D01*
X173313428Y-116698285D01*
X173527714Y-116698285D01*
X173813428Y-116626857D01*
X173956285Y-116555428D01*
X174099142Y-116412571D01*
X174170571Y-116198285D01*
X174170571Y-115841142D01*
X174099142Y-117912571D02*
X174170571Y-117769714D01*
X174170571Y-117484000D01*
X174099142Y-117341142D01*
X173956285Y-117269714D01*
X173384857Y-117269714D01*
X173242000Y-117341142D01*
X173170571Y-117484000D01*
X173170571Y-117769714D01*
X173242000Y-117912571D01*
X173384857Y-117984000D01*
X173527714Y-117984000D01*
X173670571Y-117269714D01*
X174099142Y-118555428D02*
X174170571Y-118698285D01*
X174170571Y-118984000D01*
X174099142Y-119126857D01*
X173956285Y-119198285D01*
X173884857Y-119198285D01*
X173742000Y-119126857D01*
X173670571Y-118984000D01*
X173670571Y-118769714D01*
X173599142Y-118626857D01*
X173456285Y-118555428D01*
X173384857Y-118555428D01*
X173242000Y-118626857D01*
X173170571Y-118769714D01*
X173170571Y-118984000D01*
X173242000Y-119126857D01*
X174170571Y-119841142D02*
X173170571Y-119841142D01*
X172670571Y-119841142D02*
X172742000Y-119769714D01*
X172813428Y-119841142D01*
X172742000Y-119912571D01*
X172670571Y-119841142D01*
X172813428Y-119841142D01*
X173170571Y-121198285D02*
X174384857Y-121198285D01*
X174527714Y-121126857D01*
X174599142Y-121055428D01*
X174670571Y-120912571D01*
X174670571Y-120698285D01*
X174599142Y-120555428D01*
X174099142Y-121198285D02*
X174170571Y-121055428D01*
X174170571Y-120769714D01*
X174099142Y-120626857D01*
X174027714Y-120555428D01*
X173884857Y-120484000D01*
X173456285Y-120484000D01*
X173313428Y-120555428D01*
X173242000Y-120626857D01*
X173170571Y-120769714D01*
X173170571Y-121055428D01*
X173242000Y-121198285D01*
X173170571Y-121912571D02*
X174170571Y-121912571D01*
X173313428Y-121912571D02*
X173242000Y-121984000D01*
X173170571Y-122126857D01*
X173170571Y-122341142D01*
X173242000Y-122484000D01*
X173384857Y-122555428D01*
X174170571Y-122555428D01*
X174099142Y-123841142D02*
X174170571Y-123698285D01*
X174170571Y-123412571D01*
X174099142Y-123269714D01*
X173956285Y-123198285D01*
X173384857Y-123198285D01*
X173242000Y-123269714D01*
X173170571Y-123412571D01*
X173170571Y-123698285D01*
X173242000Y-123841142D01*
X173384857Y-123912571D01*
X173527714Y-123912571D01*
X173670571Y-123198285D01*
X174170571Y-125198285D02*
X172670571Y-125198285D01*
X174099142Y-125198285D02*
X174170571Y-125055428D01*
X174170571Y-124769714D01*
X174099142Y-124626857D01*
X174027714Y-124555428D01*
X173884857Y-124484000D01*
X173456285Y-124484000D01*
X173313428Y-124555428D01*
X173242000Y-124626857D01*
X173170571Y-124769714D01*
X173170571Y-125055428D01*
X173242000Y-125198285D01*
X174170571Y-127055428D02*
X173170571Y-127055428D01*
X172670571Y-127055428D02*
X172742000Y-126984000D01*
X172813428Y-127055428D01*
X172742000Y-127126857D01*
X172670571Y-127055428D01*
X172813428Y-127055428D01*
X173170571Y-127769714D02*
X174170571Y-127769714D01*
X173313428Y-127769714D02*
X173242000Y-127841142D01*
X173170571Y-127984000D01*
X173170571Y-128198285D01*
X173242000Y-128341142D01*
X173384857Y-128412571D01*
X174170571Y-128412571D01*
X173384857Y-130769714D02*
X173456285Y-130984000D01*
X173527714Y-131055428D01*
X173670571Y-131126857D01*
X173884857Y-131126857D01*
X174027714Y-131055428D01*
X174099142Y-130984000D01*
X174170571Y-130841142D01*
X174170571Y-130269714D01*
X172670571Y-130269714D01*
X172670571Y-130769714D01*
X172742000Y-130912571D01*
X172813428Y-130984000D01*
X172956285Y-131055428D01*
X173099142Y-131055428D01*
X173242000Y-130984000D01*
X173313428Y-130912571D01*
X173384857Y-130769714D01*
X173384857Y-130269714D01*
X174099142Y-132341142D02*
X174170571Y-132198285D01*
X174170571Y-131912571D01*
X174099142Y-131769714D01*
X173956285Y-131698285D01*
X173384857Y-131698285D01*
X173242000Y-131769714D01*
X173170571Y-131912571D01*
X173170571Y-132198285D01*
X173242000Y-132341142D01*
X173384857Y-132412571D01*
X173527714Y-132412571D01*
X173670571Y-131698285D01*
X174170571Y-133055428D02*
X173170571Y-133055428D01*
X173456285Y-133055428D02*
X173313428Y-133126857D01*
X173242000Y-133198285D01*
X173170571Y-133341142D01*
X173170571Y-133484000D01*
X174170571Y-134198285D02*
X174099142Y-134055428D01*
X173956285Y-133984000D01*
X172670571Y-133984000D01*
X174170571Y-134769714D02*
X173170571Y-134769714D01*
X172670571Y-134769714D02*
X172742000Y-134698285D01*
X172813428Y-134769714D01*
X172742000Y-134841142D01*
X172670571Y-134769714D01*
X172813428Y-134769714D01*
X173170571Y-135484000D02*
X174170571Y-135484000D01*
X173313428Y-135484000D02*
X173242000Y-135555428D01*
X173170571Y-135698285D01*
X173170571Y-135912571D01*
X173242000Y-136055428D01*
X173384857Y-136126857D01*
X174170571Y-136126857D01*
M02*
