M48
INCH,TZ
T1C0.0157
T2C0.0276
T3C0.0295
T4C0.0315
T5C0.0320
T6C0.0394
T7C0.0433
T8C0.0866
%
G90
G05
T1
X53452Y-45325
X58627Y-40822
X60914Y-38900
X61025Y-39313
X61616Y-39106
T2
X63100Y-52900
X65100Y-52900
X63100Y-53900
X65100Y-53900
X63100Y-47000
X65100Y-47000
X63100Y-46100
X65100Y-46100
X63100Y-47900
X65100Y-47900
X63100Y-50900
X65100Y-50900
X63100Y-48900
X65100Y-48900
X63100Y-49900
X65100Y-49900
X63100Y-51900
X65100Y-51900
T3
X59900Y-46000
X60400Y-46000
X60900Y-46000
X60000Y-48800
X60500Y-48800
X61000Y-48800
X52000Y-50400
X52500Y-50400
X53000Y-50400
X59900Y-51600
X60400Y-51600
X60900Y-51600
T4
X59300Y-40600
X59300Y-41600
X59300Y-42600
X59300Y-43600
X62300Y-40600
X62300Y-41600
X62300Y-42600
X62300Y-43600
X59779Y-37900
X61700Y-37900
X61000Y-35000
X62969Y-35000
X51900Y-47600
X52884Y-47600
X54743Y-45120
X54743Y-46120
X54743Y-47120
X54743Y-48120
X54743Y-49120
X54743Y-50120
X54743Y-51120
X54743Y-52120
X54743Y-53120
X54743Y-54120
X54743Y-55120
X54743Y-56120
X54743Y-57120
X54743Y-58120
X57743Y-45120
X57743Y-46120
X57743Y-47120
X57743Y-48120
X57743Y-49120
X57743Y-50120
X57743Y-51120
X57743Y-52120
X57743Y-53120
X57743Y-54120
X57743Y-55120
X57743Y-56120
X57743Y-57120
X57743Y-58120
X57431Y-35000
X59400Y-35000
X51800Y-43900
X53178Y-43900
X67900Y-39616
X67900Y-40600
T5
X63700Y-41000
X63700Y-43000
X66700Y-41000
X66700Y-43000
X54800Y-37100
X54800Y-39100
X57800Y-37100
X57800Y-39100
X63700Y-37100
X63700Y-39100
X66700Y-37100
X66700Y-39100
X54800Y-40800
X54800Y-42800
X57800Y-40800
X57800Y-42800
T6
X58300Y-32300
X59300Y-32300
X60300Y-32300
X61300Y-32300
X55000Y-33700
X65800Y-33600
X65800Y-34600
X66800Y-33600
X66800Y-34600
X51900Y-40700
X52900Y-40700
X53200Y-57000
X53200Y-58000
X53200Y-52400
X53200Y-53400
X53200Y-54400
X52000Y-33700
X51900Y-37300
X51900Y-38300
X61100Y-53200
X61100Y-58200
X67900Y-37300
X53500Y-33719
X63400Y-57100
X63400Y-58100
X64400Y-57100
X64400Y-58100
X65400Y-57100
X65400Y-58100
X66400Y-57100
X66400Y-58100
X67400Y-57100
X67400Y-58100
T7
X59100Y-55200
X59100Y-58200
T8
X52500Y-32100
X51700Y-55800
X68300Y-43900
X68300Y-32100
T0
M30
