%TF.GenerationSoftware,KiCad,Pcbnew,5.0.2-bee76a0~70~ubuntu16.04.1*%
%TF.CreationDate,2019-04-16T22:46:50+02:00*%
%TF.ProjectId,birduino-kicad,62697264-7569-46e6-9f2d-6b696361642e,rev?*%
%TF.SameCoordinates,Original*%
%TF.FileFunction,Legend,Top*%
%TF.FilePolarity,Positive*%
%FSLAX46Y46*%
G04 Gerber Fmt 4.6, Leading zero omitted, Abs format (unit mm)*
G04 Created by KiCad (PCBNEW 5.0.2-bee76a0~70~ubuntu16.04.1) date Tue 16 Apr 2019 10:46:50 PM CEST*
%MOMM*%
%LPD*%
G01*
G04 APERTURE LIST*
%ADD10C,0.300000*%
%ADD11C,0.250000*%
%ADD12C,0.200000*%
%ADD13C,0.120000*%
%ADD14C,0.150000*%
G04 APERTURE END LIST*
D10*
X132036571Y-103294571D02*
X132036571Y-101794571D01*
X132393714Y-101794571D01*
X132608000Y-101866000D01*
X132750857Y-102008857D01*
X132822285Y-102151714D01*
X132893714Y-102437428D01*
X132893714Y-102651714D01*
X132822285Y-102937428D01*
X132750857Y-103080285D01*
X132608000Y-103223142D01*
X132393714Y-103294571D01*
X132036571Y-103294571D01*
X134322285Y-103294571D02*
X133465142Y-103294571D01*
X133893714Y-103294571D02*
X133893714Y-101794571D01*
X133750857Y-102008857D01*
X133608000Y-102151714D01*
X133465142Y-102223142D01*
X135250857Y-101794571D02*
X135393714Y-101794571D01*
X135536571Y-101866000D01*
X135608000Y-101937428D01*
X135679428Y-102080285D01*
X135750857Y-102366000D01*
X135750857Y-102723142D01*
X135679428Y-103008857D01*
X135608000Y-103151714D01*
X135536571Y-103223142D01*
X135393714Y-103294571D01*
X135250857Y-103294571D01*
X135108000Y-103223142D01*
X135036571Y-103151714D01*
X134965142Y-103008857D01*
X134893714Y-102723142D01*
X134893714Y-102366000D01*
X134965142Y-102080285D01*
X135036571Y-101937428D01*
X135108000Y-101866000D01*
X135250857Y-101794571D01*
X125384857Y-100500571D02*
X125384857Y-99000571D01*
X125742000Y-99000571D01*
X125956285Y-99072000D01*
X126099142Y-99214857D01*
X126170571Y-99357714D01*
X126242000Y-99643428D01*
X126242000Y-99857714D01*
X126170571Y-100143428D01*
X126099142Y-100286285D01*
X125956285Y-100429142D01*
X125742000Y-100500571D01*
X125384857Y-100500571D01*
X127527714Y-99000571D02*
X127242000Y-99000571D01*
X127099142Y-99072000D01*
X127027714Y-99143428D01*
X126884857Y-99357714D01*
X126813428Y-99643428D01*
X126813428Y-100214857D01*
X126884857Y-100357714D01*
X126956285Y-100429142D01*
X127099142Y-100500571D01*
X127384857Y-100500571D01*
X127527714Y-100429142D01*
X127599142Y-100357714D01*
X127670571Y-100214857D01*
X127670571Y-99857714D01*
X127599142Y-99714857D01*
X127527714Y-99643428D01*
X127384857Y-99572000D01*
X127099142Y-99572000D01*
X126956285Y-99643428D01*
X126884857Y-99714857D01*
X126813428Y-99857714D01*
X170148285Y-93412571D02*
X169434000Y-93412571D01*
X169362571Y-94126857D01*
X169434000Y-94055428D01*
X169576857Y-93984000D01*
X169934000Y-93984000D01*
X170076857Y-94055428D01*
X170148285Y-94126857D01*
X170219714Y-94269714D01*
X170219714Y-94626857D01*
X170148285Y-94769714D01*
X170076857Y-94841142D01*
X169934000Y-94912571D01*
X169576857Y-94912571D01*
X169434000Y-94841142D01*
X169362571Y-94769714D01*
X170648285Y-93412571D02*
X171148285Y-94912571D01*
X171648285Y-93412571D01*
D11*
X124460000Y-72400000D02*
X174460000Y-72400000D01*
D10*
X132980857Y-93230000D02*
X132838000Y-93158571D01*
X132623714Y-93158571D01*
X132409428Y-93230000D01*
X132266571Y-93372857D01*
X132195142Y-93515714D01*
X132123714Y-93801428D01*
X132123714Y-94015714D01*
X132195142Y-94301428D01*
X132266571Y-94444285D01*
X132409428Y-94587142D01*
X132623714Y-94658571D01*
X132766571Y-94658571D01*
X132980857Y-94587142D01*
X133052285Y-94515714D01*
X133052285Y-94015714D01*
X132766571Y-94015714D01*
X132449142Y-91610571D02*
X132449142Y-90110571D01*
X133020571Y-90110571D01*
X133163428Y-90182000D01*
X133234857Y-90253428D01*
X133306285Y-90396285D01*
X133306285Y-90610571D01*
X133234857Y-90753428D01*
X133163428Y-90824857D01*
X133020571Y-90896285D01*
X132449142Y-90896285D01*
X138346571Y-86744857D02*
X138346571Y-87459142D01*
X136846571Y-87459142D01*
X137918000Y-86316285D02*
X137918000Y-85602000D01*
X138346571Y-86459142D02*
X136846571Y-85959142D01*
X138346571Y-85459142D01*
X136846571Y-85102000D02*
X136846571Y-84173428D01*
X137418000Y-84673428D01*
X137418000Y-84459142D01*
X137489428Y-84316285D01*
X137560857Y-84244857D01*
X137703714Y-84173428D01*
X138060857Y-84173428D01*
X138203714Y-84244857D01*
X138275142Y-84316285D01*
X138346571Y-84459142D01*
X138346571Y-84887714D01*
X138275142Y-85030571D01*
X138203714Y-85102000D01*
X134282571Y-86744857D02*
X134282571Y-87459142D01*
X132782571Y-87459142D01*
X133854000Y-86316285D02*
X133854000Y-85602000D01*
X134282571Y-86459142D02*
X132782571Y-85959142D01*
X134282571Y-85459142D01*
X132925428Y-85030571D02*
X132854000Y-84959142D01*
X132782571Y-84816285D01*
X132782571Y-84459142D01*
X132854000Y-84316285D01*
X132925428Y-84244857D01*
X133068285Y-84173428D01*
X133211142Y-84173428D01*
X133425428Y-84244857D01*
X134282571Y-85102000D01*
X134282571Y-84173428D01*
X130726571Y-86744857D02*
X130726571Y-87459142D01*
X129226571Y-87459142D01*
X130298000Y-86316285D02*
X130298000Y-85602000D01*
X130726571Y-86459142D02*
X129226571Y-85959142D01*
X130726571Y-85459142D01*
X130726571Y-84173428D02*
X130726571Y-85030571D01*
X130726571Y-84602000D02*
X129226571Y-84602000D01*
X129440857Y-84744857D01*
X129583714Y-84887714D01*
X129655142Y-85030571D01*
X159639142Y-81038000D02*
X159496285Y-80966571D01*
X159282000Y-80966571D01*
X159067714Y-81038000D01*
X158924857Y-81180857D01*
X158853428Y-81323714D01*
X158782000Y-81609428D01*
X158782000Y-81823714D01*
X158853428Y-82109428D01*
X158924857Y-82252285D01*
X159067714Y-82395142D01*
X159282000Y-82466571D01*
X159424857Y-82466571D01*
X159639142Y-82395142D01*
X159710571Y-82323714D01*
X159710571Y-81823714D01*
X159424857Y-81823714D01*
X160353428Y-82466571D02*
X160353428Y-80966571D01*
X161210571Y-82466571D01*
X161210571Y-80966571D01*
X161924857Y-82466571D02*
X161924857Y-80966571D01*
X162282000Y-80966571D01*
X162496285Y-81038000D01*
X162639142Y-81180857D01*
X162710571Y-81323714D01*
X162782000Y-81609428D01*
X162782000Y-81823714D01*
X162710571Y-82109428D01*
X162639142Y-82252285D01*
X162496285Y-82395142D01*
X162282000Y-82466571D01*
X161924857Y-82466571D01*
X159250285Y-85189142D02*
X159464571Y-85260571D01*
X159821714Y-85260571D01*
X159964571Y-85189142D01*
X160036000Y-85117714D01*
X160107428Y-84974857D01*
X160107428Y-84832000D01*
X160036000Y-84689142D01*
X159964571Y-84617714D01*
X159821714Y-84546285D01*
X159536000Y-84474857D01*
X159393142Y-84403428D01*
X159321714Y-84332000D01*
X159250285Y-84189142D01*
X159250285Y-84046285D01*
X159321714Y-83903428D01*
X159393142Y-83832000D01*
X159536000Y-83760571D01*
X159893142Y-83760571D01*
X160107428Y-83832000D01*
X161607428Y-85117714D02*
X161536000Y-85189142D01*
X161321714Y-85260571D01*
X161178857Y-85260571D01*
X160964571Y-85189142D01*
X160821714Y-85046285D01*
X160750285Y-84903428D01*
X160678857Y-84617714D01*
X160678857Y-84403428D01*
X160750285Y-84117714D01*
X160821714Y-83974857D01*
X160964571Y-83832000D01*
X161178857Y-83760571D01*
X161321714Y-83760571D01*
X161536000Y-83832000D01*
X161607428Y-83903428D01*
X162964571Y-85260571D02*
X162250285Y-85260571D01*
X162250285Y-83760571D01*
X169882571Y-85189142D02*
X170096857Y-85260571D01*
X170454000Y-85260571D01*
X170596857Y-85189142D01*
X170668285Y-85117714D01*
X170739714Y-84974857D01*
X170739714Y-84832000D01*
X170668285Y-84689142D01*
X170596857Y-84617714D01*
X170454000Y-84546285D01*
X170168285Y-84474857D01*
X170025428Y-84403428D01*
X169954000Y-84332000D01*
X169882571Y-84189142D01*
X169882571Y-84046285D01*
X169954000Y-83903428D01*
X170025428Y-83832000D01*
X170168285Y-83760571D01*
X170525428Y-83760571D01*
X170739714Y-83832000D01*
X171382571Y-85260571D02*
X171382571Y-83760571D01*
X171739714Y-83760571D01*
X171954000Y-83832000D01*
X172096857Y-83974857D01*
X172168285Y-84117714D01*
X172239714Y-84403428D01*
X172239714Y-84617714D01*
X172168285Y-84903428D01*
X172096857Y-85046285D01*
X171954000Y-85189142D01*
X171739714Y-85260571D01*
X171382571Y-85260571D01*
X172811142Y-84832000D02*
X173525428Y-84832000D01*
X172668285Y-85260571D02*
X173168285Y-83760571D01*
X173668285Y-85260571D01*
X169958000Y-80966571D02*
X170458000Y-82466571D01*
X170958000Y-80966571D01*
X172315142Y-82323714D02*
X172243714Y-82395142D01*
X172029428Y-82466571D01*
X171886571Y-82466571D01*
X171672285Y-82395142D01*
X171529428Y-82252285D01*
X171458000Y-82109428D01*
X171386571Y-81823714D01*
X171386571Y-81609428D01*
X171458000Y-81323714D01*
X171529428Y-81180857D01*
X171672285Y-81038000D01*
X171886571Y-80966571D01*
X172029428Y-80966571D01*
X172243714Y-81038000D01*
X172315142Y-81109428D01*
X173815142Y-82323714D02*
X173743714Y-82395142D01*
X173529428Y-82466571D01*
X173386571Y-82466571D01*
X173172285Y-82395142D01*
X173029428Y-82252285D01*
X172958000Y-82109428D01*
X172886571Y-81823714D01*
X172886571Y-81609428D01*
X172958000Y-81323714D01*
X173029428Y-81180857D01*
X173172285Y-81038000D01*
X173386571Y-80966571D01*
X173529428Y-80966571D01*
X173743714Y-81038000D01*
X173815142Y-81109428D01*
X140164571Y-79093142D02*
X140378857Y-79164571D01*
X140736000Y-79164571D01*
X140878857Y-79093142D01*
X140950285Y-79021714D01*
X141021714Y-78878857D01*
X141021714Y-78736000D01*
X140950285Y-78593142D01*
X140878857Y-78521714D01*
X140736000Y-78450285D01*
X140450285Y-78378857D01*
X140307428Y-78307428D01*
X140236000Y-78236000D01*
X140164571Y-78093142D01*
X140164571Y-77950285D01*
X140236000Y-77807428D01*
X140307428Y-77736000D01*
X140450285Y-77664571D01*
X140807428Y-77664571D01*
X141021714Y-77736000D01*
X141664571Y-79164571D02*
X141664571Y-77664571D01*
X142021714Y-77664571D01*
X142236000Y-77736000D01*
X142378857Y-77878857D01*
X142450285Y-78021714D01*
X142521714Y-78307428D01*
X142521714Y-78521714D01*
X142450285Y-78807428D01*
X142378857Y-78950285D01*
X142236000Y-79093142D01*
X142021714Y-79164571D01*
X141664571Y-79164571D01*
X143093142Y-78736000D02*
X143807428Y-78736000D01*
X142950285Y-79164571D02*
X143450285Y-77664571D01*
X143950285Y-79164571D01*
X145788285Y-82141142D02*
X146002571Y-82212571D01*
X146359714Y-82212571D01*
X146502571Y-82141142D01*
X146574000Y-82069714D01*
X146645428Y-81926857D01*
X146645428Y-81784000D01*
X146574000Y-81641142D01*
X146502571Y-81569714D01*
X146359714Y-81498285D01*
X146074000Y-81426857D01*
X145931142Y-81355428D01*
X145859714Y-81284000D01*
X145788285Y-81141142D01*
X145788285Y-80998285D01*
X145859714Y-80855428D01*
X145931142Y-80784000D01*
X146074000Y-80712571D01*
X146431142Y-80712571D01*
X146645428Y-80784000D01*
X148145428Y-82069714D02*
X148074000Y-82141142D01*
X147859714Y-82212571D01*
X147716857Y-82212571D01*
X147502571Y-82141142D01*
X147359714Y-81998285D01*
X147288285Y-81855428D01*
X147216857Y-81569714D01*
X147216857Y-81355428D01*
X147288285Y-81069714D01*
X147359714Y-80926857D01*
X147502571Y-80784000D01*
X147716857Y-80712571D01*
X147859714Y-80712571D01*
X148074000Y-80784000D01*
X148145428Y-80855428D01*
X149502571Y-82212571D02*
X148788285Y-82212571D01*
X148788285Y-80712571D01*
X151257142Y-80784000D02*
X151114285Y-80712571D01*
X150900000Y-80712571D01*
X150685714Y-80784000D01*
X150542857Y-80926857D01*
X150471428Y-81069714D01*
X150400000Y-81355428D01*
X150400000Y-81569714D01*
X150471428Y-81855428D01*
X150542857Y-81998285D01*
X150685714Y-82141142D01*
X150900000Y-82212571D01*
X151042857Y-82212571D01*
X151257142Y-82141142D01*
X151328571Y-82069714D01*
X151328571Y-81569714D01*
X151042857Y-81569714D01*
X151971428Y-82212571D02*
X151971428Y-80712571D01*
X152828571Y-82212571D01*
X152828571Y-80712571D01*
X153542857Y-82212571D02*
X153542857Y-80712571D01*
X153900000Y-80712571D01*
X154114285Y-80784000D01*
X154257142Y-80926857D01*
X154328571Y-81069714D01*
X154400000Y-81355428D01*
X154400000Y-81569714D01*
X154328571Y-81855428D01*
X154257142Y-81998285D01*
X154114285Y-82141142D01*
X153900000Y-82212571D01*
X153542857Y-82212571D01*
X155988000Y-77664571D02*
X156488000Y-79164571D01*
X156988000Y-77664571D01*
X158345142Y-79021714D02*
X158273714Y-79093142D01*
X158059428Y-79164571D01*
X157916571Y-79164571D01*
X157702285Y-79093142D01*
X157559428Y-78950285D01*
X157488000Y-78807428D01*
X157416571Y-78521714D01*
X157416571Y-78307428D01*
X157488000Y-78021714D01*
X157559428Y-77878857D01*
X157702285Y-77736000D01*
X157916571Y-77664571D01*
X158059428Y-77664571D01*
X158273714Y-77736000D01*
X158345142Y-77807428D01*
X159845142Y-79021714D02*
X159773714Y-79093142D01*
X159559428Y-79164571D01*
X159416571Y-79164571D01*
X159202285Y-79093142D01*
X159059428Y-78950285D01*
X158988000Y-78807428D01*
X158916571Y-78521714D01*
X158916571Y-78307428D01*
X158988000Y-78021714D01*
X159059428Y-77878857D01*
X159202285Y-77736000D01*
X159416571Y-77664571D01*
X159559428Y-77664571D01*
X159773714Y-77736000D01*
X159845142Y-77807428D01*
X169096571Y-129130571D02*
X170096571Y-129130571D01*
X169239428Y-129130571D02*
X169168000Y-129059142D01*
X169096571Y-128916285D01*
X169096571Y-128702000D01*
X169168000Y-128559142D01*
X169310857Y-128487714D01*
X170096571Y-128487714D01*
X170096571Y-126916285D02*
X169382285Y-127416285D01*
X170096571Y-127773428D02*
X168596571Y-127773428D01*
X168596571Y-127202000D01*
X168668000Y-127059142D01*
X168739428Y-126987714D01*
X168882285Y-126916285D01*
X169096571Y-126916285D01*
X169239428Y-126987714D01*
X169310857Y-127059142D01*
X169382285Y-127202000D01*
X169382285Y-127773428D01*
X169310857Y-125773428D02*
X169310857Y-126273428D01*
X170096571Y-126273428D02*
X168596571Y-126273428D01*
X168596571Y-125559142D01*
X168739428Y-125059142D02*
X168668000Y-124987714D01*
X168596571Y-124844857D01*
X168596571Y-124487714D01*
X168668000Y-124344857D01*
X168739428Y-124273428D01*
X168882285Y-124202000D01*
X169025142Y-124202000D01*
X169239428Y-124273428D01*
X170096571Y-125130571D01*
X170096571Y-124202000D01*
X169096571Y-122916285D02*
X170096571Y-122916285D01*
X168525142Y-123273428D02*
X169596571Y-123630571D01*
X169596571Y-122702000D01*
X170096571Y-121416285D02*
X170096571Y-122130571D01*
X168596571Y-122130571D01*
X168596571Y-120630571D02*
X168596571Y-120487714D01*
X168668000Y-120344857D01*
X168739428Y-120273428D01*
X168882285Y-120202000D01*
X169168000Y-120130571D01*
X169525142Y-120130571D01*
X169810857Y-120202000D01*
X169953714Y-120273428D01*
X170025142Y-120344857D01*
X170096571Y-120487714D01*
X170096571Y-120630571D01*
X170025142Y-120773428D01*
X169953714Y-120844857D01*
X169810857Y-120916285D01*
X169525142Y-120987714D01*
X169168000Y-120987714D01*
X168882285Y-120916285D01*
X168739428Y-120844857D01*
X168668000Y-120773428D01*
X168596571Y-120630571D01*
X170096571Y-118702000D02*
X170096571Y-119559142D01*
X170096571Y-119130571D02*
X168596571Y-119130571D01*
X168810857Y-119273428D01*
X168953714Y-119416285D01*
X169025142Y-119559142D01*
X168414000Y-138556857D02*
X168342571Y-138699714D01*
X168342571Y-138914000D01*
X168414000Y-139128285D01*
X168556857Y-139271142D01*
X168699714Y-139342571D01*
X168985428Y-139414000D01*
X169199714Y-139414000D01*
X169485428Y-139342571D01*
X169628285Y-139271142D01*
X169771142Y-139128285D01*
X169842571Y-138914000D01*
X169842571Y-138771142D01*
X169771142Y-138556857D01*
X169699714Y-138485428D01*
X169199714Y-138485428D01*
X169199714Y-138771142D01*
X169842571Y-137842571D02*
X168342571Y-137842571D01*
X169842571Y-136985428D01*
X168342571Y-136985428D01*
X169842571Y-136271142D02*
X168342571Y-136271142D01*
X168342571Y-135914000D01*
X168414000Y-135699714D01*
X168556857Y-135556857D01*
X168699714Y-135485428D01*
X168985428Y-135414000D01*
X169199714Y-135414000D01*
X169485428Y-135485428D01*
X169628285Y-135556857D01*
X169771142Y-135699714D01*
X169842571Y-135914000D01*
X169842571Y-136271142D01*
X158182571Y-139414000D02*
X159682571Y-138914000D01*
X158182571Y-138414000D01*
X159539714Y-137056857D02*
X159611142Y-137128285D01*
X159682571Y-137342571D01*
X159682571Y-137485428D01*
X159611142Y-137699714D01*
X159468285Y-137842571D01*
X159325428Y-137914000D01*
X159039714Y-137985428D01*
X158825428Y-137985428D01*
X158539714Y-137914000D01*
X158396857Y-137842571D01*
X158254000Y-137699714D01*
X158182571Y-137485428D01*
X158182571Y-137342571D01*
X158254000Y-137128285D01*
X158325428Y-137056857D01*
X159539714Y-135556857D02*
X159611142Y-135628285D01*
X159682571Y-135842571D01*
X159682571Y-135985428D01*
X159611142Y-136199714D01*
X159468285Y-136342571D01*
X159325428Y-136414000D01*
X159039714Y-136485428D01*
X158825428Y-136485428D01*
X158539714Y-136414000D01*
X158396857Y-136342571D01*
X158254000Y-136199714D01*
X158182571Y-135985428D01*
X158182571Y-135842571D01*
X158254000Y-135628285D01*
X158325428Y-135556857D01*
X128143142Y-134306571D02*
X129000285Y-134306571D01*
X128571714Y-135806571D02*
X128571714Y-134306571D01*
X129357428Y-134306571D02*
X130357428Y-135806571D01*
X130357428Y-134306571D02*
X129357428Y-135806571D01*
X129036000Y-133012571D02*
X128536000Y-132298285D01*
X128178857Y-133012571D02*
X128178857Y-131512571D01*
X128750285Y-131512571D01*
X128893142Y-131584000D01*
X128964571Y-131655428D01*
X129036000Y-131798285D01*
X129036000Y-132012571D01*
X128964571Y-132155428D01*
X128893142Y-132226857D01*
X128750285Y-132298285D01*
X128178857Y-132298285D01*
X129536000Y-131512571D02*
X130536000Y-133012571D01*
X130536000Y-131512571D02*
X129536000Y-133012571D01*
X128103428Y-129964571D02*
X127603428Y-129250285D01*
X127246285Y-129964571D02*
X127246285Y-128464571D01*
X127817714Y-128464571D01*
X127960571Y-128536000D01*
X128032000Y-128607428D01*
X128103428Y-128750285D01*
X128103428Y-128964571D01*
X128032000Y-129107428D01*
X127960571Y-129178857D01*
X127817714Y-129250285D01*
X127246285Y-129250285D01*
X128746285Y-129178857D02*
X129246285Y-129178857D01*
X129460571Y-129964571D02*
X128746285Y-129964571D01*
X128746285Y-128464571D01*
X129460571Y-128464571D01*
X130032000Y-129893142D02*
X130246285Y-129964571D01*
X130603428Y-129964571D01*
X130746285Y-129893142D01*
X130817714Y-129821714D01*
X130889142Y-129678857D01*
X130889142Y-129536000D01*
X130817714Y-129393142D01*
X130746285Y-129321714D01*
X130603428Y-129250285D01*
X130317714Y-129178857D01*
X130174857Y-129107428D01*
X130103428Y-129036000D01*
X130032000Y-128893142D01*
X130032000Y-128750285D01*
X130103428Y-128607428D01*
X130174857Y-128536000D01*
X130317714Y-128464571D01*
X130674857Y-128464571D01*
X130889142Y-128536000D01*
X127635142Y-139966000D02*
X127492285Y-139894571D01*
X127278000Y-139894571D01*
X127063714Y-139966000D01*
X126920857Y-140108857D01*
X126849428Y-140251714D01*
X126778000Y-140537428D01*
X126778000Y-140751714D01*
X126849428Y-141037428D01*
X126920857Y-141180285D01*
X127063714Y-141323142D01*
X127278000Y-141394571D01*
X127420857Y-141394571D01*
X127635142Y-141323142D01*
X127706571Y-141251714D01*
X127706571Y-140751714D01*
X127420857Y-140751714D01*
X128349428Y-141394571D02*
X128349428Y-139894571D01*
X129206571Y-141394571D01*
X129206571Y-139894571D01*
X129920857Y-141394571D02*
X129920857Y-139894571D01*
X130278000Y-139894571D01*
X130492285Y-139966000D01*
X130635142Y-140108857D01*
X130706571Y-140251714D01*
X130778000Y-140537428D01*
X130778000Y-140751714D01*
X130706571Y-141037428D01*
X130635142Y-141180285D01*
X130492285Y-141323142D01*
X130278000Y-141394571D01*
X129920857Y-141394571D01*
X126778000Y-143450571D02*
X127278000Y-144950571D01*
X127778000Y-143450571D01*
X129135142Y-144807714D02*
X129063714Y-144879142D01*
X128849428Y-144950571D01*
X128706571Y-144950571D01*
X128492285Y-144879142D01*
X128349428Y-144736285D01*
X128278000Y-144593428D01*
X128206571Y-144307714D01*
X128206571Y-144093428D01*
X128278000Y-143807714D01*
X128349428Y-143664857D01*
X128492285Y-143522000D01*
X128706571Y-143450571D01*
X128849428Y-143450571D01*
X129063714Y-143522000D01*
X129135142Y-143593428D01*
X130635142Y-144807714D02*
X130563714Y-144879142D01*
X130349428Y-144950571D01*
X130206571Y-144950571D01*
X129992285Y-144879142D01*
X129849428Y-144736285D01*
X129778000Y-144593428D01*
X129706571Y-144307714D01*
X129706571Y-144093428D01*
X129778000Y-143807714D01*
X129849428Y-143664857D01*
X129992285Y-143522000D01*
X130206571Y-143450571D01*
X130349428Y-143450571D01*
X130563714Y-143522000D01*
X130635142Y-143593428D01*
D12*
X156718000Y-110744000D02*
X156718000Y-146558000D01*
X171450000Y-110744000D02*
X156718000Y-110744000D01*
X171450000Y-146558000D02*
X171450000Y-110744000D01*
X156718000Y-146558000D02*
X171450000Y-146558000D01*
D11*
X124460000Y-72400000D02*
X124460000Y-152400000D01*
X174460000Y-72400000D02*
X174460000Y-152400000D01*
X124460000Y-152400000D02*
X174460000Y-152400000D01*
D13*
X172711000Y-149400000D02*
G75*
G03X172711000Y-149400000I-1251000J0D01*
G01*
X128711000Y-149400000D02*
G75*
G03X128711000Y-149400000I-1251000J0D01*
G01*
X128759000Y-75438000D02*
G75*
G03X128759000Y-75438000I-1251000J0D01*
G01*
X172701000Y-75438000D02*
G75*
G03X172701000Y-75438000I-1251000J0D01*
G01*
X131766000Y-135950000D02*
X134426000Y-135950000D01*
X131766000Y-130810000D02*
X131766000Y-135950000D01*
X134426000Y-130810000D02*
X134426000Y-135950000D01*
X131766000Y-130810000D02*
X134426000Y-130810000D01*
X131766000Y-129540000D02*
X131766000Y-128210000D01*
X131766000Y-128210000D02*
X133096000Y-128210000D01*
X131766000Y-145094000D02*
X134426000Y-145094000D01*
X131766000Y-142494000D02*
X131766000Y-145094000D01*
X134426000Y-142494000D02*
X134426000Y-145094000D01*
X131766000Y-142494000D02*
X134426000Y-142494000D01*
X131766000Y-141224000D02*
X131766000Y-139894000D01*
X131766000Y-139894000D02*
X133096000Y-139894000D01*
X170494000Y-145348000D02*
X170494000Y-140148000D01*
X160274000Y-145348000D02*
X170494000Y-145348000D01*
X157674000Y-140148000D02*
X170494000Y-140148000D01*
X160274000Y-145348000D02*
X160274000Y-142748000D01*
X160274000Y-142748000D02*
X157674000Y-142748000D01*
X157674000Y-142748000D02*
X157674000Y-140148000D01*
X159004000Y-145348000D02*
X157674000Y-145348000D01*
X157674000Y-145348000D02*
X157674000Y-144018000D01*
X144720000Y-77156000D02*
X144720000Y-79816000D01*
X152400000Y-77156000D02*
X144720000Y-77156000D01*
X152400000Y-79816000D02*
X144720000Y-79816000D01*
X152400000Y-77156000D02*
X152400000Y-79816000D01*
X153670000Y-77156000D02*
X155000000Y-77156000D01*
X155000000Y-77156000D02*
X155000000Y-78486000D01*
X162702000Y-134270000D02*
X158862000Y-134270000D01*
X162702000Y-132430000D02*
X158862000Y-132430000D01*
X162702000Y-129890000D02*
X158862000Y-129890000D01*
X162702000Y-131730000D02*
X158862000Y-131730000D01*
X162702000Y-129190000D02*
X158862000Y-129190000D01*
X162702000Y-127350000D02*
X158862000Y-127350000D01*
X162702000Y-124810000D02*
X158862000Y-124810000D01*
X162702000Y-126650000D02*
X158862000Y-126650000D01*
X162702000Y-124110000D02*
X158862000Y-124110000D01*
X162702000Y-122270000D02*
X158862000Y-122270000D01*
X162702000Y-119730000D02*
X158862000Y-119730000D01*
X162702000Y-121570000D02*
X158862000Y-121570000D01*
X137160000Y-89408000D02*
X144780000Y-89408000D01*
X144780000Y-89408000D02*
X144780000Y-89708000D01*
X144780000Y-97028000D02*
X137160000Y-97028000D01*
X137160000Y-89408000D02*
X137160000Y-89708000D01*
X144780000Y-91648000D02*
X144780000Y-94788000D01*
X137160000Y-91648000D02*
X137160000Y-94788000D01*
X144780000Y-96728000D02*
X144780000Y-97028000D01*
X137160000Y-96728000D02*
X137160000Y-97028000D01*
X143510000Y-93218000D02*
G75*
G03X143510000Y-93218000I-2540000J0D01*
G01*
X143510000Y-102616000D02*
G75*
G03X143510000Y-102616000I-2540000J0D01*
G01*
X137160000Y-106126000D02*
X137160000Y-106426000D01*
X144780000Y-106126000D02*
X144780000Y-106426000D01*
X137160000Y-101046000D02*
X137160000Y-104186000D01*
X144780000Y-101046000D02*
X144780000Y-104186000D01*
X137160000Y-98806000D02*
X137160000Y-99106000D01*
X144780000Y-106426000D02*
X137160000Y-106426000D01*
X144780000Y-98806000D02*
X144780000Y-99106000D01*
X137160000Y-98806000D02*
X144780000Y-98806000D01*
X159766000Y-89408000D02*
X167386000Y-89408000D01*
X167386000Y-89408000D02*
X167386000Y-89708000D01*
X167386000Y-97028000D02*
X159766000Y-97028000D01*
X159766000Y-89408000D02*
X159766000Y-89708000D01*
X167386000Y-91648000D02*
X167386000Y-94788000D01*
X159766000Y-91648000D02*
X159766000Y-94788000D01*
X167386000Y-96728000D02*
X167386000Y-97028000D01*
X159766000Y-96728000D02*
X159766000Y-97028000D01*
X166116000Y-93218000D02*
G75*
G03X166116000Y-93218000I-2540000J0D01*
G01*
X166116000Y-103124000D02*
G75*
G03X166116000Y-103124000I-2540000J0D01*
G01*
X159766000Y-106634000D02*
X159766000Y-106934000D01*
X167386000Y-106634000D02*
X167386000Y-106934000D01*
X159766000Y-101554000D02*
X159766000Y-104694000D01*
X167386000Y-101554000D02*
X167386000Y-104694000D01*
X159766000Y-99314000D02*
X159766000Y-99614000D01*
X167386000Y-106934000D02*
X159766000Y-106934000D01*
X167386000Y-99314000D02*
X167386000Y-99614000D01*
X159766000Y-99314000D02*
X167386000Y-99314000D01*
X141825000Y-109719000D02*
G75*
G02X139825000Y-109719000I-1000000J0D01*
G01*
X139825000Y-109719000D02*
X138175000Y-109719000D01*
X138175000Y-109719000D02*
X138175000Y-145399000D01*
X138175000Y-145399000D02*
X143475000Y-145399000D01*
X143475000Y-145399000D02*
X143475000Y-109719000D01*
X143475000Y-109719000D02*
X141825000Y-109719000D01*
X149584000Y-129358000D02*
X153184000Y-129358000D01*
X149545522Y-129346478D02*
G75*
G02X151384000Y-124908000I1838478J1838478D01*
G01*
X153222478Y-129346478D02*
G75*
G03X151384000Y-124908000I-1838478J1838478D01*
G01*
X153476478Y-122234478D02*
G75*
G03X151638000Y-117796000I-1838478J1838478D01*
G01*
X149799522Y-122234478D02*
G75*
G02X151638000Y-117796000I1838478J1838478D01*
G01*
X149838000Y-122246000D02*
X153438000Y-122246000D01*
X149584000Y-115134000D02*
X153184000Y-115134000D01*
X149545522Y-115122478D02*
G75*
G02X151384000Y-110684000I1838478J1838478D01*
G01*
X153222478Y-115122478D02*
G75*
G03X151384000Y-110684000I-1838478J1838478D01*
G01*
X158862000Y-117190000D02*
X162702000Y-117190000D01*
X158862000Y-119030000D02*
X162702000Y-119030000D01*
X158862000Y-116744000D02*
X162702000Y-116744000D01*
X158862000Y-114904000D02*
X162702000Y-114904000D01*
X158862000Y-112618000D02*
X162702000Y-112618000D01*
X158862000Y-114458000D02*
X162702000Y-114458000D01*
X129518000Y-126310000D02*
X133118000Y-126310000D01*
X129479522Y-126298478D02*
G75*
G02X131318000Y-121860000I1838478J1838478D01*
G01*
X133156478Y-126298478D02*
G75*
G03X131318000Y-121860000I-1838478J1838478D01*
G01*
X136338000Y-83372000D02*
X138998000Y-83372000D01*
X136338000Y-83312000D02*
X136338000Y-83372000D01*
X138998000Y-83312000D02*
X138998000Y-83372000D01*
X136338000Y-83312000D02*
X138998000Y-83312000D01*
X136338000Y-82042000D02*
X136338000Y-80712000D01*
X136338000Y-80712000D02*
X137668000Y-80712000D01*
X128718000Y-83372000D02*
X131378000Y-83372000D01*
X128718000Y-83312000D02*
X128718000Y-83372000D01*
X131378000Y-83312000D02*
X131378000Y-83372000D01*
X128718000Y-83312000D02*
X131378000Y-83312000D01*
X128718000Y-82042000D02*
X128718000Y-80712000D01*
X128718000Y-80712000D02*
X130048000Y-80712000D01*
X132528000Y-80759000D02*
X133858000Y-80759000D01*
X132528000Y-82089000D02*
X132528000Y-80759000D01*
X132528000Y-83359000D02*
X135188000Y-83359000D01*
X135188000Y-83359000D02*
X135188000Y-83419000D01*
X132528000Y-83359000D02*
X132528000Y-83419000D01*
X132528000Y-83419000D02*
X135188000Y-83419000D01*
X163770000Y-85658000D02*
X168970000Y-85658000D01*
X163770000Y-83058000D02*
X163770000Y-85658000D01*
X168970000Y-80458000D02*
X168970000Y-85658000D01*
X163770000Y-83058000D02*
X166370000Y-83058000D01*
X166370000Y-83058000D02*
X166370000Y-80458000D01*
X166370000Y-80458000D02*
X168970000Y-80458000D01*
X163770000Y-81788000D02*
X163770000Y-80458000D01*
X163770000Y-80458000D02*
X165100000Y-80458000D01*
X128464000Y-95056000D02*
X131124000Y-95056000D01*
X128464000Y-92456000D02*
X128464000Y-95056000D01*
X131124000Y-92456000D02*
X131124000Y-95056000D01*
X128464000Y-92456000D02*
X131124000Y-92456000D01*
X128464000Y-91186000D02*
X128464000Y-89856000D01*
X128464000Y-89856000D02*
X129794000Y-89856000D01*
X169314000Y-99938000D02*
X169314000Y-96698000D01*
X171554000Y-99938000D02*
X171554000Y-96698000D01*
X169314000Y-99938000D02*
X169379000Y-99938000D01*
X171489000Y-99938000D02*
X171554000Y-99938000D01*
X169314000Y-96698000D02*
X169379000Y-96698000D01*
X171489000Y-96698000D02*
X171554000Y-96698000D01*
X134314000Y-117348000D02*
G75*
G03X134314000Y-117348000I-3270000J0D01*
G01*
X131044000Y-114118000D02*
X131044000Y-120578000D01*
X131084000Y-114118000D02*
X131084000Y-120578000D01*
X131124000Y-114118000D02*
X131124000Y-120578000D01*
X131164000Y-114120000D02*
X131164000Y-120576000D01*
X131204000Y-114121000D02*
X131204000Y-120575000D01*
X131244000Y-114124000D02*
X131244000Y-120572000D01*
X131284000Y-114126000D02*
X131284000Y-116308000D01*
X131284000Y-118388000D02*
X131284000Y-120570000D01*
X131324000Y-114130000D02*
X131324000Y-116308000D01*
X131324000Y-118388000D02*
X131324000Y-120566000D01*
X131364000Y-114133000D02*
X131364000Y-116308000D01*
X131364000Y-118388000D02*
X131364000Y-120563000D01*
X131404000Y-114137000D02*
X131404000Y-116308000D01*
X131404000Y-118388000D02*
X131404000Y-120559000D01*
X131444000Y-114142000D02*
X131444000Y-116308000D01*
X131444000Y-118388000D02*
X131444000Y-120554000D01*
X131484000Y-114147000D02*
X131484000Y-116308000D01*
X131484000Y-118388000D02*
X131484000Y-120549000D01*
X131524000Y-114153000D02*
X131524000Y-116308000D01*
X131524000Y-118388000D02*
X131524000Y-120543000D01*
X131564000Y-114159000D02*
X131564000Y-116308000D01*
X131564000Y-118388000D02*
X131564000Y-120537000D01*
X131604000Y-114166000D02*
X131604000Y-116308000D01*
X131604000Y-118388000D02*
X131604000Y-120530000D01*
X131644000Y-114173000D02*
X131644000Y-116308000D01*
X131644000Y-118388000D02*
X131644000Y-120523000D01*
X131684000Y-114181000D02*
X131684000Y-116308000D01*
X131684000Y-118388000D02*
X131684000Y-120515000D01*
X131724000Y-114189000D02*
X131724000Y-116308000D01*
X131724000Y-118388000D02*
X131724000Y-120507000D01*
X131765000Y-114198000D02*
X131765000Y-116308000D01*
X131765000Y-118388000D02*
X131765000Y-120498000D01*
X131805000Y-114207000D02*
X131805000Y-116308000D01*
X131805000Y-118388000D02*
X131805000Y-120489000D01*
X131845000Y-114217000D02*
X131845000Y-116308000D01*
X131845000Y-118388000D02*
X131845000Y-120479000D01*
X131885000Y-114227000D02*
X131885000Y-116308000D01*
X131885000Y-118388000D02*
X131885000Y-120469000D01*
X131925000Y-114238000D02*
X131925000Y-116308000D01*
X131925000Y-118388000D02*
X131925000Y-120458000D01*
X131965000Y-114250000D02*
X131965000Y-116308000D01*
X131965000Y-118388000D02*
X131965000Y-120446000D01*
X132005000Y-114262000D02*
X132005000Y-116308000D01*
X132005000Y-118388000D02*
X132005000Y-120434000D01*
X132045000Y-114274000D02*
X132045000Y-116308000D01*
X132045000Y-118388000D02*
X132045000Y-120422000D01*
X132085000Y-114287000D02*
X132085000Y-116308000D01*
X132085000Y-118388000D02*
X132085000Y-120409000D01*
X132125000Y-114301000D02*
X132125000Y-116308000D01*
X132125000Y-118388000D02*
X132125000Y-120395000D01*
X132165000Y-114315000D02*
X132165000Y-116308000D01*
X132165000Y-118388000D02*
X132165000Y-120381000D01*
X132205000Y-114330000D02*
X132205000Y-116308000D01*
X132205000Y-118388000D02*
X132205000Y-120366000D01*
X132245000Y-114346000D02*
X132245000Y-116308000D01*
X132245000Y-118388000D02*
X132245000Y-120350000D01*
X132285000Y-114362000D02*
X132285000Y-116308000D01*
X132285000Y-118388000D02*
X132285000Y-120334000D01*
X132325000Y-114378000D02*
X132325000Y-116308000D01*
X132325000Y-118388000D02*
X132325000Y-120318000D01*
X132365000Y-114396000D02*
X132365000Y-116308000D01*
X132365000Y-118388000D02*
X132365000Y-120300000D01*
X132405000Y-114414000D02*
X132405000Y-116308000D01*
X132405000Y-118388000D02*
X132405000Y-120282000D01*
X132445000Y-114432000D02*
X132445000Y-116308000D01*
X132445000Y-118388000D02*
X132445000Y-120264000D01*
X132485000Y-114452000D02*
X132485000Y-116308000D01*
X132485000Y-118388000D02*
X132485000Y-120244000D01*
X132525000Y-114472000D02*
X132525000Y-116308000D01*
X132525000Y-118388000D02*
X132525000Y-120224000D01*
X132565000Y-114492000D02*
X132565000Y-116308000D01*
X132565000Y-118388000D02*
X132565000Y-120204000D01*
X132605000Y-114514000D02*
X132605000Y-116308000D01*
X132605000Y-118388000D02*
X132605000Y-120182000D01*
X132645000Y-114536000D02*
X132645000Y-116308000D01*
X132645000Y-118388000D02*
X132645000Y-120160000D01*
X132685000Y-114558000D02*
X132685000Y-116308000D01*
X132685000Y-118388000D02*
X132685000Y-120138000D01*
X132725000Y-114582000D02*
X132725000Y-116308000D01*
X132725000Y-118388000D02*
X132725000Y-120114000D01*
X132765000Y-114606000D02*
X132765000Y-116308000D01*
X132765000Y-118388000D02*
X132765000Y-120090000D01*
X132805000Y-114632000D02*
X132805000Y-116308000D01*
X132805000Y-118388000D02*
X132805000Y-120064000D01*
X132845000Y-114658000D02*
X132845000Y-116308000D01*
X132845000Y-118388000D02*
X132845000Y-120038000D01*
X132885000Y-114684000D02*
X132885000Y-116308000D01*
X132885000Y-118388000D02*
X132885000Y-120012000D01*
X132925000Y-114712000D02*
X132925000Y-116308000D01*
X132925000Y-118388000D02*
X132925000Y-119984000D01*
X132965000Y-114741000D02*
X132965000Y-116308000D01*
X132965000Y-118388000D02*
X132965000Y-119955000D01*
X133005000Y-114770000D02*
X133005000Y-116308000D01*
X133005000Y-118388000D02*
X133005000Y-119926000D01*
X133045000Y-114800000D02*
X133045000Y-116308000D01*
X133045000Y-118388000D02*
X133045000Y-119896000D01*
X133085000Y-114832000D02*
X133085000Y-116308000D01*
X133085000Y-118388000D02*
X133085000Y-119864000D01*
X133125000Y-114864000D02*
X133125000Y-116308000D01*
X133125000Y-118388000D02*
X133125000Y-119832000D01*
X133165000Y-114898000D02*
X133165000Y-116308000D01*
X133165000Y-118388000D02*
X133165000Y-119798000D01*
X133205000Y-114932000D02*
X133205000Y-116308000D01*
X133205000Y-118388000D02*
X133205000Y-119764000D01*
X133245000Y-114968000D02*
X133245000Y-116308000D01*
X133245000Y-118388000D02*
X133245000Y-119728000D01*
X133285000Y-115005000D02*
X133285000Y-116308000D01*
X133285000Y-118388000D02*
X133285000Y-119691000D01*
X133325000Y-115043000D02*
X133325000Y-116308000D01*
X133325000Y-118388000D02*
X133325000Y-119653000D01*
X133365000Y-115083000D02*
X133365000Y-119613000D01*
X133405000Y-115124000D02*
X133405000Y-119572000D01*
X133445000Y-115166000D02*
X133445000Y-119530000D01*
X133485000Y-115211000D02*
X133485000Y-119485000D01*
X133525000Y-115256000D02*
X133525000Y-119440000D01*
X133565000Y-115304000D02*
X133565000Y-119392000D01*
X133605000Y-115353000D02*
X133605000Y-119343000D01*
X133645000Y-115404000D02*
X133645000Y-119292000D01*
X133685000Y-115458000D02*
X133685000Y-119238000D01*
X133725000Y-115514000D02*
X133725000Y-119182000D01*
X133765000Y-115572000D02*
X133765000Y-119124000D01*
X133805000Y-115634000D02*
X133805000Y-119062000D01*
X133845000Y-115698000D02*
X133845000Y-118998000D01*
X133885000Y-115767000D02*
X133885000Y-118929000D01*
X133925000Y-115839000D02*
X133925000Y-118857000D01*
X133965000Y-115916000D02*
X133965000Y-118780000D01*
X134005000Y-115998000D02*
X134005000Y-118698000D01*
X134045000Y-116086000D02*
X134045000Y-118610000D01*
X134085000Y-116183000D02*
X134085000Y-118513000D01*
X134125000Y-116289000D02*
X134125000Y-118407000D01*
X134165000Y-116408000D02*
X134165000Y-118288000D01*
X134205000Y-116546000D02*
X134205000Y-118150000D01*
X134245000Y-116715000D02*
X134245000Y-117981000D01*
X134285000Y-116946000D02*
X134285000Y-117750000D01*
X127543759Y-115509000D02*
X128173759Y-115509000D01*
X127858759Y-115194000D02*
X127858759Y-115824000D01*
X146742000Y-143182000D02*
X146612000Y-143182000D01*
X146612000Y-143182000D02*
X146612000Y-137742000D01*
X146612000Y-137742000D02*
X146742000Y-137742000D01*
X149422000Y-143182000D02*
X149552000Y-143182000D01*
X149552000Y-143182000D02*
X149552000Y-137742000D01*
X149552000Y-137742000D02*
X149422000Y-137742000D01*
X146612000Y-142282000D02*
X149552000Y-142282000D01*
X146612000Y-142162000D02*
X149552000Y-142162000D01*
X146612000Y-142402000D02*
X149552000Y-142402000D01*
X169104000Y-92516000D02*
X171764000Y-92516000D01*
X169104000Y-92456000D02*
X169104000Y-92516000D01*
X171764000Y-92456000D02*
X171764000Y-92516000D01*
X169104000Y-92456000D02*
X171764000Y-92456000D01*
X169104000Y-91186000D02*
X169104000Y-89856000D01*
X169104000Y-89856000D02*
X170434000Y-89856000D01*
X151042000Y-142792000D02*
X155282000Y-142792000D01*
X155282000Y-142792000D02*
X155282000Y-133052000D01*
X155282000Y-133052000D02*
X151042000Y-133052000D01*
X151042000Y-133052000D02*
X151042000Y-142792000D01*
X153162000Y-143032000D02*
X153162000Y-142792000D01*
X153162000Y-132812000D02*
X153162000Y-133052000D01*
X153400000Y-98238000D02*
G75*
G02X151400000Y-98238000I-1000000J0D01*
G01*
X151400000Y-98238000D02*
X149750000Y-98238000D01*
X149750000Y-98238000D02*
X149750000Y-108518000D01*
X149750000Y-108518000D02*
X155050000Y-108518000D01*
X155050000Y-108518000D02*
X155050000Y-98238000D01*
X155050000Y-98238000D02*
X153400000Y-98238000D01*
X135410000Y-107950000D02*
G75*
G03X135410000Y-107950000I-4120000J0D01*
G01*
X143224000Y-83974000D02*
X149464000Y-83974000D01*
X143224000Y-86714000D02*
X149464000Y-86714000D01*
X143224000Y-83974000D02*
X143224000Y-84419000D01*
X143224000Y-86269000D02*
X143224000Y-86714000D01*
X149464000Y-83974000D02*
X149464000Y-84419000D01*
X149464000Y-86269000D02*
X149464000Y-86714000D01*
X158528000Y-86269000D02*
X158528000Y-86714000D01*
X158528000Y-83974000D02*
X158528000Y-84419000D01*
X152288000Y-86269000D02*
X152288000Y-86714000D01*
X152288000Y-83974000D02*
X152288000Y-84419000D01*
X152288000Y-86714000D02*
X158528000Y-86714000D01*
X152288000Y-83974000D02*
X158528000Y-83974000D01*
X155446000Y-95235000D02*
X149046000Y-95235000D01*
X155446000Y-90185000D02*
X149046000Y-90185000D01*
X155446000Y-90185000D02*
G75*
G02X155446000Y-95235000I0J-2525000D01*
G01*
X149046000Y-90185000D02*
G75*
G03X149046000Y-95235000I0J-2525000D01*
G01*
X133664000Y-101152000D02*
X133664000Y-98492000D01*
X131064000Y-101152000D02*
X133664000Y-101152000D01*
X131064000Y-98492000D02*
X133664000Y-98492000D01*
X131064000Y-101152000D02*
X131064000Y-98492000D01*
X129794000Y-101152000D02*
X128464000Y-101152000D01*
X128464000Y-101152000D02*
X128464000Y-99822000D01*
D14*
X132762666Y-136866380D02*
X132762666Y-137580666D01*
X132715047Y-137723523D01*
X132619809Y-137818761D01*
X132476952Y-137866380D01*
X132381714Y-137866380D01*
X133762666Y-137866380D02*
X133191238Y-137866380D01*
X133476952Y-137866380D02*
X133476952Y-136866380D01*
X133381714Y-137009238D01*
X133286476Y-137104476D01*
X133191238Y-137152095D01*
X132508666Y-146264380D02*
X132508666Y-146978666D01*
X132461047Y-147121523D01*
X132365809Y-147216761D01*
X132222952Y-147264380D01*
X132127714Y-147264380D01*
X132937238Y-146359619D02*
X132984857Y-146312000D01*
X133080095Y-146264380D01*
X133318190Y-146264380D01*
X133413428Y-146312000D01*
X133461047Y-146359619D01*
X133508666Y-146454857D01*
X133508666Y-146550095D01*
X133461047Y-146692952D01*
X132889619Y-147264380D01*
X133508666Y-147264380D01*
X163496666Y-138136380D02*
X163496666Y-138850666D01*
X163449047Y-138993523D01*
X163353809Y-139088761D01*
X163210952Y-139136380D01*
X163115714Y-139136380D01*
X163877619Y-138136380D02*
X164496666Y-138136380D01*
X164163333Y-138517333D01*
X164306190Y-138517333D01*
X164401428Y-138564952D01*
X164449047Y-138612571D01*
X164496666Y-138707809D01*
X164496666Y-138945904D01*
X164449047Y-139041142D01*
X164401428Y-139088761D01*
X164306190Y-139136380D01*
X164020476Y-139136380D01*
X163925238Y-139088761D01*
X163877619Y-139041142D01*
X149526666Y-75398380D02*
X149526666Y-76112666D01*
X149479047Y-76255523D01*
X149383809Y-76350761D01*
X149240952Y-76398380D01*
X149145714Y-76398380D01*
X150431428Y-75731714D02*
X150431428Y-76398380D01*
X150193333Y-75350761D02*
X149955238Y-76065047D01*
X150574285Y-76065047D01*
X160361333Y-133802380D02*
X160028000Y-133326190D01*
X159789904Y-133802380D02*
X159789904Y-132802380D01*
X160170857Y-132802380D01*
X160266095Y-132850000D01*
X160313714Y-132897619D01*
X160361333Y-132992857D01*
X160361333Y-133135714D01*
X160313714Y-133230952D01*
X160266095Y-133278571D01*
X160170857Y-133326190D01*
X159789904Y-133326190D01*
X161313714Y-133802380D02*
X160742285Y-133802380D01*
X161028000Y-133802380D02*
X161028000Y-132802380D01*
X160932761Y-132945238D01*
X160837523Y-133040476D01*
X160742285Y-133088095D01*
X160361333Y-131262380D02*
X160028000Y-130786190D01*
X159789904Y-131262380D02*
X159789904Y-130262380D01*
X160170857Y-130262380D01*
X160266095Y-130310000D01*
X160313714Y-130357619D01*
X160361333Y-130452857D01*
X160361333Y-130595714D01*
X160313714Y-130690952D01*
X160266095Y-130738571D01*
X160170857Y-130786190D01*
X159789904Y-130786190D01*
X160742285Y-130357619D02*
X160789904Y-130310000D01*
X160885142Y-130262380D01*
X161123238Y-130262380D01*
X161218476Y-130310000D01*
X161266095Y-130357619D01*
X161313714Y-130452857D01*
X161313714Y-130548095D01*
X161266095Y-130690952D01*
X160694666Y-131262380D01*
X161313714Y-131262380D01*
X160361333Y-128722380D02*
X160028000Y-128246190D01*
X159789904Y-128722380D02*
X159789904Y-127722380D01*
X160170857Y-127722380D01*
X160266095Y-127770000D01*
X160313714Y-127817619D01*
X160361333Y-127912857D01*
X160361333Y-128055714D01*
X160313714Y-128150952D01*
X160266095Y-128198571D01*
X160170857Y-128246190D01*
X159789904Y-128246190D01*
X160694666Y-127722380D02*
X161313714Y-127722380D01*
X160980380Y-128103333D01*
X161123238Y-128103333D01*
X161218476Y-128150952D01*
X161266095Y-128198571D01*
X161313714Y-128293809D01*
X161313714Y-128531904D01*
X161266095Y-128627142D01*
X161218476Y-128674761D01*
X161123238Y-128722380D01*
X160837523Y-128722380D01*
X160742285Y-128674761D01*
X160694666Y-128627142D01*
X160615333Y-126182380D02*
X160282000Y-125706190D01*
X160043904Y-126182380D02*
X160043904Y-125182380D01*
X160424857Y-125182380D01*
X160520095Y-125230000D01*
X160567714Y-125277619D01*
X160615333Y-125372857D01*
X160615333Y-125515714D01*
X160567714Y-125610952D01*
X160520095Y-125658571D01*
X160424857Y-125706190D01*
X160043904Y-125706190D01*
X161472476Y-125515714D02*
X161472476Y-126182380D01*
X161234380Y-125134761D02*
X160996285Y-125849047D01*
X161615333Y-125849047D01*
X160615333Y-123642380D02*
X160282000Y-123166190D01*
X160043904Y-123642380D02*
X160043904Y-122642380D01*
X160424857Y-122642380D01*
X160520095Y-122690000D01*
X160567714Y-122737619D01*
X160615333Y-122832857D01*
X160615333Y-122975714D01*
X160567714Y-123070952D01*
X160520095Y-123118571D01*
X160424857Y-123166190D01*
X160043904Y-123166190D01*
X161520095Y-122642380D02*
X161043904Y-122642380D01*
X160996285Y-123118571D01*
X161043904Y-123070952D01*
X161139142Y-123023333D01*
X161377238Y-123023333D01*
X161472476Y-123070952D01*
X161520095Y-123118571D01*
X161567714Y-123213809D01*
X161567714Y-123451904D01*
X161520095Y-123547142D01*
X161472476Y-123594761D01*
X161377238Y-123642380D01*
X161139142Y-123642380D01*
X161043904Y-123594761D01*
X160996285Y-123547142D01*
X160361333Y-121102380D02*
X160028000Y-120626190D01*
X159789904Y-121102380D02*
X159789904Y-120102380D01*
X160170857Y-120102380D01*
X160266095Y-120150000D01*
X160313714Y-120197619D01*
X160361333Y-120292857D01*
X160361333Y-120435714D01*
X160313714Y-120530952D01*
X160266095Y-120578571D01*
X160170857Y-120626190D01*
X159789904Y-120626190D01*
X161218476Y-120102380D02*
X161028000Y-120102380D01*
X160932761Y-120150000D01*
X160885142Y-120197619D01*
X160789904Y-120340476D01*
X160742285Y-120530952D01*
X160742285Y-120911904D01*
X160789904Y-121007142D01*
X160837523Y-121054761D01*
X160932761Y-121102380D01*
X161123238Y-121102380D01*
X161218476Y-121054761D01*
X161266095Y-121007142D01*
X161313714Y-120911904D01*
X161313714Y-120673809D01*
X161266095Y-120578571D01*
X161218476Y-120530952D01*
X161123238Y-120483333D01*
X160932761Y-120483333D01*
X160837523Y-120530952D01*
X160789904Y-120578571D01*
X160742285Y-120673809D01*
X139636666Y-93622761D02*
X139779523Y-93670380D01*
X140017619Y-93670380D01*
X140112857Y-93622761D01*
X140160476Y-93575142D01*
X140208095Y-93479904D01*
X140208095Y-93384666D01*
X140160476Y-93289428D01*
X140112857Y-93241809D01*
X140017619Y-93194190D01*
X139827142Y-93146571D01*
X139731904Y-93098952D01*
X139684285Y-93051333D01*
X139636666Y-92956095D01*
X139636666Y-92860857D01*
X139684285Y-92765619D01*
X139731904Y-92718000D01*
X139827142Y-92670380D01*
X140065238Y-92670380D01*
X140208095Y-92718000D01*
X140541428Y-92670380D02*
X140779523Y-93670380D01*
X140970000Y-92956095D01*
X141160476Y-93670380D01*
X141398571Y-92670380D01*
X142303333Y-93670380D02*
X141731904Y-93670380D01*
X142017619Y-93670380D02*
X142017619Y-92670380D01*
X141922380Y-92813238D01*
X141827142Y-92908476D01*
X141731904Y-92956095D01*
X139636666Y-103020761D02*
X139779523Y-103068380D01*
X140017619Y-103068380D01*
X140112857Y-103020761D01*
X140160476Y-102973142D01*
X140208095Y-102877904D01*
X140208095Y-102782666D01*
X140160476Y-102687428D01*
X140112857Y-102639809D01*
X140017619Y-102592190D01*
X139827142Y-102544571D01*
X139731904Y-102496952D01*
X139684285Y-102449333D01*
X139636666Y-102354095D01*
X139636666Y-102258857D01*
X139684285Y-102163619D01*
X139731904Y-102116000D01*
X139827142Y-102068380D01*
X140065238Y-102068380D01*
X140208095Y-102116000D01*
X140541428Y-102068380D02*
X140779523Y-103068380D01*
X140970000Y-102354095D01*
X141160476Y-103068380D01*
X141398571Y-102068380D01*
X141731904Y-102163619D02*
X141779523Y-102116000D01*
X141874761Y-102068380D01*
X142112857Y-102068380D01*
X142208095Y-102116000D01*
X142255714Y-102163619D01*
X142303333Y-102258857D01*
X142303333Y-102354095D01*
X142255714Y-102496952D01*
X141684285Y-103068380D01*
X142303333Y-103068380D01*
X162242666Y-93622761D02*
X162385523Y-93670380D01*
X162623619Y-93670380D01*
X162718857Y-93622761D01*
X162766476Y-93575142D01*
X162814095Y-93479904D01*
X162814095Y-93384666D01*
X162766476Y-93289428D01*
X162718857Y-93241809D01*
X162623619Y-93194190D01*
X162433142Y-93146571D01*
X162337904Y-93098952D01*
X162290285Y-93051333D01*
X162242666Y-92956095D01*
X162242666Y-92860857D01*
X162290285Y-92765619D01*
X162337904Y-92718000D01*
X162433142Y-92670380D01*
X162671238Y-92670380D01*
X162814095Y-92718000D01*
X163147428Y-92670380D02*
X163385523Y-93670380D01*
X163576000Y-92956095D01*
X163766476Y-93670380D01*
X164004571Y-92670380D01*
X164290285Y-92670380D02*
X164909333Y-92670380D01*
X164576000Y-93051333D01*
X164718857Y-93051333D01*
X164814095Y-93098952D01*
X164861714Y-93146571D01*
X164909333Y-93241809D01*
X164909333Y-93479904D01*
X164861714Y-93575142D01*
X164814095Y-93622761D01*
X164718857Y-93670380D01*
X164433142Y-93670380D01*
X164337904Y-93622761D01*
X164290285Y-93575142D01*
X162496666Y-103528761D02*
X162639523Y-103576380D01*
X162877619Y-103576380D01*
X162972857Y-103528761D01*
X163020476Y-103481142D01*
X163068095Y-103385904D01*
X163068095Y-103290666D01*
X163020476Y-103195428D01*
X162972857Y-103147809D01*
X162877619Y-103100190D01*
X162687142Y-103052571D01*
X162591904Y-103004952D01*
X162544285Y-102957333D01*
X162496666Y-102862095D01*
X162496666Y-102766857D01*
X162544285Y-102671619D01*
X162591904Y-102624000D01*
X162687142Y-102576380D01*
X162925238Y-102576380D01*
X163068095Y-102624000D01*
X163401428Y-102576380D02*
X163639523Y-103576380D01*
X163830000Y-102862095D01*
X164020476Y-103576380D01*
X164258571Y-102576380D01*
X165068095Y-102909714D02*
X165068095Y-103576380D01*
X164830000Y-102528761D02*
X164591904Y-103243047D01*
X165210952Y-103243047D01*
X139192095Y-111720380D02*
X139192095Y-112529904D01*
X139239714Y-112625142D01*
X139287333Y-112672761D01*
X139382571Y-112720380D01*
X139573047Y-112720380D01*
X139668285Y-112672761D01*
X139715904Y-112625142D01*
X139763523Y-112529904D01*
X139763523Y-111720380D01*
X140763523Y-112720380D02*
X140192095Y-112720380D01*
X140477809Y-112720380D02*
X140477809Y-111720380D01*
X140382571Y-111863238D01*
X140287333Y-111958476D01*
X140192095Y-112006095D01*
X151288761Y-124495619D02*
X151193523Y-124448000D01*
X151098285Y-124352761D01*
X150955428Y-124209904D01*
X150860190Y-124162285D01*
X150764952Y-124162285D01*
X150812571Y-124400380D02*
X150717333Y-124352761D01*
X150622095Y-124257523D01*
X150574476Y-124067047D01*
X150574476Y-123733714D01*
X150622095Y-123543238D01*
X150717333Y-123448000D01*
X150812571Y-123400380D01*
X151003047Y-123400380D01*
X151098285Y-123448000D01*
X151193523Y-123543238D01*
X151241142Y-123733714D01*
X151241142Y-124067047D01*
X151193523Y-124257523D01*
X151098285Y-124352761D01*
X151003047Y-124400380D01*
X150812571Y-124400380D01*
X152193523Y-124400380D02*
X151622095Y-124400380D01*
X151907809Y-124400380D02*
X151907809Y-123400380D01*
X151812571Y-123543238D01*
X151717333Y-123638476D01*
X151622095Y-123686095D01*
X151542761Y-117383619D02*
X151447523Y-117336000D01*
X151352285Y-117240761D01*
X151209428Y-117097904D01*
X151114190Y-117050285D01*
X151018952Y-117050285D01*
X151066571Y-117288380D02*
X150971333Y-117240761D01*
X150876095Y-117145523D01*
X150828476Y-116955047D01*
X150828476Y-116621714D01*
X150876095Y-116431238D01*
X150971333Y-116336000D01*
X151066571Y-116288380D01*
X151257047Y-116288380D01*
X151352285Y-116336000D01*
X151447523Y-116431238D01*
X151495142Y-116621714D01*
X151495142Y-116955047D01*
X151447523Y-117145523D01*
X151352285Y-117240761D01*
X151257047Y-117288380D01*
X151066571Y-117288380D01*
X151876095Y-116383619D02*
X151923714Y-116336000D01*
X152018952Y-116288380D01*
X152257047Y-116288380D01*
X152352285Y-116336000D01*
X152399904Y-116383619D01*
X152447523Y-116478857D01*
X152447523Y-116574095D01*
X152399904Y-116716952D01*
X151828476Y-117288380D01*
X152447523Y-117288380D01*
X151288761Y-110271619D02*
X151193523Y-110224000D01*
X151098285Y-110128761D01*
X150955428Y-109985904D01*
X150860190Y-109938285D01*
X150764952Y-109938285D01*
X150812571Y-110176380D02*
X150717333Y-110128761D01*
X150622095Y-110033523D01*
X150574476Y-109843047D01*
X150574476Y-109509714D01*
X150622095Y-109319238D01*
X150717333Y-109224000D01*
X150812571Y-109176380D01*
X151003047Y-109176380D01*
X151098285Y-109224000D01*
X151193523Y-109319238D01*
X151241142Y-109509714D01*
X151241142Y-109843047D01*
X151193523Y-110033523D01*
X151098285Y-110128761D01*
X151003047Y-110176380D01*
X150812571Y-110176380D01*
X151574476Y-109176380D02*
X152193523Y-109176380D01*
X151860190Y-109557333D01*
X152003047Y-109557333D01*
X152098285Y-109604952D01*
X152145904Y-109652571D01*
X152193523Y-109747809D01*
X152193523Y-109985904D01*
X152145904Y-110081142D01*
X152098285Y-110128761D01*
X152003047Y-110176380D01*
X151717333Y-110176380D01*
X151622095Y-110128761D01*
X151574476Y-110081142D01*
X160615333Y-118562380D02*
X160282000Y-118086190D01*
X160043904Y-118562380D02*
X160043904Y-117562380D01*
X160424857Y-117562380D01*
X160520095Y-117610000D01*
X160567714Y-117657619D01*
X160615333Y-117752857D01*
X160615333Y-117895714D01*
X160567714Y-117990952D01*
X160520095Y-118038571D01*
X160424857Y-118086190D01*
X160043904Y-118086190D01*
X160948666Y-117562380D02*
X161615333Y-117562380D01*
X161186761Y-118562380D01*
X160615333Y-116276380D02*
X160282000Y-115800190D01*
X160043904Y-116276380D02*
X160043904Y-115276380D01*
X160424857Y-115276380D01*
X160520095Y-115324000D01*
X160567714Y-115371619D01*
X160615333Y-115466857D01*
X160615333Y-115609714D01*
X160567714Y-115704952D01*
X160520095Y-115752571D01*
X160424857Y-115800190D01*
X160043904Y-115800190D01*
X161186761Y-115704952D02*
X161091523Y-115657333D01*
X161043904Y-115609714D01*
X160996285Y-115514476D01*
X160996285Y-115466857D01*
X161043904Y-115371619D01*
X161091523Y-115324000D01*
X161186761Y-115276380D01*
X161377238Y-115276380D01*
X161472476Y-115324000D01*
X161520095Y-115371619D01*
X161567714Y-115466857D01*
X161567714Y-115514476D01*
X161520095Y-115609714D01*
X161472476Y-115657333D01*
X161377238Y-115704952D01*
X161186761Y-115704952D01*
X161091523Y-115752571D01*
X161043904Y-115800190D01*
X160996285Y-115895428D01*
X160996285Y-116085904D01*
X161043904Y-116181142D01*
X161091523Y-116228761D01*
X161186761Y-116276380D01*
X161377238Y-116276380D01*
X161472476Y-116228761D01*
X161520095Y-116181142D01*
X161567714Y-116085904D01*
X161567714Y-115895428D01*
X161520095Y-115800190D01*
X161472476Y-115752571D01*
X161377238Y-115704952D01*
X160615333Y-113990380D02*
X160282000Y-113514190D01*
X160043904Y-113990380D02*
X160043904Y-112990380D01*
X160424857Y-112990380D01*
X160520095Y-113038000D01*
X160567714Y-113085619D01*
X160615333Y-113180857D01*
X160615333Y-113323714D01*
X160567714Y-113418952D01*
X160520095Y-113466571D01*
X160424857Y-113514190D01*
X160043904Y-113514190D01*
X161091523Y-113990380D02*
X161282000Y-113990380D01*
X161377238Y-113942761D01*
X161424857Y-113895142D01*
X161520095Y-113752285D01*
X161567714Y-113561809D01*
X161567714Y-113180857D01*
X161520095Y-113085619D01*
X161472476Y-113038000D01*
X161377238Y-112990380D01*
X161186761Y-112990380D01*
X161091523Y-113038000D01*
X161043904Y-113085619D01*
X160996285Y-113180857D01*
X160996285Y-113418952D01*
X161043904Y-113514190D01*
X161091523Y-113561809D01*
X161186761Y-113609428D01*
X161377238Y-113609428D01*
X161472476Y-113561809D01*
X161520095Y-113514190D01*
X161567714Y-113418952D01*
X130556095Y-122134380D02*
X130556095Y-122943904D01*
X130603714Y-123039142D01*
X130651333Y-123086761D01*
X130746571Y-123134380D01*
X130937047Y-123134380D01*
X131032285Y-123086761D01*
X131079904Y-123039142D01*
X131127523Y-122943904D01*
X131127523Y-122134380D01*
X131556095Y-122229619D02*
X131603714Y-122182000D01*
X131698952Y-122134380D01*
X131937047Y-122134380D01*
X132032285Y-122182000D01*
X132079904Y-122229619D01*
X132127523Y-122324857D01*
X132127523Y-122420095D01*
X132079904Y-122562952D01*
X131508476Y-123134380D01*
X132127523Y-123134380D01*
X137334666Y-79164380D02*
X137334666Y-79878666D01*
X137287047Y-80021523D01*
X137191809Y-80116761D01*
X137048952Y-80164380D01*
X136953714Y-80164380D01*
X138287047Y-79164380D02*
X137810857Y-79164380D01*
X137763238Y-79640571D01*
X137810857Y-79592952D01*
X137906095Y-79545333D01*
X138144190Y-79545333D01*
X138239428Y-79592952D01*
X138287047Y-79640571D01*
X138334666Y-79735809D01*
X138334666Y-79973904D01*
X138287047Y-80069142D01*
X138239428Y-80116761D01*
X138144190Y-80164380D01*
X137906095Y-80164380D01*
X137810857Y-80116761D01*
X137763238Y-80069142D01*
X128444666Y-78954380D02*
X128444666Y-79668666D01*
X128397047Y-79811523D01*
X128301809Y-79906761D01*
X128158952Y-79954380D01*
X128063714Y-79954380D01*
X129349428Y-78954380D02*
X129158952Y-78954380D01*
X129063714Y-79002000D01*
X129016095Y-79049619D01*
X128920857Y-79192476D01*
X128873238Y-79382952D01*
X128873238Y-79763904D01*
X128920857Y-79859142D01*
X128968476Y-79906761D01*
X129063714Y-79954380D01*
X129254190Y-79954380D01*
X129349428Y-79906761D01*
X129397047Y-79859142D01*
X129444666Y-79763904D01*
X129444666Y-79525809D01*
X129397047Y-79430571D01*
X129349428Y-79382952D01*
X129254190Y-79335333D01*
X129063714Y-79335333D01*
X128968476Y-79382952D01*
X128920857Y-79430571D01*
X128873238Y-79525809D01*
X133524666Y-79211380D02*
X133524666Y-79925666D01*
X133477047Y-80068523D01*
X133381809Y-80163761D01*
X133238952Y-80211380D01*
X133143714Y-80211380D01*
X133905619Y-79211380D02*
X134572285Y-79211380D01*
X134143714Y-80211380D01*
X168322666Y-86320380D02*
X168322666Y-87034666D01*
X168275047Y-87177523D01*
X168179809Y-87272761D01*
X168036952Y-87320380D01*
X167941714Y-87320380D01*
X168941714Y-86748952D02*
X168846476Y-86701333D01*
X168798857Y-86653714D01*
X168751238Y-86558476D01*
X168751238Y-86510857D01*
X168798857Y-86415619D01*
X168846476Y-86368000D01*
X168941714Y-86320380D01*
X169132190Y-86320380D01*
X169227428Y-86368000D01*
X169275047Y-86415619D01*
X169322666Y-86510857D01*
X169322666Y-86558476D01*
X169275047Y-86653714D01*
X169227428Y-86701333D01*
X169132190Y-86748952D01*
X168941714Y-86748952D01*
X168846476Y-86796571D01*
X168798857Y-86844190D01*
X168751238Y-86939428D01*
X168751238Y-87129904D01*
X168798857Y-87225142D01*
X168846476Y-87272761D01*
X168941714Y-87320380D01*
X169132190Y-87320380D01*
X169227428Y-87272761D01*
X169275047Y-87225142D01*
X169322666Y-87129904D01*
X169322666Y-86939428D01*
X169275047Y-86844190D01*
X169227428Y-86796571D01*
X169132190Y-86748952D01*
X129460666Y-88308380D02*
X129460666Y-89022666D01*
X129413047Y-89165523D01*
X129317809Y-89260761D01*
X129174952Y-89308380D01*
X129079714Y-89308380D01*
X129984476Y-89308380D02*
X130174952Y-89308380D01*
X130270190Y-89260761D01*
X130317809Y-89213142D01*
X130413047Y-89070285D01*
X130460666Y-88879809D01*
X130460666Y-88498857D01*
X130413047Y-88403619D01*
X130365428Y-88356000D01*
X130270190Y-88308380D01*
X130079714Y-88308380D01*
X129984476Y-88356000D01*
X129936857Y-88403619D01*
X129889238Y-88498857D01*
X129889238Y-88736952D01*
X129936857Y-88832190D01*
X129984476Y-88879809D01*
X130079714Y-88927428D01*
X130270190Y-88927428D01*
X130365428Y-88879809D01*
X130413047Y-88832190D01*
X130460666Y-88736952D01*
X170537142Y-101766666D02*
X170584761Y-101814285D01*
X170632380Y-101957142D01*
X170632380Y-102052380D01*
X170584761Y-102195238D01*
X170489523Y-102290476D01*
X170394285Y-102338095D01*
X170203809Y-102385714D01*
X170060952Y-102385714D01*
X169870476Y-102338095D01*
X169775238Y-102290476D01*
X169680000Y-102195238D01*
X169632380Y-102052380D01*
X169632380Y-101957142D01*
X169680000Y-101814285D01*
X169727619Y-101766666D01*
X170632380Y-100814285D02*
X170632380Y-101385714D01*
X170632380Y-101100000D02*
X169632380Y-101100000D01*
X169775238Y-101195238D01*
X169870476Y-101290476D01*
X169918095Y-101385714D01*
X130877333Y-113305142D02*
X130829714Y-113352761D01*
X130686857Y-113400380D01*
X130591619Y-113400380D01*
X130448761Y-113352761D01*
X130353523Y-113257523D01*
X130305904Y-113162285D01*
X130258285Y-112971809D01*
X130258285Y-112828952D01*
X130305904Y-112638476D01*
X130353523Y-112543238D01*
X130448761Y-112448000D01*
X130591619Y-112400380D01*
X130686857Y-112400380D01*
X130829714Y-112448000D01*
X130877333Y-112495619D01*
X131258285Y-112495619D02*
X131305904Y-112448000D01*
X131401142Y-112400380D01*
X131639238Y-112400380D01*
X131734476Y-112448000D01*
X131782095Y-112495619D01*
X131829714Y-112590857D01*
X131829714Y-112686095D01*
X131782095Y-112828952D01*
X131210666Y-113400380D01*
X131829714Y-113400380D01*
X148788380Y-140692095D02*
X147788380Y-140692095D01*
X147788380Y-140454000D01*
X147836000Y-140311142D01*
X147931238Y-140215904D01*
X148026476Y-140168285D01*
X148216952Y-140120666D01*
X148359809Y-140120666D01*
X148550285Y-140168285D01*
X148645523Y-140215904D01*
X148740761Y-140311142D01*
X148788380Y-140454000D01*
X148788380Y-140692095D01*
X148788380Y-139168285D02*
X148788380Y-139739714D01*
X148788380Y-139454000D02*
X147788380Y-139454000D01*
X147931238Y-139549238D01*
X148026476Y-139644476D01*
X148074095Y-139739714D01*
X146434380Y-144533904D02*
X145434380Y-144533904D01*
X146434380Y-143962476D02*
X145862952Y-144391047D01*
X145434380Y-143962476D02*
X146005809Y-144533904D01*
X169624476Y-88308380D02*
X169624476Y-89022666D01*
X169576857Y-89165523D01*
X169481619Y-89260761D01*
X169338761Y-89308380D01*
X169243523Y-89308380D01*
X170624476Y-89308380D02*
X170053047Y-89308380D01*
X170338761Y-89308380D02*
X170338761Y-88308380D01*
X170243523Y-88451238D01*
X170148285Y-88546476D01*
X170053047Y-88594095D01*
X171576857Y-89308380D02*
X171005428Y-89308380D01*
X171291142Y-89308380D02*
X171291142Y-88308380D01*
X171195904Y-88451238D01*
X171100666Y-88546476D01*
X171005428Y-88594095D01*
X153614380Y-138342666D02*
X153614380Y-138818857D01*
X152614380Y-138818857D01*
X153614380Y-137485523D02*
X153614380Y-138056952D01*
X153614380Y-137771238D02*
X152614380Y-137771238D01*
X152757238Y-137866476D01*
X152852476Y-137961714D01*
X152900095Y-138056952D01*
X151892095Y-100798380D02*
X151892095Y-101607904D01*
X151939714Y-101703142D01*
X151987333Y-101750761D01*
X152082571Y-101798380D01*
X152273047Y-101798380D01*
X152368285Y-101750761D01*
X152415904Y-101703142D01*
X152463523Y-101607904D01*
X152463523Y-100798380D01*
X152844476Y-100798380D02*
X153463523Y-100798380D01*
X153130190Y-101179333D01*
X153273047Y-101179333D01*
X153368285Y-101226952D01*
X153415904Y-101274571D01*
X153463523Y-101369809D01*
X153463523Y-101607904D01*
X153415904Y-101703142D01*
X153368285Y-101750761D01*
X153273047Y-101798380D01*
X152987333Y-101798380D01*
X152892095Y-101750761D01*
X152844476Y-101703142D01*
X131123333Y-105767142D02*
X131075714Y-105814761D01*
X130932857Y-105862380D01*
X130837619Y-105862380D01*
X130694761Y-105814761D01*
X130599523Y-105719523D01*
X130551904Y-105624285D01*
X130504285Y-105433809D01*
X130504285Y-105290952D01*
X130551904Y-105100476D01*
X130599523Y-105005238D01*
X130694761Y-104910000D01*
X130837619Y-104862380D01*
X130932857Y-104862380D01*
X131075714Y-104910000D01*
X131123333Y-104957619D01*
X131456666Y-104862380D02*
X132075714Y-104862380D01*
X131742380Y-105243333D01*
X131885238Y-105243333D01*
X131980476Y-105290952D01*
X132028095Y-105338571D01*
X132075714Y-105433809D01*
X132075714Y-105671904D01*
X132028095Y-105767142D01*
X131980476Y-105814761D01*
X131885238Y-105862380D01*
X131599523Y-105862380D01*
X131504285Y-105814761D01*
X131456666Y-105767142D01*
X146217333Y-85701142D02*
X146169714Y-85748761D01*
X146026857Y-85796380D01*
X145931619Y-85796380D01*
X145788761Y-85748761D01*
X145693523Y-85653523D01*
X145645904Y-85558285D01*
X145598285Y-85367809D01*
X145598285Y-85224952D01*
X145645904Y-85034476D01*
X145693523Y-84939238D01*
X145788761Y-84844000D01*
X145931619Y-84796380D01*
X146026857Y-84796380D01*
X146169714Y-84844000D01*
X146217333Y-84891619D01*
X147074476Y-85129714D02*
X147074476Y-85796380D01*
X146836380Y-84748761D02*
X146598285Y-85463047D01*
X147217333Y-85463047D01*
X155241333Y-85701142D02*
X155193714Y-85748761D01*
X155050857Y-85796380D01*
X154955619Y-85796380D01*
X154812761Y-85748761D01*
X154717523Y-85653523D01*
X154669904Y-85558285D01*
X154622285Y-85367809D01*
X154622285Y-85224952D01*
X154669904Y-85034476D01*
X154717523Y-84939238D01*
X154812761Y-84844000D01*
X154955619Y-84796380D01*
X155050857Y-84796380D01*
X155193714Y-84844000D01*
X155241333Y-84891619D01*
X156146095Y-84796380D02*
X155669904Y-84796380D01*
X155622285Y-85272571D01*
X155669904Y-85224952D01*
X155765142Y-85177333D01*
X156003238Y-85177333D01*
X156098476Y-85224952D01*
X156146095Y-85272571D01*
X156193714Y-85367809D01*
X156193714Y-85605904D01*
X156146095Y-85701142D01*
X156098476Y-85748761D01*
X156003238Y-85796380D01*
X155765142Y-85796380D01*
X155669904Y-85748761D01*
X155622285Y-85701142D01*
X151769809Y-96211190D02*
X151769809Y-96687380D01*
X151436476Y-95687380D02*
X151769809Y-96211190D01*
X152103142Y-95687380D01*
X152960285Y-96687380D02*
X152388857Y-96687380D01*
X152674571Y-96687380D02*
X152674571Y-95687380D01*
X152579333Y-95830238D01*
X152484095Y-95925476D01*
X152388857Y-95973095D01*
X131016476Y-96480380D02*
X131016476Y-97194666D01*
X130968857Y-97337523D01*
X130873619Y-97432761D01*
X130730761Y-97480380D01*
X130635523Y-97480380D01*
X132016476Y-97480380D02*
X131445047Y-97480380D01*
X131730761Y-97480380D02*
X131730761Y-96480380D01*
X131635523Y-96623238D01*
X131540285Y-96718476D01*
X131445047Y-96766095D01*
X132635523Y-96480380D02*
X132730761Y-96480380D01*
X132826000Y-96528000D01*
X132873619Y-96575619D01*
X132921238Y-96670857D01*
X132968857Y-96861333D01*
X132968857Y-97099428D01*
X132921238Y-97289904D01*
X132873619Y-97385142D01*
X132826000Y-97432761D01*
X132730761Y-97480380D01*
X132635523Y-97480380D01*
X132540285Y-97432761D01*
X132492666Y-97385142D01*
X132445047Y-97289904D01*
X132397428Y-97099428D01*
X132397428Y-96861333D01*
X132445047Y-96670857D01*
X132492666Y-96575619D01*
X132540285Y-96528000D01*
X132635523Y-96480380D01*
M02*
