%TF.GenerationSoftware,KiCad,Pcbnew,5.0.2-bee76a0~70~ubuntu16.04.1*%
%TF.CreationDate,2019-04-16T22:46:50+02:00*%
%TF.ProjectId,birduino-kicad,62697264-7569-46e6-9f2d-6b696361642e,rev?*%
%TF.SameCoordinates,Original*%
%TF.FileFunction,Copper,L1,Top*%
%TF.FilePolarity,Positive*%
%FSLAX46Y46*%
G04 Gerber Fmt 4.6, Leading zero omitted, Abs format (unit mm)*
G04 Created by KiCad (PCBNEW 5.0.2-bee76a0~70~ubuntu16.04.1) date Tue 16 Apr 2019 10:46:50 PM CEST*
%MOMM*%
%LPD*%
G01*
G04 APERTURE LIST*
%ADD10C,0.250000*%
%ADD11C,3.000000*%
%ADD12R,1.700000X1.700000*%
%ADD13O,1.700000X1.700000*%
%ADD14C,1.400000*%
%ADD15O,1.400000X1.400000*%
%ADD16C,1.397000*%
%ADD17R,1.600000X1.600000*%
%ADD18O,1.600000X1.600000*%
%ADD19O,1.050000X1.500000*%
%ADD20R,1.050000X1.500000*%
%ADD21C,1.600000*%
%ADD22R,2.200000X2.200000*%
%ADD23O,2.200000X2.200000*%
%ADD24C,2.000000*%
%ADD25O,2.000000X2.000000*%
%ADD26C,1.500000*%
%ADD27C,0.600000*%
%ADD28C,0.254000*%
G04 APERTURE END LIST*
D10*
X124460000Y-72400000D02*
X174460000Y-72400000D01*
X124460000Y-72400000D02*
X124460000Y-152400000D01*
X174460000Y-72400000D02*
X174460000Y-152400000D01*
X124460000Y-152400000D02*
X174460000Y-152400000D01*
D11*
X171460000Y-149400000D03*
X127460000Y-149400000D03*
X127460000Y-75400000D03*
X171460000Y-75400000D03*
D12*
X133096000Y-129540000D03*
D13*
X133096000Y-132080000D03*
X133096000Y-134620000D03*
D12*
X133096000Y-141224000D03*
D13*
X133096000Y-143764000D03*
D12*
X159004000Y-144018000D03*
D13*
X159004000Y-141478000D03*
X161544000Y-144018000D03*
X161544000Y-141478000D03*
X164084000Y-144018000D03*
X164084000Y-141478000D03*
X166624000Y-144018000D03*
X166624000Y-141478000D03*
X169164000Y-144018000D03*
X169164000Y-141478000D03*
D12*
X153670000Y-78486000D03*
D13*
X151130000Y-78486000D03*
X148590000Y-78486000D03*
X146050000Y-78486000D03*
D14*
X163322000Y-133350000D03*
D15*
X158242000Y-133350000D03*
X158242000Y-130810000D03*
D14*
X163322000Y-130810000D03*
X163322000Y-128270000D03*
D15*
X158242000Y-128270000D03*
X158242000Y-125730000D03*
D14*
X163322000Y-125730000D03*
X163322000Y-123190000D03*
D15*
X158242000Y-123190000D03*
X158242000Y-120650000D03*
D14*
X163322000Y-120650000D03*
D16*
X144780000Y-90678000D03*
X144780000Y-95758000D03*
X137160000Y-90678000D03*
X137160000Y-95758000D03*
X137160000Y-105156000D03*
X137160000Y-100076000D03*
X144780000Y-105156000D03*
X144780000Y-100076000D03*
X167386000Y-90678000D03*
X167386000Y-95758000D03*
X159766000Y-90678000D03*
X159766000Y-95758000D03*
X159766000Y-105664000D03*
X159766000Y-100584000D03*
X167386000Y-105664000D03*
X167386000Y-100584000D03*
D17*
X137015000Y-111049000D03*
D18*
X144635000Y-144069000D03*
X137015000Y-113589000D03*
X144635000Y-141529000D03*
X137015000Y-116129000D03*
X144635000Y-138989000D03*
X137015000Y-118669000D03*
X144635000Y-136449000D03*
X137015000Y-121209000D03*
X144635000Y-133909000D03*
X137015000Y-123749000D03*
X144635000Y-131369000D03*
X137015000Y-126289000D03*
X144635000Y-128829000D03*
X137015000Y-128829000D03*
X144635000Y-126289000D03*
X137015000Y-131369000D03*
X144635000Y-123749000D03*
X137015000Y-133909000D03*
X144635000Y-121209000D03*
X137015000Y-136449000D03*
X144635000Y-118669000D03*
X137015000Y-138989000D03*
X144635000Y-116129000D03*
X137015000Y-141529000D03*
X144635000Y-113589000D03*
X137015000Y-144069000D03*
X144635000Y-111049000D03*
D19*
X151384000Y-127508000D03*
X152654000Y-127508000D03*
D20*
X150114000Y-127508000D03*
X150368000Y-120396000D03*
D19*
X152908000Y-120396000D03*
X151638000Y-120396000D03*
X151384000Y-113284000D03*
X152654000Y-113284000D03*
D20*
X150114000Y-113284000D03*
D14*
X158242000Y-118110000D03*
D15*
X163322000Y-118110000D03*
X163322000Y-115824000D03*
D14*
X158242000Y-115824000D03*
X158242000Y-113538000D03*
D15*
X163322000Y-113538000D03*
D19*
X131318000Y-124460000D03*
X132588000Y-124460000D03*
D20*
X130048000Y-124460000D03*
D12*
X137668000Y-82042000D03*
X130048000Y-82042000D03*
X133858000Y-82089000D03*
X165100000Y-81788000D03*
D13*
X167640000Y-81788000D03*
X165100000Y-84328000D03*
X167640000Y-84328000D03*
D12*
X129794000Y-91186000D03*
D13*
X129794000Y-93726000D03*
D21*
X170434000Y-99568000D03*
X170434000Y-97068000D03*
D17*
X129794000Y-117348000D03*
D21*
X132294000Y-117348000D03*
D22*
X148082000Y-144272000D03*
D23*
X148082000Y-136652000D03*
D12*
X170434000Y-91186000D03*
D24*
X153162000Y-144272000D03*
D25*
X153162000Y-131572000D03*
D17*
X148590000Y-99568000D03*
D18*
X156210000Y-107188000D03*
X148590000Y-102108000D03*
X156210000Y-104648000D03*
X148590000Y-104648000D03*
X156210000Y-102108000D03*
X148590000Y-107188000D03*
X156210000Y-99568000D03*
D21*
X129540000Y-107950000D03*
X133040000Y-107950000D03*
X143844000Y-85344000D03*
X148844000Y-85344000D03*
X157908000Y-85344000D03*
X152908000Y-85344000D03*
D26*
X154686000Y-92710000D03*
X149806000Y-92710000D03*
D12*
X129794000Y-99822000D03*
D13*
X132334000Y-99822000D03*
D27*
X133736000Y-111569000D03*
X154472000Y-95773100D03*
X152971000Y-96298600D03*
X152689000Y-95248900D03*
X146881000Y-100132000D03*
D10*
X133096000Y-128364700D02*
X133736000Y-127724700D01*
X133736000Y-127724700D02*
X133736000Y-111569000D01*
X133096000Y-129540000D02*
X133096000Y-128364700D01*
X137015000Y-114714300D02*
X136781800Y-114714300D01*
X136781800Y-114714300D02*
X134988900Y-116507200D01*
X134988900Y-116507200D02*
X134988900Y-129819800D01*
X134988900Y-129819800D02*
X133904000Y-130904700D01*
X133904000Y-130904700D02*
X133096000Y-130904700D01*
X137015000Y-113589000D02*
X137015000Y-114714300D01*
X133096000Y-132080000D02*
X133096000Y-130904700D01*
X133096000Y-134620000D02*
X133096000Y-133444700D01*
X137015000Y-116129000D02*
X135439200Y-117704800D01*
X135439200Y-117704800D02*
X135439200Y-131466800D01*
X135439200Y-131466800D02*
X133461300Y-133444700D01*
X133461300Y-133444700D02*
X133096000Y-133444700D01*
X133096000Y-140048700D02*
X135889600Y-137255100D01*
X135889600Y-137255100D02*
X135889600Y-129954400D01*
X135889600Y-129954400D02*
X137015000Y-128829000D01*
X133096000Y-141224000D02*
X133096000Y-140048700D01*
X133040000Y-107950000D02*
X130969400Y-105879400D01*
X130969400Y-105879400D02*
X130969400Y-96076700D01*
X130969400Y-96076700D02*
X129794000Y-94901300D01*
X132294000Y-117348000D02*
X132294000Y-108696000D01*
X132294000Y-108696000D02*
X133040000Y-107950000D01*
X129794000Y-93726000D02*
X129794000Y-94901300D01*
X163322000Y-118110000D02*
X163322000Y-119135300D01*
X163322000Y-119135300D02*
X164347400Y-120160700D01*
X164347400Y-120160700D02*
X164347400Y-122164600D01*
X164347400Y-122164600D02*
X163322000Y-123190000D01*
X163322000Y-115824000D02*
X163322000Y-118110000D01*
X165100000Y-81788000D02*
X166275300Y-81788000D01*
X166275300Y-81788000D02*
X166275300Y-81420700D01*
X166275300Y-81420700D02*
X167121300Y-80574700D01*
X167121300Y-80574700D02*
X168143700Y-80574700D01*
X168143700Y-80574700D02*
X171609400Y-84040400D01*
X171609400Y-84040400D02*
X171609400Y-95892600D01*
X171609400Y-95892600D02*
X170434000Y-97068000D01*
X165100000Y-81788000D02*
X152908000Y-81788000D01*
X152908000Y-81788000D02*
X152908000Y-81439300D01*
X152908000Y-81439300D02*
X151130000Y-79661300D01*
X152908000Y-85344000D02*
X152908000Y-81788000D01*
X151130000Y-78486000D02*
X151130000Y-79661300D01*
X163322000Y-113538000D02*
X163322000Y-115824000D01*
X169164000Y-144018000D02*
X169164000Y-141478000D01*
X163322000Y-125730000D02*
X163322000Y-128270000D01*
X163322000Y-123190000D02*
X163322000Y-125730000D01*
X163322000Y-130810000D02*
X163322000Y-128270000D01*
X150368000Y-120396000D02*
X150368000Y-121471300D01*
X150368000Y-121471300D02*
X150114000Y-121725300D01*
X150114000Y-121725300D02*
X150114000Y-127508000D01*
X163322000Y-113538000D02*
X163322000Y-112512700D01*
X156210000Y-102108000D02*
X156210000Y-103233300D01*
X156210000Y-103233300D02*
X156491400Y-103233300D01*
X156491400Y-103233300D02*
X157335300Y-104077200D01*
X157335300Y-104077200D02*
X157335300Y-106526000D01*
X157335300Y-106526000D02*
X163322000Y-112512700D01*
X129540000Y-107950000D02*
X131152000Y-109562000D01*
X131152000Y-109562000D02*
X131152000Y-120975200D01*
X131152000Y-120975200D02*
X132588000Y-122411200D01*
X132588000Y-122411200D02*
X132588000Y-124460000D01*
X160812900Y-104617100D02*
X159766000Y-105664000D01*
X160812900Y-96804900D02*
X160812900Y-104617100D01*
X160812900Y-104617100D02*
X166339100Y-104617100D01*
X166339100Y-104617100D02*
X167386000Y-105664000D01*
X160812900Y-96804900D02*
X159766000Y-95758000D01*
X167386000Y-95758000D02*
X166339100Y-96804900D01*
X166339100Y-96804900D02*
X160812900Y-96804900D01*
X148590000Y-99568000D02*
X148590000Y-97758400D01*
X148590000Y-97758400D02*
X152215100Y-94133300D01*
X152215100Y-94133300D02*
X158141300Y-94133300D01*
X158141300Y-94133300D02*
X159766000Y-95758000D01*
X158242000Y-120650000D02*
X158242000Y-121675300D01*
X158242000Y-133862600D02*
X157200700Y-132821300D01*
X157200700Y-132821300D02*
X157200700Y-122716600D01*
X157200700Y-122716600D02*
X158242000Y-121675300D01*
X158242000Y-133862600D02*
X158242000Y-134375300D01*
X158242000Y-133350000D02*
X158242000Y-133862600D01*
X159004000Y-141478000D02*
X159004000Y-135137300D01*
X159004000Y-135137300D02*
X158242000Y-134375300D01*
X159004000Y-144018000D02*
X159004000Y-141478000D01*
X158242000Y-120650000D02*
X158242000Y-119624700D01*
X156210000Y-107188000D02*
X156210000Y-117592700D01*
X156210000Y-117592700D02*
X158242000Y-119624700D01*
X167640000Y-81788000D02*
X167640000Y-82963300D01*
X167640000Y-82963300D02*
X168007300Y-82963300D01*
X168007300Y-82963300D02*
X168824400Y-83780400D01*
X168824400Y-83780400D02*
X168824400Y-94319600D01*
X168824400Y-94319600D02*
X167386000Y-95758000D01*
X161544000Y-144018000D02*
X160368700Y-144018000D01*
X137015000Y-141529000D02*
X138140300Y-141529000D01*
X138140300Y-141529000D02*
X142315600Y-145704300D01*
X142315600Y-145704300D02*
X159513600Y-145704300D01*
X159513600Y-145704300D02*
X160368700Y-144849200D01*
X160368700Y-144849200D02*
X160368700Y-144018000D01*
X137015000Y-118669000D02*
X137015000Y-117543700D01*
X137015000Y-117543700D02*
X137296300Y-117543700D01*
X137296300Y-117543700D02*
X138183900Y-116656100D01*
X138183900Y-116656100D02*
X138183900Y-104009600D01*
X138183900Y-104009600D02*
X136121700Y-101947400D01*
X136121700Y-101947400D02*
X136121700Y-91716300D01*
X136121700Y-91716300D02*
X137160000Y-90678000D01*
X137015000Y-120083700D02*
X137228500Y-120083700D01*
X137228500Y-120083700D02*
X138654800Y-118657400D01*
X138654800Y-118657400D02*
X138654800Y-101570800D01*
X138654800Y-101570800D02*
X137160000Y-100076000D01*
X137015000Y-121209000D02*
X137015000Y-120083700D01*
X159766000Y-100584000D02*
X159766000Y-100128600D01*
X159766000Y-100128600D02*
X154221100Y-94583700D01*
X154221100Y-94583700D02*
X152467300Y-94583700D01*
X152467300Y-94583700D02*
X151821500Y-95229500D01*
X151821500Y-95229500D02*
X151821500Y-107024500D01*
X151821500Y-107024500D02*
X147913000Y-110933000D01*
X147913000Y-110933000D02*
X147913000Y-114524300D01*
X147913000Y-114524300D02*
X144983200Y-117454100D01*
X144983200Y-117454100D02*
X144202800Y-117454100D01*
X144202800Y-117454100D02*
X141557200Y-120099700D01*
X141557200Y-120099700D02*
X141557200Y-130993900D01*
X141557200Y-130993900D02*
X137227400Y-135323700D01*
X137227400Y-135323700D02*
X137015000Y-135323700D01*
X137015000Y-136449000D02*
X137015000Y-135323700D01*
X159595800Y-85503300D02*
X146216300Y-98882800D01*
X146216300Y-98882800D02*
X144511300Y-98882800D01*
X144511300Y-98882800D02*
X143505800Y-99888300D01*
X143505800Y-99888300D02*
X143505800Y-111567700D01*
X143505800Y-111567700D02*
X144401800Y-112463700D01*
X144401800Y-112463700D02*
X144635000Y-112463700D01*
X166464700Y-84328000D02*
X166464700Y-84695400D01*
X166464700Y-84695400D02*
X165656800Y-85503300D01*
X165656800Y-85503300D02*
X159595800Y-85503300D01*
X159595800Y-85503300D02*
X159595800Y-85403100D01*
X159595800Y-85403100D02*
X158411300Y-84218600D01*
X158411300Y-84218600D02*
X157284800Y-84218600D01*
X157284800Y-84218600D02*
X154987400Y-86516000D01*
X154987400Y-86516000D02*
X152398000Y-86516000D01*
X152398000Y-86516000D02*
X146050000Y-80168000D01*
X146050000Y-80168000D02*
X146050000Y-78486000D01*
X144635000Y-113589000D02*
X144635000Y-112463700D01*
X167640000Y-84328000D02*
X166464700Y-84328000D01*
X144635000Y-144069000D02*
X143509700Y-144069000D01*
X131318000Y-124460000D02*
X131318000Y-141616300D01*
X131318000Y-141616300D02*
X132140800Y-142439100D01*
X132140800Y-142439100D02*
X134096100Y-142439100D01*
X134096100Y-142439100D02*
X136131500Y-140403700D01*
X136131500Y-140403700D02*
X139844400Y-140403700D01*
X139844400Y-140403700D02*
X143509700Y-144069000D01*
X144635000Y-118669000D02*
X144635000Y-119794300D01*
X151384000Y-127508000D02*
X151384000Y-128583300D01*
X151384000Y-128583300D02*
X149410800Y-128583300D01*
X149410800Y-128583300D02*
X149236300Y-128408800D01*
X149236300Y-128408800D02*
X149236300Y-124162400D01*
X149236300Y-124162400D02*
X144868200Y-119794300D01*
X144868200Y-119794300D02*
X144635000Y-119794300D01*
X152654000Y-127508000D02*
X153504300Y-127508000D01*
X154472000Y-95773100D02*
X154130500Y-96114600D01*
X154130500Y-96114600D02*
X154130500Y-126881800D01*
X154130500Y-126881800D02*
X153504300Y-127508000D01*
X152971000Y-96298600D02*
X152971000Y-107537800D01*
X152971000Y-107537800D02*
X149263600Y-111245200D01*
X149263600Y-111245200D02*
X149263600Y-114183500D01*
X149263600Y-114183500D02*
X152908000Y-117827900D01*
X152908000Y-117827900D02*
X152908000Y-120396000D01*
X152654000Y-113284000D02*
X153504300Y-113284000D01*
X152689000Y-95248900D02*
X152842400Y-95248900D01*
X152842400Y-95248900D02*
X153601300Y-96007800D01*
X153601300Y-96007800D02*
X153601300Y-113187000D01*
X153601300Y-113187000D02*
X153504300Y-113284000D01*
X144635000Y-116129000D02*
X144635000Y-115003700D01*
X146881000Y-100132000D02*
X146881000Y-112990900D01*
X146881000Y-112990900D02*
X144868200Y-115003700D01*
X144868200Y-115003700D02*
X144635000Y-115003700D01*
X156210000Y-104648000D02*
X156210000Y-105773300D01*
X148082000Y-144272000D02*
X148082000Y-142846700D01*
X148082000Y-142846700D02*
X155084700Y-135844000D01*
X155084700Y-135844000D02*
X155084700Y-106665400D01*
X155084700Y-106665400D02*
X155976800Y-105773300D01*
X155976800Y-105773300D02*
X156210000Y-105773300D01*
X153162000Y-131572000D02*
X153162000Y-130246700D01*
X156210000Y-99568000D02*
X156210000Y-100693300D01*
X156210000Y-100693300D02*
X155928700Y-100693300D01*
X155928700Y-100693300D02*
X154634300Y-101987700D01*
X154634300Y-101987700D02*
X154634300Y-128774400D01*
X154634300Y-128774400D02*
X153162000Y-130246700D01*
X137015000Y-130243700D02*
X137191900Y-130243700D01*
X137191900Y-130243700D02*
X139105100Y-128330500D01*
X139105100Y-128330500D02*
X139105100Y-90082900D01*
X139105100Y-90082900D02*
X143844000Y-85344000D01*
X137015000Y-131369000D02*
X137015000Y-130243700D01*
X149806000Y-92710000D02*
X141106900Y-101409100D01*
X141106900Y-101409100D02*
X141106900Y-128925000D01*
X141106900Y-128925000D02*
X137248200Y-132783700D01*
X137248200Y-132783700D02*
X137015000Y-132783700D01*
X149806000Y-92710000D02*
X150542000Y-92710000D01*
X150542000Y-92710000D02*
X157908000Y-85344000D01*
X137015000Y-133909000D02*
X137015000Y-132783700D01*
D28*
G36*
X169552646Y-78021401D02*
X169578340Y-78063772D01*
X169618294Y-78093085D01*
X169651121Y-78103272D01*
X172593399Y-78593652D01*
X172846637Y-146714525D01*
X169131277Y-147705288D01*
X169086808Y-147727152D01*
X169054091Y-147764368D01*
X169040792Y-147797198D01*
X168556842Y-149733000D01*
X130626390Y-149733000D01*
X129393696Y-147760690D01*
X129358830Y-147723958D01*
X126872259Y-145983358D01*
X126633635Y-124745750D01*
X128888000Y-124745750D01*
X128888000Y-125336310D01*
X128984673Y-125569699D01*
X129163302Y-125748327D01*
X129396691Y-125845000D01*
X129762250Y-125845000D01*
X129921000Y-125686250D01*
X129921000Y-124587000D01*
X129046750Y-124587000D01*
X128888000Y-124745750D01*
X126633635Y-124745750D01*
X126620579Y-123583690D01*
X128888000Y-123583690D01*
X128888000Y-124174250D01*
X129046750Y-124333000D01*
X129921000Y-124333000D01*
X129921000Y-123233750D01*
X129762250Y-123075000D01*
X129396691Y-123075000D01*
X129163302Y-123171673D01*
X128984673Y-123350301D01*
X128888000Y-123583690D01*
X126620579Y-123583690D01*
X126441711Y-107664561D01*
X128105000Y-107664561D01*
X128105000Y-108235439D01*
X128323466Y-108762862D01*
X128727138Y-109166534D01*
X129254561Y-109385000D01*
X129825439Y-109385000D01*
X129878302Y-109363103D01*
X130392000Y-109876802D01*
X130392001Y-115900560D01*
X128994000Y-115900560D01*
X128746235Y-115949843D01*
X128536191Y-116090191D01*
X128395843Y-116300235D01*
X128346560Y-116548000D01*
X128346560Y-118148000D01*
X128395843Y-118395765D01*
X128536191Y-118605809D01*
X128746235Y-118746157D01*
X128994000Y-118795440D01*
X130392001Y-118795440D01*
X130392001Y-120900348D01*
X130377112Y-120975200D01*
X130436097Y-121271737D01*
X130507610Y-121378763D01*
X130604072Y-121523129D01*
X130667528Y-121565529D01*
X131828000Y-122726002D01*
X131828000Y-123180653D01*
X131770608Y-123142305D01*
X131318000Y-123052275D01*
X130865391Y-123142305D01*
X130864016Y-123143224D01*
X130699309Y-123075000D01*
X130333750Y-123075000D01*
X130175000Y-123233750D01*
X130175000Y-124035291D01*
X130158000Y-124120755D01*
X130158000Y-124799246D01*
X130175000Y-124884710D01*
X130175000Y-125686250D01*
X130333750Y-125845000D01*
X130558000Y-125845000D01*
X130558001Y-141541448D01*
X130543112Y-141616300D01*
X130602097Y-141912837D01*
X130719745Y-142088909D01*
X130770072Y-142164229D01*
X130833528Y-142206629D01*
X131550471Y-142923573D01*
X131592871Y-142987029D01*
X131756229Y-143096181D01*
X131697161Y-143184582D01*
X131581908Y-143764000D01*
X131697161Y-144343418D01*
X132025375Y-144834625D01*
X132516582Y-145162839D01*
X132949744Y-145249000D01*
X133242256Y-145249000D01*
X133675418Y-145162839D01*
X134166625Y-144834625D01*
X134494839Y-144343418D01*
X134610092Y-143764000D01*
X134494839Y-143184582D01*
X134449630Y-143116922D01*
X134644029Y-142987029D01*
X134686431Y-142923570D01*
X135639673Y-141970329D01*
X135663260Y-142088909D01*
X135980423Y-142563577D01*
X136332758Y-142799000D01*
X135980423Y-143034423D01*
X135663260Y-143509091D01*
X135551887Y-144069000D01*
X135663260Y-144628909D01*
X135980423Y-145103577D01*
X136455091Y-145420740D01*
X136873667Y-145504000D01*
X137156333Y-145504000D01*
X137574909Y-145420740D01*
X138049577Y-145103577D01*
X138366740Y-144628909D01*
X138478113Y-144069000D01*
X138366740Y-143509091D01*
X138049577Y-143034423D01*
X137697242Y-142799000D01*
X138049577Y-142563577D01*
X138069804Y-142533305D01*
X141725271Y-146188773D01*
X141767671Y-146252229D01*
X142019063Y-146420204D01*
X142240748Y-146464300D01*
X142240753Y-146464300D01*
X142315600Y-146479188D01*
X142390447Y-146464300D01*
X159438753Y-146464300D01*
X159513600Y-146479188D01*
X159588447Y-146464300D01*
X159588452Y-146464300D01*
X159810137Y-146420204D01*
X160061529Y-146252229D01*
X160103931Y-146188770D01*
X160853173Y-145439529D01*
X160916629Y-145397129D01*
X160922325Y-145388604D01*
X160964582Y-145416839D01*
X161397744Y-145503000D01*
X161690256Y-145503000D01*
X162123418Y-145416839D01*
X162614625Y-145088625D01*
X162814000Y-144790239D01*
X163013375Y-145088625D01*
X163504582Y-145416839D01*
X163937744Y-145503000D01*
X164230256Y-145503000D01*
X164663418Y-145416839D01*
X165154625Y-145088625D01*
X165354000Y-144790239D01*
X165553375Y-145088625D01*
X166044582Y-145416839D01*
X166477744Y-145503000D01*
X166770256Y-145503000D01*
X167203418Y-145416839D01*
X167694625Y-145088625D01*
X167907843Y-144769522D01*
X167968817Y-144899358D01*
X168397076Y-145289645D01*
X168807110Y-145459476D01*
X169037000Y-145338155D01*
X169037000Y-144145000D01*
X169291000Y-144145000D01*
X169291000Y-145338155D01*
X169520890Y-145459476D01*
X169930924Y-145289645D01*
X170359183Y-144899358D01*
X170605486Y-144374892D01*
X170484819Y-144145000D01*
X169291000Y-144145000D01*
X169037000Y-144145000D01*
X169017000Y-144145000D01*
X169017000Y-143891000D01*
X169037000Y-143891000D01*
X169037000Y-141605000D01*
X169291000Y-141605000D01*
X169291000Y-143891000D01*
X170484819Y-143891000D01*
X170605486Y-143661108D01*
X170359183Y-143136642D01*
X169932729Y-142748000D01*
X170359183Y-142359358D01*
X170605486Y-141834892D01*
X170484819Y-141605000D01*
X169291000Y-141605000D01*
X169037000Y-141605000D01*
X169017000Y-141605000D01*
X169017000Y-141351000D01*
X169037000Y-141351000D01*
X169037000Y-140157845D01*
X169291000Y-140157845D01*
X169291000Y-141351000D01*
X170484819Y-141351000D01*
X170605486Y-141121108D01*
X170359183Y-140596642D01*
X169930924Y-140206355D01*
X169520890Y-140036524D01*
X169291000Y-140157845D01*
X169037000Y-140157845D01*
X168807110Y-140036524D01*
X168397076Y-140206355D01*
X167968817Y-140596642D01*
X167907843Y-140726478D01*
X167694625Y-140407375D01*
X167203418Y-140079161D01*
X166770256Y-139993000D01*
X166477744Y-139993000D01*
X166044582Y-140079161D01*
X165553375Y-140407375D01*
X165354000Y-140705761D01*
X165154625Y-140407375D01*
X164663418Y-140079161D01*
X164230256Y-139993000D01*
X163937744Y-139993000D01*
X163504582Y-140079161D01*
X163013375Y-140407375D01*
X162814000Y-140705761D01*
X162614625Y-140407375D01*
X162123418Y-140079161D01*
X161690256Y-139993000D01*
X161397744Y-139993000D01*
X160964582Y-140079161D01*
X160473375Y-140407375D01*
X160274000Y-140705761D01*
X160074625Y-140407375D01*
X159764000Y-140199822D01*
X159764000Y-135212148D01*
X159778888Y-135137300D01*
X159764000Y-135062452D01*
X159764000Y-135062448D01*
X159719904Y-134840763D01*
X159719904Y-134840762D01*
X159594329Y-134652827D01*
X159551929Y-134589371D01*
X159488473Y-134546971D01*
X159224309Y-134282807D01*
X159499542Y-133870891D01*
X159603154Y-133350000D01*
X159550334Y-133084452D01*
X161987000Y-133084452D01*
X161987000Y-133615548D01*
X162190242Y-134106217D01*
X162565783Y-134481758D01*
X163056452Y-134685000D01*
X163587548Y-134685000D01*
X164078217Y-134481758D01*
X164453758Y-134106217D01*
X164657000Y-133615548D01*
X164657000Y-133084452D01*
X164453758Y-132593783D01*
X164078217Y-132218242D01*
X163760698Y-132086721D01*
X164015831Y-131981042D01*
X164077669Y-131745275D01*
X163322000Y-130989605D01*
X162566331Y-131745275D01*
X162628169Y-131981042D01*
X162903987Y-132078153D01*
X162565783Y-132218242D01*
X162190242Y-132593783D01*
X161987000Y-133084452D01*
X159550334Y-133084452D01*
X159499542Y-132829109D01*
X159204481Y-132387519D01*
X158762891Y-132092458D01*
X158700261Y-132080000D01*
X158762891Y-132067542D01*
X159204481Y-131772481D01*
X159499542Y-131330891D01*
X159603154Y-130810000D01*
X159564789Y-130617122D01*
X161974581Y-130617122D01*
X162003336Y-131147440D01*
X162150958Y-131503831D01*
X162386725Y-131565669D01*
X163142395Y-130810000D01*
X163501605Y-130810000D01*
X164257275Y-131565669D01*
X164493042Y-131503831D01*
X164669419Y-131002878D01*
X164640664Y-130472560D01*
X164493042Y-130116169D01*
X164257275Y-130054331D01*
X163501605Y-130810000D01*
X163142395Y-130810000D01*
X162386725Y-130054331D01*
X162150958Y-130116169D01*
X161974581Y-130617122D01*
X159564789Y-130617122D01*
X159499542Y-130289109D01*
X159204481Y-129847519D01*
X158762891Y-129552458D01*
X158700261Y-129540000D01*
X158762891Y-129527542D01*
X159204481Y-129232481D01*
X159222659Y-129205275D01*
X162566331Y-129205275D01*
X162628169Y-129441042D01*
X162886445Y-129531977D01*
X162628169Y-129638958D01*
X162566331Y-129874725D01*
X163322000Y-130630395D01*
X164077669Y-129874725D01*
X164015831Y-129638958D01*
X163757555Y-129548023D01*
X164015831Y-129441042D01*
X164077669Y-129205275D01*
X163322000Y-128449605D01*
X162566331Y-129205275D01*
X159222659Y-129205275D01*
X159499542Y-128790891D01*
X159603154Y-128270000D01*
X159564789Y-128077122D01*
X161974581Y-128077122D01*
X162003336Y-128607440D01*
X162150958Y-128963831D01*
X162386725Y-129025669D01*
X163142395Y-128270000D01*
X163501605Y-128270000D01*
X164257275Y-129025669D01*
X164493042Y-128963831D01*
X164669419Y-128462878D01*
X164640664Y-127932560D01*
X164493042Y-127576169D01*
X164257275Y-127514331D01*
X163501605Y-128270000D01*
X163142395Y-128270000D01*
X162386725Y-127514331D01*
X162150958Y-127576169D01*
X161974581Y-128077122D01*
X159564789Y-128077122D01*
X159499542Y-127749109D01*
X159204481Y-127307519D01*
X158762891Y-127012458D01*
X158700261Y-127000000D01*
X158762891Y-126987542D01*
X159204481Y-126692481D01*
X159222659Y-126665275D01*
X162566331Y-126665275D01*
X162628169Y-126901042D01*
X162886445Y-126991977D01*
X162628169Y-127098958D01*
X162566331Y-127334725D01*
X163322000Y-128090395D01*
X164077669Y-127334725D01*
X164015831Y-127098958D01*
X163757555Y-127008023D01*
X164015831Y-126901042D01*
X164077669Y-126665275D01*
X163322000Y-125909605D01*
X162566331Y-126665275D01*
X159222659Y-126665275D01*
X159499542Y-126250891D01*
X159603154Y-125730000D01*
X159564789Y-125537122D01*
X161974581Y-125537122D01*
X162003336Y-126067440D01*
X162150958Y-126423831D01*
X162386725Y-126485669D01*
X163142395Y-125730000D01*
X163501605Y-125730000D01*
X164257275Y-126485669D01*
X164493042Y-126423831D01*
X164669419Y-125922878D01*
X164640664Y-125392560D01*
X164493042Y-125036169D01*
X164257275Y-124974331D01*
X163501605Y-125730000D01*
X163142395Y-125730000D01*
X162386725Y-124974331D01*
X162150958Y-125036169D01*
X161974581Y-125537122D01*
X159564789Y-125537122D01*
X159499542Y-125209109D01*
X159204481Y-124767519D01*
X158762891Y-124472458D01*
X158700261Y-124460000D01*
X158762891Y-124447542D01*
X159204481Y-124152481D01*
X159222659Y-124125275D01*
X162566331Y-124125275D01*
X162628169Y-124361042D01*
X162886445Y-124451977D01*
X162628169Y-124558958D01*
X162566331Y-124794725D01*
X163322000Y-125550395D01*
X164077669Y-124794725D01*
X164015831Y-124558958D01*
X163757555Y-124468023D01*
X164015831Y-124361042D01*
X164077669Y-124125275D01*
X163322000Y-123369605D01*
X162566331Y-124125275D01*
X159222659Y-124125275D01*
X159499542Y-123710891D01*
X159603154Y-123190000D01*
X159564789Y-122997122D01*
X161974581Y-122997122D01*
X162003336Y-123527440D01*
X162150958Y-123883831D01*
X162386725Y-123945669D01*
X163142395Y-123190000D01*
X163501605Y-123190000D01*
X164257275Y-123945669D01*
X164493042Y-123883831D01*
X164669419Y-123382878D01*
X164640664Y-122852560D01*
X164493042Y-122496169D01*
X164257275Y-122434331D01*
X163501605Y-123190000D01*
X163142395Y-123190000D01*
X162386725Y-122434331D01*
X162150958Y-122496169D01*
X161974581Y-122997122D01*
X159564789Y-122997122D01*
X159499542Y-122669109D01*
X159204481Y-122227519D01*
X158915902Y-122034697D01*
X158957904Y-121971837D01*
X159002000Y-121750152D01*
X159002000Y-121750148D01*
X159002545Y-121747411D01*
X159204481Y-121612481D01*
X159499542Y-121170891D01*
X159603154Y-120650000D01*
X159550334Y-120384452D01*
X161987000Y-120384452D01*
X161987000Y-120915548D01*
X162190242Y-121406217D01*
X162565783Y-121781758D01*
X162883302Y-121913279D01*
X162628169Y-122018958D01*
X162566331Y-122254725D01*
X163322000Y-123010395D01*
X164077669Y-122254725D01*
X164015831Y-122018958D01*
X163740013Y-121921847D01*
X164078217Y-121781758D01*
X164453758Y-121406217D01*
X164657000Y-120915548D01*
X164657000Y-120384452D01*
X164453758Y-119893783D01*
X164078217Y-119518242D01*
X163721930Y-119370663D01*
X164124663Y-119176764D01*
X164471797Y-118788396D01*
X164614716Y-118443329D01*
X164491374Y-118237000D01*
X163449000Y-118237000D01*
X163449000Y-118257000D01*
X163195000Y-118257000D01*
X163195000Y-118237000D01*
X162152626Y-118237000D01*
X162029284Y-118443329D01*
X162172203Y-118788396D01*
X162519337Y-119176764D01*
X162922070Y-119370663D01*
X162565783Y-119518242D01*
X162190242Y-119893783D01*
X161987000Y-120384452D01*
X159550334Y-120384452D01*
X159499542Y-120129109D01*
X159204481Y-119687519D01*
X159002544Y-119552589D01*
X159002000Y-119549853D01*
X159002000Y-119549848D01*
X158957904Y-119328163D01*
X158921424Y-119273567D01*
X158998217Y-119241758D01*
X159373758Y-118866217D01*
X159577000Y-118375548D01*
X159577000Y-117844452D01*
X159373758Y-117353783D01*
X158998217Y-116978242D01*
X158971076Y-116967000D01*
X158998217Y-116955758D01*
X159373758Y-116580217D01*
X159548924Y-116157329D01*
X162029284Y-116157329D01*
X162172203Y-116502396D01*
X162519337Y-116890764D01*
X162677681Y-116967000D01*
X162519337Y-117043236D01*
X162172203Y-117431604D01*
X162029284Y-117776671D01*
X162152626Y-117983000D01*
X163195000Y-117983000D01*
X163195000Y-115951000D01*
X163449000Y-115951000D01*
X163449000Y-117983000D01*
X164491374Y-117983000D01*
X164614716Y-117776671D01*
X164471797Y-117431604D01*
X164124663Y-117043236D01*
X163966319Y-116967000D01*
X164124663Y-116890764D01*
X164471797Y-116502396D01*
X164614716Y-116157329D01*
X164491374Y-115951000D01*
X163449000Y-115951000D01*
X163195000Y-115951000D01*
X162152626Y-115951000D01*
X162029284Y-116157329D01*
X159548924Y-116157329D01*
X159577000Y-116089548D01*
X159577000Y-115558452D01*
X159373758Y-115067783D01*
X158998217Y-114692242D01*
X158971076Y-114681000D01*
X158998217Y-114669758D01*
X159373758Y-114294217D01*
X159548924Y-113871329D01*
X162029284Y-113871329D01*
X162172203Y-114216396D01*
X162519337Y-114604764D01*
X162677681Y-114681000D01*
X162519337Y-114757236D01*
X162172203Y-115145604D01*
X162029284Y-115490671D01*
X162152626Y-115697000D01*
X163195000Y-115697000D01*
X163195000Y-113665000D01*
X163449000Y-113665000D01*
X163449000Y-115697000D01*
X164491374Y-115697000D01*
X164614716Y-115490671D01*
X164471797Y-115145604D01*
X164124663Y-114757236D01*
X163966319Y-114681000D01*
X164124663Y-114604764D01*
X164471797Y-114216396D01*
X164614716Y-113871329D01*
X164491374Y-113665000D01*
X163449000Y-113665000D01*
X163195000Y-113665000D01*
X162152626Y-113665000D01*
X162029284Y-113871329D01*
X159548924Y-113871329D01*
X159577000Y-113803548D01*
X159577000Y-113272452D01*
X159548925Y-113204671D01*
X162029284Y-113204671D01*
X162152626Y-113411000D01*
X163195000Y-113411000D01*
X163195000Y-112367794D01*
X163449000Y-112367794D01*
X163449000Y-113411000D01*
X164491374Y-113411000D01*
X164614716Y-113204671D01*
X164471797Y-112859604D01*
X164124663Y-112471236D01*
X163655331Y-112245273D01*
X163449000Y-112367794D01*
X163195000Y-112367794D01*
X162988669Y-112245273D01*
X162519337Y-112471236D01*
X162172203Y-112859604D01*
X162029284Y-113204671D01*
X159548925Y-113204671D01*
X159373758Y-112781783D01*
X158998217Y-112406242D01*
X158507548Y-112203000D01*
X157976452Y-112203000D01*
X157485783Y-112406242D01*
X157110242Y-112781783D01*
X156970000Y-113120357D01*
X156970000Y-108406043D01*
X157244577Y-108222577D01*
X157561740Y-107747909D01*
X157673113Y-107188000D01*
X157561740Y-106628091D01*
X157244577Y-106153423D01*
X156948614Y-105955667D01*
X156965896Y-105868786D01*
X157244577Y-105682577D01*
X157561740Y-105207909D01*
X157673113Y-104648000D01*
X157561740Y-104088091D01*
X157244577Y-103613423D01*
X156860892Y-103357053D01*
X157065134Y-103260389D01*
X157441041Y-102845423D01*
X157601904Y-102457039D01*
X157479915Y-102235000D01*
X156337000Y-102235000D01*
X156337000Y-102255000D01*
X156083000Y-102255000D01*
X156083000Y-102235000D01*
X156063000Y-102235000D01*
X156063000Y-101981000D01*
X156083000Y-101981000D01*
X156083000Y-101961000D01*
X156337000Y-101961000D01*
X156337000Y-101981000D01*
X157479915Y-101981000D01*
X157601904Y-101758961D01*
X157441041Y-101370577D01*
X157065134Y-100955611D01*
X156944106Y-100898330D01*
X156965896Y-100788786D01*
X157244577Y-100602577D01*
X157561740Y-100127909D01*
X157673113Y-99568000D01*
X157561740Y-99008091D01*
X157543719Y-98981121D01*
X158563965Y-100001366D01*
X158432500Y-100318750D01*
X158432500Y-100849250D01*
X158635513Y-101339367D01*
X159010633Y-101714487D01*
X159500750Y-101917500D01*
X160031250Y-101917500D01*
X160052901Y-101908532D01*
X160052901Y-104302297D01*
X160024698Y-104330500D01*
X159500750Y-104330500D01*
X159010633Y-104533513D01*
X158635513Y-104908633D01*
X158432500Y-105398750D01*
X158432500Y-105929250D01*
X158635513Y-106419367D01*
X159010633Y-106794487D01*
X159500750Y-106997500D01*
X160031250Y-106997500D01*
X160521367Y-106794487D01*
X160896487Y-106419367D01*
X161099500Y-105929250D01*
X161099500Y-105405302D01*
X161127702Y-105377100D01*
X166024299Y-105377100D01*
X166052500Y-105405301D01*
X166052500Y-105929250D01*
X166255513Y-106419367D01*
X166630633Y-106794487D01*
X167120750Y-106997500D01*
X167651250Y-106997500D01*
X168141367Y-106794487D01*
X168516487Y-106419367D01*
X168719500Y-105929250D01*
X168719500Y-105398750D01*
X168516487Y-104908633D01*
X168141367Y-104533513D01*
X167651250Y-104330500D01*
X167127301Y-104330500D01*
X166929431Y-104132630D01*
X166887029Y-104069171D01*
X166635637Y-103901196D01*
X166413952Y-103857100D01*
X166413947Y-103857100D01*
X166339100Y-103842212D01*
X166264253Y-103857100D01*
X161572900Y-103857100D01*
X161572900Y-100318750D01*
X166052500Y-100318750D01*
X166052500Y-100849250D01*
X166255513Y-101339367D01*
X166630633Y-101714487D01*
X167120750Y-101917500D01*
X167651250Y-101917500D01*
X168141367Y-101714487D01*
X168516487Y-101339367D01*
X168719500Y-100849250D01*
X168719500Y-100318750D01*
X168516487Y-99828633D01*
X168141367Y-99453513D01*
X167728653Y-99282561D01*
X168999000Y-99282561D01*
X168999000Y-99853439D01*
X169217466Y-100380862D01*
X169621138Y-100784534D01*
X170148561Y-101003000D01*
X170719439Y-101003000D01*
X171246862Y-100784534D01*
X171650534Y-100380862D01*
X171869000Y-99853439D01*
X171869000Y-99282561D01*
X171650534Y-98755138D01*
X171246862Y-98351466D01*
X171181701Y-98324475D01*
X171188005Y-98321864D01*
X171262139Y-98075745D01*
X170434000Y-97247605D01*
X169605861Y-98075745D01*
X169679995Y-98321864D01*
X169686746Y-98324290D01*
X169621138Y-98351466D01*
X169217466Y-98755138D01*
X168999000Y-99282561D01*
X167728653Y-99282561D01*
X167651250Y-99250500D01*
X167120750Y-99250500D01*
X166630633Y-99453513D01*
X166255513Y-99828633D01*
X166052500Y-100318750D01*
X161572900Y-100318750D01*
X161572900Y-97564900D01*
X166264253Y-97564900D01*
X166339100Y-97579788D01*
X166413947Y-97564900D01*
X166413952Y-97564900D01*
X166635637Y-97520804D01*
X166887029Y-97352829D01*
X166929431Y-97289370D01*
X167127301Y-97091500D01*
X167651250Y-97091500D01*
X168141367Y-96888487D01*
X168178631Y-96851223D01*
X168987035Y-96851223D01*
X169014222Y-97421454D01*
X169180136Y-97822005D01*
X169426255Y-97896139D01*
X170254395Y-97068000D01*
X170613605Y-97068000D01*
X171441745Y-97896139D01*
X171687864Y-97822005D01*
X171880965Y-97284777D01*
X171853778Y-96714546D01*
X171687864Y-96313995D01*
X171441745Y-96239861D01*
X170613605Y-97068000D01*
X170254395Y-97068000D01*
X169426255Y-96239861D01*
X169180136Y-96313995D01*
X168987035Y-96851223D01*
X168178631Y-96851223D01*
X168516487Y-96513367D01*
X168704172Y-96060255D01*
X169605861Y-96060255D01*
X170434000Y-96888395D01*
X171262139Y-96060255D01*
X171188005Y-95814136D01*
X170650777Y-95621035D01*
X170080546Y-95648222D01*
X169679995Y-95814136D01*
X169605861Y-96060255D01*
X168704172Y-96060255D01*
X168719500Y-96023250D01*
X168719500Y-95499302D01*
X169308873Y-94909929D01*
X169372329Y-94867529D01*
X169483620Y-94700971D01*
X169540304Y-94616138D01*
X169549880Y-94567995D01*
X169584400Y-94394452D01*
X169584400Y-94394448D01*
X169599288Y-94319600D01*
X169584400Y-94244752D01*
X169584400Y-92683440D01*
X171284000Y-92683440D01*
X171531765Y-92634157D01*
X171741809Y-92493809D01*
X171882157Y-92283765D01*
X171931440Y-92036000D01*
X171931440Y-90336000D01*
X171882157Y-90088235D01*
X171741809Y-89878191D01*
X171531765Y-89737843D01*
X171284000Y-89688560D01*
X169584400Y-89688560D01*
X169584400Y-83855247D01*
X169599288Y-83780400D01*
X169584400Y-83705553D01*
X169584400Y-83705548D01*
X169540304Y-83483863D01*
X169372329Y-83232471D01*
X169308873Y-83190071D01*
X168817491Y-82698689D01*
X169038839Y-82367418D01*
X169154092Y-81788000D01*
X169038839Y-81208582D01*
X168710625Y-80717375D01*
X168219418Y-80389161D01*
X167786256Y-80303000D01*
X167493744Y-80303000D01*
X167060582Y-80389161D01*
X166569375Y-80717375D01*
X166554904Y-80739032D01*
X166488327Y-80578301D01*
X166309698Y-80399673D01*
X166076309Y-80303000D01*
X165385750Y-80303000D01*
X165227000Y-80461750D01*
X165227000Y-81661000D01*
X165247000Y-81661000D01*
X165247000Y-81915000D01*
X165227000Y-81915000D01*
X165227000Y-81935000D01*
X164973000Y-81935000D01*
X164973000Y-81915000D01*
X163773750Y-81915000D01*
X163615000Y-82073750D01*
X163615000Y-82764310D01*
X163711673Y-82997699D01*
X163890302Y-83176327D01*
X164051033Y-83242904D01*
X164029375Y-83257375D01*
X163701161Y-83748582D01*
X163585908Y-84328000D01*
X163668516Y-84743300D01*
X160010802Y-84743300D01*
X159001631Y-83734130D01*
X158959229Y-83670671D01*
X158707837Y-83502696D01*
X158486152Y-83458600D01*
X158486147Y-83458600D01*
X158411300Y-83443712D01*
X158336453Y-83458600D01*
X157359646Y-83458600D01*
X157284799Y-83443712D01*
X157209952Y-83458600D01*
X157209948Y-83458600D01*
X156988263Y-83502696D01*
X156736871Y-83670671D01*
X156694471Y-83734127D01*
X154672599Y-85756000D01*
X154284794Y-85756000D01*
X154354965Y-85560777D01*
X154327778Y-84990546D01*
X154161864Y-84589995D01*
X153915745Y-84515861D01*
X153087605Y-85344000D01*
X153101748Y-85358143D01*
X152922143Y-85537748D01*
X152908000Y-85523605D01*
X152893858Y-85537748D01*
X152714252Y-85358142D01*
X152728395Y-85344000D01*
X151900255Y-84515861D01*
X151654136Y-84589995D01*
X151625755Y-84668953D01*
X151293057Y-84336255D01*
X152079861Y-84336255D01*
X152908000Y-85164395D01*
X153736139Y-84336255D01*
X153662005Y-84090136D01*
X153124777Y-83897035D01*
X152554546Y-83924222D01*
X152153995Y-84090136D01*
X152079861Y-84336255D01*
X151293057Y-84336255D01*
X147768492Y-80811690D01*
X163615000Y-80811690D01*
X163615000Y-81502250D01*
X163773750Y-81661000D01*
X164973000Y-81661000D01*
X164973000Y-80461750D01*
X164814250Y-80303000D01*
X164123691Y-80303000D01*
X163890302Y-80399673D01*
X163711673Y-80578301D01*
X163615000Y-80811690D01*
X147768492Y-80811690D01*
X146810000Y-79853199D01*
X146810000Y-79764178D01*
X147120625Y-79556625D01*
X147320000Y-79258239D01*
X147519375Y-79556625D01*
X148010582Y-79884839D01*
X148443744Y-79971000D01*
X148736256Y-79971000D01*
X149169418Y-79884839D01*
X149660625Y-79556625D01*
X149873843Y-79237522D01*
X149934817Y-79367358D01*
X150363076Y-79757645D01*
X150773110Y-79927476D01*
X151003000Y-79806155D01*
X151003000Y-78613000D01*
X150983000Y-78613000D01*
X150983000Y-78359000D01*
X151003000Y-78359000D01*
X151003000Y-77165845D01*
X151257000Y-77165845D01*
X151257000Y-78359000D01*
X151277000Y-78359000D01*
X151277000Y-78613000D01*
X151257000Y-78613000D01*
X151257000Y-79806155D01*
X151486890Y-79927476D01*
X151896924Y-79757645D01*
X152201261Y-79480292D01*
X152221843Y-79583765D01*
X152362191Y-79793809D01*
X152572235Y-79934157D01*
X152820000Y-79983440D01*
X154520000Y-79983440D01*
X154767765Y-79934157D01*
X154977809Y-79793809D01*
X155118157Y-79583765D01*
X155167440Y-79336000D01*
X155167440Y-77636000D01*
X155118157Y-77388235D01*
X154977809Y-77178191D01*
X154767765Y-77037843D01*
X154520000Y-76988560D01*
X152820000Y-76988560D01*
X152572235Y-77037843D01*
X152362191Y-77178191D01*
X152221843Y-77388235D01*
X152201261Y-77491708D01*
X151896924Y-77214355D01*
X151486890Y-77044524D01*
X151257000Y-77165845D01*
X151003000Y-77165845D01*
X150773110Y-77044524D01*
X150363076Y-77214355D01*
X149934817Y-77604642D01*
X149873843Y-77734478D01*
X149660625Y-77415375D01*
X149169418Y-77087161D01*
X148736256Y-77001000D01*
X148443744Y-77001000D01*
X148010582Y-77087161D01*
X147519375Y-77415375D01*
X147320000Y-77713761D01*
X147120625Y-77415375D01*
X146629418Y-77087161D01*
X146196256Y-77001000D01*
X145903744Y-77001000D01*
X145470582Y-77087161D01*
X144979375Y-77415375D01*
X144651161Y-77906582D01*
X144535908Y-78486000D01*
X144651161Y-79065418D01*
X144979375Y-79556625D01*
X145290000Y-79764178D01*
X145290000Y-80093153D01*
X145275112Y-80168000D01*
X145290000Y-80242847D01*
X145290000Y-80242851D01*
X145334096Y-80464536D01*
X145502071Y-80715929D01*
X145565530Y-80758331D01*
X148720459Y-83913260D01*
X148490546Y-83924222D01*
X148089995Y-84090136D01*
X148015861Y-84336255D01*
X148844000Y-85164395D01*
X148858142Y-85150252D01*
X149037748Y-85329858D01*
X149023605Y-85344000D01*
X149851745Y-86172139D01*
X150097864Y-86098005D01*
X150290965Y-85560777D01*
X150287110Y-85479911D01*
X151807671Y-87000473D01*
X151850071Y-87063929D01*
X151913527Y-87106329D01*
X152101462Y-87231904D01*
X152149605Y-87241480D01*
X152323148Y-87276000D01*
X152323152Y-87276000D01*
X152398000Y-87290888D01*
X152472848Y-87276000D01*
X154901198Y-87276000D01*
X150615943Y-91561256D01*
X150590540Y-91535853D01*
X150081494Y-91325000D01*
X149530506Y-91325000D01*
X149021460Y-91535853D01*
X148631853Y-91925460D01*
X148421000Y-92434506D01*
X148421000Y-92985494D01*
X148431165Y-93010034D01*
X146065158Y-95376041D01*
X145910487Y-95002633D01*
X145535367Y-94627513D01*
X145045250Y-94424500D01*
X144514750Y-94424500D01*
X144024633Y-94627513D01*
X143649513Y-95002633D01*
X143446500Y-95492750D01*
X143446500Y-96023250D01*
X143649513Y-96513367D01*
X144024633Y-96888487D01*
X144398041Y-97043158D01*
X140622430Y-100818769D01*
X140558971Y-100861171D01*
X140390996Y-101112564D01*
X140346900Y-101334249D01*
X140346900Y-101334253D01*
X140332012Y-101409100D01*
X140346900Y-101483947D01*
X140346901Y-128610197D01*
X138279128Y-130677971D01*
X138100206Y-130410195D01*
X139589576Y-128920827D01*
X139653029Y-128878429D01*
X139695427Y-128814976D01*
X139695429Y-128814974D01*
X139798152Y-128661237D01*
X139821004Y-128627037D01*
X139865100Y-128405352D01*
X139865100Y-128405348D01*
X139879988Y-128330501D01*
X139865100Y-128255654D01*
X139865100Y-90412750D01*
X143446500Y-90412750D01*
X143446500Y-90943250D01*
X143649513Y-91433367D01*
X144024633Y-91808487D01*
X144514750Y-92011500D01*
X145045250Y-92011500D01*
X145535367Y-91808487D01*
X145910487Y-91433367D01*
X146113500Y-90943250D01*
X146113500Y-90412750D01*
X145910487Y-89922633D01*
X145535367Y-89547513D01*
X145045250Y-89344500D01*
X144514750Y-89344500D01*
X144024633Y-89547513D01*
X143649513Y-89922633D01*
X143446500Y-90412750D01*
X139865100Y-90412750D01*
X139865100Y-90397701D01*
X143505698Y-86757104D01*
X143558561Y-86779000D01*
X144129439Y-86779000D01*
X144656862Y-86560534D01*
X144865651Y-86351745D01*
X148015861Y-86351745D01*
X148089995Y-86597864D01*
X148627223Y-86790965D01*
X149197454Y-86763778D01*
X149598005Y-86597864D01*
X149672139Y-86351745D01*
X148844000Y-85523605D01*
X148015861Y-86351745D01*
X144865651Y-86351745D01*
X145060534Y-86156862D01*
X145279000Y-85629439D01*
X145279000Y-85127223D01*
X147397035Y-85127223D01*
X147424222Y-85697454D01*
X147590136Y-86098005D01*
X147836255Y-86172139D01*
X148664395Y-85344000D01*
X147836255Y-84515861D01*
X147590136Y-84589995D01*
X147397035Y-85127223D01*
X145279000Y-85127223D01*
X145279000Y-85058561D01*
X145060534Y-84531138D01*
X144656862Y-84127466D01*
X144129439Y-83909000D01*
X143558561Y-83909000D01*
X143031138Y-84127466D01*
X142627466Y-84531138D01*
X142409000Y-85058561D01*
X142409000Y-85629439D01*
X142430896Y-85682302D01*
X138620628Y-89492571D01*
X138557172Y-89534971D01*
X138514772Y-89598427D01*
X138514771Y-89598428D01*
X138389197Y-89786363D01*
X138338861Y-90039418D01*
X138290487Y-89922633D01*
X137915367Y-89547513D01*
X137425250Y-89344500D01*
X136894750Y-89344500D01*
X136404633Y-89547513D01*
X136029513Y-89922633D01*
X135826500Y-90412750D01*
X135826500Y-90936699D01*
X135637228Y-91125971D01*
X135573772Y-91168371D01*
X135531372Y-91231827D01*
X135531371Y-91231828D01*
X135405797Y-91419763D01*
X135346812Y-91716300D01*
X135361701Y-91791152D01*
X135361700Y-101872553D01*
X135346812Y-101947400D01*
X135361700Y-102022247D01*
X135361700Y-102022251D01*
X135405796Y-102243936D01*
X135573771Y-102495329D01*
X135637230Y-102537731D01*
X136921998Y-103822500D01*
X136894750Y-103822500D01*
X136404633Y-104025513D01*
X136029513Y-104400633D01*
X135826500Y-104890750D01*
X135826500Y-105421250D01*
X136029513Y-105911367D01*
X136404633Y-106286487D01*
X136894750Y-106489500D01*
X137423901Y-106489500D01*
X137423901Y-109601560D01*
X136215000Y-109601560D01*
X135967235Y-109650843D01*
X135757191Y-109791191D01*
X135616843Y-110001235D01*
X135567560Y-110249000D01*
X135567560Y-111849000D01*
X135616843Y-112096765D01*
X135757191Y-112306809D01*
X135967235Y-112447157D01*
X136101106Y-112473785D01*
X135980423Y-112554423D01*
X135663260Y-113029091D01*
X135551887Y-113589000D01*
X135663260Y-114148909D01*
X135907243Y-114514055D01*
X134504430Y-115916869D01*
X134496000Y-115922502D01*
X134496000Y-112131290D01*
X134528655Y-112098635D01*
X134671000Y-111754983D01*
X134671000Y-111383017D01*
X134528655Y-111039365D01*
X134265635Y-110776345D01*
X133921983Y-110634000D01*
X133550017Y-110634000D01*
X133206365Y-110776345D01*
X132943345Y-111039365D01*
X132801000Y-111383017D01*
X132801000Y-111754983D01*
X132943345Y-112098635D01*
X132976001Y-112131291D01*
X132976001Y-116068255D01*
X132510777Y-115901035D01*
X131940546Y-115928222D01*
X131912000Y-115940046D01*
X131912000Y-109636846D01*
X131926888Y-109561999D01*
X131912000Y-109487152D01*
X131912000Y-109487148D01*
X131867904Y-109265463D01*
X131699929Y-109014071D01*
X131636473Y-108971671D01*
X131622547Y-108957745D01*
X132211861Y-108957745D01*
X132285995Y-109203864D01*
X132823223Y-109396965D01*
X133393454Y-109369778D01*
X133794005Y-109203864D01*
X133868139Y-108957745D01*
X133040000Y-108129605D01*
X132211861Y-108957745D01*
X131622547Y-108957745D01*
X130953103Y-108288302D01*
X130975000Y-108235439D01*
X130975000Y-107733223D01*
X131593035Y-107733223D01*
X131620222Y-108303454D01*
X131786136Y-108704005D01*
X132032255Y-108778139D01*
X132860395Y-107950000D01*
X133219605Y-107950000D01*
X134047745Y-108778139D01*
X134293864Y-108704005D01*
X134486965Y-108166777D01*
X134459778Y-107596546D01*
X134293864Y-107195995D01*
X134047745Y-107121861D01*
X133219605Y-107950000D01*
X132860395Y-107950000D01*
X132032255Y-107121861D01*
X131786136Y-107195995D01*
X131593035Y-107733223D01*
X130975000Y-107733223D01*
X130975000Y-107664561D01*
X130756534Y-107137138D01*
X130561651Y-106942255D01*
X132211861Y-106942255D01*
X133040000Y-107770395D01*
X133868139Y-106942255D01*
X133794005Y-106696136D01*
X133256777Y-106503035D01*
X132686546Y-106530222D01*
X132285995Y-106696136D01*
X132211861Y-106942255D01*
X130561651Y-106942255D01*
X130352862Y-106733466D01*
X129825439Y-106515000D01*
X129254561Y-106515000D01*
X128727138Y-106733466D01*
X128323466Y-107137138D01*
X128105000Y-107664561D01*
X126441711Y-107664561D01*
X126344042Y-98972000D01*
X128296560Y-98972000D01*
X128296560Y-100672000D01*
X128345843Y-100919765D01*
X128486191Y-101129809D01*
X128696235Y-101270157D01*
X128944000Y-101319440D01*
X130644000Y-101319440D01*
X130891765Y-101270157D01*
X131101809Y-101129809D01*
X131242157Y-100919765D01*
X131251184Y-100874381D01*
X131263375Y-100892625D01*
X131754582Y-101220839D01*
X132187744Y-101307000D01*
X132480256Y-101307000D01*
X132913418Y-101220839D01*
X133404625Y-100892625D01*
X133732839Y-100401418D01*
X133848092Y-99822000D01*
X133732839Y-99242582D01*
X133404625Y-98751375D01*
X132913418Y-98423161D01*
X132480256Y-98337000D01*
X132187744Y-98337000D01*
X131754582Y-98423161D01*
X131263375Y-98751375D01*
X131251184Y-98769619D01*
X131242157Y-98724235D01*
X131101809Y-98514191D01*
X130891765Y-98373843D01*
X130644000Y-98324560D01*
X128944000Y-98324560D01*
X128696235Y-98373843D01*
X128486191Y-98514191D01*
X128345843Y-98724235D01*
X128296560Y-98972000D01*
X126344042Y-98972000D01*
X126289109Y-94082890D01*
X128352524Y-94082890D01*
X128522355Y-94492924D01*
X128912642Y-94921183D01*
X129437108Y-95167486D01*
X129667000Y-95046819D01*
X129667000Y-93853000D01*
X129921000Y-93853000D01*
X129921000Y-95046819D01*
X130150892Y-95167486D01*
X130675358Y-94921183D01*
X131065645Y-94492924D01*
X131235476Y-94082890D01*
X131114155Y-93853000D01*
X129921000Y-93853000D01*
X129667000Y-93853000D01*
X128473845Y-93853000D01*
X128352524Y-94082890D01*
X126289109Y-94082890D01*
X126247009Y-90336000D01*
X128296560Y-90336000D01*
X128296560Y-92036000D01*
X128345843Y-92283765D01*
X128486191Y-92493809D01*
X128696235Y-92634157D01*
X128799708Y-92654739D01*
X128522355Y-92959076D01*
X128352524Y-93369110D01*
X128473845Y-93599000D01*
X129667000Y-93599000D01*
X129667000Y-93579000D01*
X129921000Y-93579000D01*
X129921000Y-93599000D01*
X131114155Y-93599000D01*
X131235476Y-93369110D01*
X131065645Y-92959076D01*
X130788292Y-92654739D01*
X130891765Y-92634157D01*
X131101809Y-92493809D01*
X131242157Y-92283765D01*
X131291440Y-92036000D01*
X131291440Y-90336000D01*
X131242157Y-90088235D01*
X131101809Y-89878191D01*
X130891765Y-89737843D01*
X130644000Y-89688560D01*
X128944000Y-89688560D01*
X128696235Y-89737843D01*
X128486191Y-89878191D01*
X128345843Y-90088235D01*
X128296560Y-90336000D01*
X126247009Y-90336000D01*
X126144267Y-81192000D01*
X128550560Y-81192000D01*
X128550560Y-82892000D01*
X128599843Y-83139765D01*
X128740191Y-83349809D01*
X128950235Y-83490157D01*
X129198000Y-83539440D01*
X130898000Y-83539440D01*
X131145765Y-83490157D01*
X131355809Y-83349809D01*
X131496157Y-83139765D01*
X131545440Y-82892000D01*
X131545440Y-81239000D01*
X132360560Y-81239000D01*
X132360560Y-82939000D01*
X132409843Y-83186765D01*
X132550191Y-83396809D01*
X132760235Y-83537157D01*
X133008000Y-83586440D01*
X134708000Y-83586440D01*
X134955765Y-83537157D01*
X135165809Y-83396809D01*
X135306157Y-83186765D01*
X135355440Y-82939000D01*
X135355440Y-81239000D01*
X135346092Y-81192000D01*
X136170560Y-81192000D01*
X136170560Y-82892000D01*
X136219843Y-83139765D01*
X136360191Y-83349809D01*
X136570235Y-83490157D01*
X136818000Y-83539440D01*
X138518000Y-83539440D01*
X138765765Y-83490157D01*
X138975809Y-83349809D01*
X139116157Y-83139765D01*
X139165440Y-82892000D01*
X139165440Y-81192000D01*
X139116157Y-80944235D01*
X138975809Y-80734191D01*
X138765765Y-80593843D01*
X138518000Y-80544560D01*
X136818000Y-80544560D01*
X136570235Y-80593843D01*
X136360191Y-80734191D01*
X136219843Y-80944235D01*
X136170560Y-81192000D01*
X135346092Y-81192000D01*
X135306157Y-80991235D01*
X135165809Y-80781191D01*
X134955765Y-80640843D01*
X134708000Y-80591560D01*
X133008000Y-80591560D01*
X132760235Y-80640843D01*
X132550191Y-80781191D01*
X132409843Y-80991235D01*
X132360560Y-81239000D01*
X131545440Y-81239000D01*
X131545440Y-81192000D01*
X131496157Y-80944235D01*
X131355809Y-80734191D01*
X131145765Y-80593843D01*
X130898000Y-80544560D01*
X129198000Y-80544560D01*
X128950235Y-80593843D01*
X128740191Y-80734191D01*
X128599843Y-80944235D01*
X128550560Y-81192000D01*
X126144267Y-81192000D01*
X126112119Y-78330879D01*
X129062802Y-77593208D01*
X129107607Y-77572042D01*
X129145592Y-77526796D01*
X130126748Y-75564484D01*
X168567259Y-75311586D01*
X169552646Y-78021401D01*
X169552646Y-78021401D01*
G37*
X169552646Y-78021401D02*
X169578340Y-78063772D01*
X169618294Y-78093085D01*
X169651121Y-78103272D01*
X172593399Y-78593652D01*
X172846637Y-146714525D01*
X169131277Y-147705288D01*
X169086808Y-147727152D01*
X169054091Y-147764368D01*
X169040792Y-147797198D01*
X168556842Y-149733000D01*
X130626390Y-149733000D01*
X129393696Y-147760690D01*
X129358830Y-147723958D01*
X126872259Y-145983358D01*
X126633635Y-124745750D01*
X128888000Y-124745750D01*
X128888000Y-125336310D01*
X128984673Y-125569699D01*
X129163302Y-125748327D01*
X129396691Y-125845000D01*
X129762250Y-125845000D01*
X129921000Y-125686250D01*
X129921000Y-124587000D01*
X129046750Y-124587000D01*
X128888000Y-124745750D01*
X126633635Y-124745750D01*
X126620579Y-123583690D01*
X128888000Y-123583690D01*
X128888000Y-124174250D01*
X129046750Y-124333000D01*
X129921000Y-124333000D01*
X129921000Y-123233750D01*
X129762250Y-123075000D01*
X129396691Y-123075000D01*
X129163302Y-123171673D01*
X128984673Y-123350301D01*
X128888000Y-123583690D01*
X126620579Y-123583690D01*
X126441711Y-107664561D01*
X128105000Y-107664561D01*
X128105000Y-108235439D01*
X128323466Y-108762862D01*
X128727138Y-109166534D01*
X129254561Y-109385000D01*
X129825439Y-109385000D01*
X129878302Y-109363103D01*
X130392000Y-109876802D01*
X130392001Y-115900560D01*
X128994000Y-115900560D01*
X128746235Y-115949843D01*
X128536191Y-116090191D01*
X128395843Y-116300235D01*
X128346560Y-116548000D01*
X128346560Y-118148000D01*
X128395843Y-118395765D01*
X128536191Y-118605809D01*
X128746235Y-118746157D01*
X128994000Y-118795440D01*
X130392001Y-118795440D01*
X130392001Y-120900348D01*
X130377112Y-120975200D01*
X130436097Y-121271737D01*
X130507610Y-121378763D01*
X130604072Y-121523129D01*
X130667528Y-121565529D01*
X131828000Y-122726002D01*
X131828000Y-123180653D01*
X131770608Y-123142305D01*
X131318000Y-123052275D01*
X130865391Y-123142305D01*
X130864016Y-123143224D01*
X130699309Y-123075000D01*
X130333750Y-123075000D01*
X130175000Y-123233750D01*
X130175000Y-124035291D01*
X130158000Y-124120755D01*
X130158000Y-124799246D01*
X130175000Y-124884710D01*
X130175000Y-125686250D01*
X130333750Y-125845000D01*
X130558000Y-125845000D01*
X130558001Y-141541448D01*
X130543112Y-141616300D01*
X130602097Y-141912837D01*
X130719745Y-142088909D01*
X130770072Y-142164229D01*
X130833528Y-142206629D01*
X131550471Y-142923573D01*
X131592871Y-142987029D01*
X131756229Y-143096181D01*
X131697161Y-143184582D01*
X131581908Y-143764000D01*
X131697161Y-144343418D01*
X132025375Y-144834625D01*
X132516582Y-145162839D01*
X132949744Y-145249000D01*
X133242256Y-145249000D01*
X133675418Y-145162839D01*
X134166625Y-144834625D01*
X134494839Y-144343418D01*
X134610092Y-143764000D01*
X134494839Y-143184582D01*
X134449630Y-143116922D01*
X134644029Y-142987029D01*
X134686431Y-142923570D01*
X135639673Y-141970329D01*
X135663260Y-142088909D01*
X135980423Y-142563577D01*
X136332758Y-142799000D01*
X135980423Y-143034423D01*
X135663260Y-143509091D01*
X135551887Y-144069000D01*
X135663260Y-144628909D01*
X135980423Y-145103577D01*
X136455091Y-145420740D01*
X136873667Y-145504000D01*
X137156333Y-145504000D01*
X137574909Y-145420740D01*
X138049577Y-145103577D01*
X138366740Y-144628909D01*
X138478113Y-144069000D01*
X138366740Y-143509091D01*
X138049577Y-143034423D01*
X137697242Y-142799000D01*
X138049577Y-142563577D01*
X138069804Y-142533305D01*
X141725271Y-146188773D01*
X141767671Y-146252229D01*
X142019063Y-146420204D01*
X142240748Y-146464300D01*
X142240753Y-146464300D01*
X142315600Y-146479188D01*
X142390447Y-146464300D01*
X159438753Y-146464300D01*
X159513600Y-146479188D01*
X159588447Y-146464300D01*
X159588452Y-146464300D01*
X159810137Y-146420204D01*
X160061529Y-146252229D01*
X160103931Y-146188770D01*
X160853173Y-145439529D01*
X160916629Y-145397129D01*
X160922325Y-145388604D01*
X160964582Y-145416839D01*
X161397744Y-145503000D01*
X161690256Y-145503000D01*
X162123418Y-145416839D01*
X162614625Y-145088625D01*
X162814000Y-144790239D01*
X163013375Y-145088625D01*
X163504582Y-145416839D01*
X163937744Y-145503000D01*
X164230256Y-145503000D01*
X164663418Y-145416839D01*
X165154625Y-145088625D01*
X165354000Y-144790239D01*
X165553375Y-145088625D01*
X166044582Y-145416839D01*
X166477744Y-145503000D01*
X166770256Y-145503000D01*
X167203418Y-145416839D01*
X167694625Y-145088625D01*
X167907843Y-144769522D01*
X167968817Y-144899358D01*
X168397076Y-145289645D01*
X168807110Y-145459476D01*
X169037000Y-145338155D01*
X169037000Y-144145000D01*
X169291000Y-144145000D01*
X169291000Y-145338155D01*
X169520890Y-145459476D01*
X169930924Y-145289645D01*
X170359183Y-144899358D01*
X170605486Y-144374892D01*
X170484819Y-144145000D01*
X169291000Y-144145000D01*
X169037000Y-144145000D01*
X169017000Y-144145000D01*
X169017000Y-143891000D01*
X169037000Y-143891000D01*
X169037000Y-141605000D01*
X169291000Y-141605000D01*
X169291000Y-143891000D01*
X170484819Y-143891000D01*
X170605486Y-143661108D01*
X170359183Y-143136642D01*
X169932729Y-142748000D01*
X170359183Y-142359358D01*
X170605486Y-141834892D01*
X170484819Y-141605000D01*
X169291000Y-141605000D01*
X169037000Y-141605000D01*
X169017000Y-141605000D01*
X169017000Y-141351000D01*
X169037000Y-141351000D01*
X169037000Y-140157845D01*
X169291000Y-140157845D01*
X169291000Y-141351000D01*
X170484819Y-141351000D01*
X170605486Y-141121108D01*
X170359183Y-140596642D01*
X169930924Y-140206355D01*
X169520890Y-140036524D01*
X169291000Y-140157845D01*
X169037000Y-140157845D01*
X168807110Y-140036524D01*
X168397076Y-140206355D01*
X167968817Y-140596642D01*
X167907843Y-140726478D01*
X167694625Y-140407375D01*
X167203418Y-140079161D01*
X166770256Y-139993000D01*
X166477744Y-139993000D01*
X166044582Y-140079161D01*
X165553375Y-140407375D01*
X165354000Y-140705761D01*
X165154625Y-140407375D01*
X164663418Y-140079161D01*
X164230256Y-139993000D01*
X163937744Y-139993000D01*
X163504582Y-140079161D01*
X163013375Y-140407375D01*
X162814000Y-140705761D01*
X162614625Y-140407375D01*
X162123418Y-140079161D01*
X161690256Y-139993000D01*
X161397744Y-139993000D01*
X160964582Y-140079161D01*
X160473375Y-140407375D01*
X160274000Y-140705761D01*
X160074625Y-140407375D01*
X159764000Y-140199822D01*
X159764000Y-135212148D01*
X159778888Y-135137300D01*
X159764000Y-135062452D01*
X159764000Y-135062448D01*
X159719904Y-134840763D01*
X159719904Y-134840762D01*
X159594329Y-134652827D01*
X159551929Y-134589371D01*
X159488473Y-134546971D01*
X159224309Y-134282807D01*
X159499542Y-133870891D01*
X159603154Y-133350000D01*
X159550334Y-133084452D01*
X161987000Y-133084452D01*
X161987000Y-133615548D01*
X162190242Y-134106217D01*
X162565783Y-134481758D01*
X163056452Y-134685000D01*
X163587548Y-134685000D01*
X164078217Y-134481758D01*
X164453758Y-134106217D01*
X164657000Y-133615548D01*
X164657000Y-133084452D01*
X164453758Y-132593783D01*
X164078217Y-132218242D01*
X163760698Y-132086721D01*
X164015831Y-131981042D01*
X164077669Y-131745275D01*
X163322000Y-130989605D01*
X162566331Y-131745275D01*
X162628169Y-131981042D01*
X162903987Y-132078153D01*
X162565783Y-132218242D01*
X162190242Y-132593783D01*
X161987000Y-133084452D01*
X159550334Y-133084452D01*
X159499542Y-132829109D01*
X159204481Y-132387519D01*
X158762891Y-132092458D01*
X158700261Y-132080000D01*
X158762891Y-132067542D01*
X159204481Y-131772481D01*
X159499542Y-131330891D01*
X159603154Y-130810000D01*
X159564789Y-130617122D01*
X161974581Y-130617122D01*
X162003336Y-131147440D01*
X162150958Y-131503831D01*
X162386725Y-131565669D01*
X163142395Y-130810000D01*
X163501605Y-130810000D01*
X164257275Y-131565669D01*
X164493042Y-131503831D01*
X164669419Y-131002878D01*
X164640664Y-130472560D01*
X164493042Y-130116169D01*
X164257275Y-130054331D01*
X163501605Y-130810000D01*
X163142395Y-130810000D01*
X162386725Y-130054331D01*
X162150958Y-130116169D01*
X161974581Y-130617122D01*
X159564789Y-130617122D01*
X159499542Y-130289109D01*
X159204481Y-129847519D01*
X158762891Y-129552458D01*
X158700261Y-129540000D01*
X158762891Y-129527542D01*
X159204481Y-129232481D01*
X159222659Y-129205275D01*
X162566331Y-129205275D01*
X162628169Y-129441042D01*
X162886445Y-129531977D01*
X162628169Y-129638958D01*
X162566331Y-129874725D01*
X163322000Y-130630395D01*
X164077669Y-129874725D01*
X164015831Y-129638958D01*
X163757555Y-129548023D01*
X164015831Y-129441042D01*
X164077669Y-129205275D01*
X163322000Y-128449605D01*
X162566331Y-129205275D01*
X159222659Y-129205275D01*
X159499542Y-128790891D01*
X159603154Y-128270000D01*
X159564789Y-128077122D01*
X161974581Y-128077122D01*
X162003336Y-128607440D01*
X162150958Y-128963831D01*
X162386725Y-129025669D01*
X163142395Y-128270000D01*
X163501605Y-128270000D01*
X164257275Y-129025669D01*
X164493042Y-128963831D01*
X164669419Y-128462878D01*
X164640664Y-127932560D01*
X164493042Y-127576169D01*
X164257275Y-127514331D01*
X163501605Y-128270000D01*
X163142395Y-128270000D01*
X162386725Y-127514331D01*
X162150958Y-127576169D01*
X161974581Y-128077122D01*
X159564789Y-128077122D01*
X159499542Y-127749109D01*
X159204481Y-127307519D01*
X158762891Y-127012458D01*
X158700261Y-127000000D01*
X158762891Y-126987542D01*
X159204481Y-126692481D01*
X159222659Y-126665275D01*
X162566331Y-126665275D01*
X162628169Y-126901042D01*
X162886445Y-126991977D01*
X162628169Y-127098958D01*
X162566331Y-127334725D01*
X163322000Y-128090395D01*
X164077669Y-127334725D01*
X164015831Y-127098958D01*
X163757555Y-127008023D01*
X164015831Y-126901042D01*
X164077669Y-126665275D01*
X163322000Y-125909605D01*
X162566331Y-126665275D01*
X159222659Y-126665275D01*
X159499542Y-126250891D01*
X159603154Y-125730000D01*
X159564789Y-125537122D01*
X161974581Y-125537122D01*
X162003336Y-126067440D01*
X162150958Y-126423831D01*
X162386725Y-126485669D01*
X163142395Y-125730000D01*
X163501605Y-125730000D01*
X164257275Y-126485669D01*
X164493042Y-126423831D01*
X164669419Y-125922878D01*
X164640664Y-125392560D01*
X164493042Y-125036169D01*
X164257275Y-124974331D01*
X163501605Y-125730000D01*
X163142395Y-125730000D01*
X162386725Y-124974331D01*
X162150958Y-125036169D01*
X161974581Y-125537122D01*
X159564789Y-125537122D01*
X159499542Y-125209109D01*
X159204481Y-124767519D01*
X158762891Y-124472458D01*
X158700261Y-124460000D01*
X158762891Y-124447542D01*
X159204481Y-124152481D01*
X159222659Y-124125275D01*
X162566331Y-124125275D01*
X162628169Y-124361042D01*
X162886445Y-124451977D01*
X162628169Y-124558958D01*
X162566331Y-124794725D01*
X163322000Y-125550395D01*
X164077669Y-124794725D01*
X164015831Y-124558958D01*
X163757555Y-124468023D01*
X164015831Y-124361042D01*
X164077669Y-124125275D01*
X163322000Y-123369605D01*
X162566331Y-124125275D01*
X159222659Y-124125275D01*
X159499542Y-123710891D01*
X159603154Y-123190000D01*
X159564789Y-122997122D01*
X161974581Y-122997122D01*
X162003336Y-123527440D01*
X162150958Y-123883831D01*
X162386725Y-123945669D01*
X163142395Y-123190000D01*
X163501605Y-123190000D01*
X164257275Y-123945669D01*
X164493042Y-123883831D01*
X164669419Y-123382878D01*
X164640664Y-122852560D01*
X164493042Y-122496169D01*
X164257275Y-122434331D01*
X163501605Y-123190000D01*
X163142395Y-123190000D01*
X162386725Y-122434331D01*
X162150958Y-122496169D01*
X161974581Y-122997122D01*
X159564789Y-122997122D01*
X159499542Y-122669109D01*
X159204481Y-122227519D01*
X158915902Y-122034697D01*
X158957904Y-121971837D01*
X159002000Y-121750152D01*
X159002000Y-121750148D01*
X159002545Y-121747411D01*
X159204481Y-121612481D01*
X159499542Y-121170891D01*
X159603154Y-120650000D01*
X159550334Y-120384452D01*
X161987000Y-120384452D01*
X161987000Y-120915548D01*
X162190242Y-121406217D01*
X162565783Y-121781758D01*
X162883302Y-121913279D01*
X162628169Y-122018958D01*
X162566331Y-122254725D01*
X163322000Y-123010395D01*
X164077669Y-122254725D01*
X164015831Y-122018958D01*
X163740013Y-121921847D01*
X164078217Y-121781758D01*
X164453758Y-121406217D01*
X164657000Y-120915548D01*
X164657000Y-120384452D01*
X164453758Y-119893783D01*
X164078217Y-119518242D01*
X163721930Y-119370663D01*
X164124663Y-119176764D01*
X164471797Y-118788396D01*
X164614716Y-118443329D01*
X164491374Y-118237000D01*
X163449000Y-118237000D01*
X163449000Y-118257000D01*
X163195000Y-118257000D01*
X163195000Y-118237000D01*
X162152626Y-118237000D01*
X162029284Y-118443329D01*
X162172203Y-118788396D01*
X162519337Y-119176764D01*
X162922070Y-119370663D01*
X162565783Y-119518242D01*
X162190242Y-119893783D01*
X161987000Y-120384452D01*
X159550334Y-120384452D01*
X159499542Y-120129109D01*
X159204481Y-119687519D01*
X159002544Y-119552589D01*
X159002000Y-119549853D01*
X159002000Y-119549848D01*
X158957904Y-119328163D01*
X158921424Y-119273567D01*
X158998217Y-119241758D01*
X159373758Y-118866217D01*
X159577000Y-118375548D01*
X159577000Y-117844452D01*
X159373758Y-117353783D01*
X158998217Y-116978242D01*
X158971076Y-116967000D01*
X158998217Y-116955758D01*
X159373758Y-116580217D01*
X159548924Y-116157329D01*
X162029284Y-116157329D01*
X162172203Y-116502396D01*
X162519337Y-116890764D01*
X162677681Y-116967000D01*
X162519337Y-117043236D01*
X162172203Y-117431604D01*
X162029284Y-117776671D01*
X162152626Y-117983000D01*
X163195000Y-117983000D01*
X163195000Y-115951000D01*
X163449000Y-115951000D01*
X163449000Y-117983000D01*
X164491374Y-117983000D01*
X164614716Y-117776671D01*
X164471797Y-117431604D01*
X164124663Y-117043236D01*
X163966319Y-116967000D01*
X164124663Y-116890764D01*
X164471797Y-116502396D01*
X164614716Y-116157329D01*
X164491374Y-115951000D01*
X163449000Y-115951000D01*
X163195000Y-115951000D01*
X162152626Y-115951000D01*
X162029284Y-116157329D01*
X159548924Y-116157329D01*
X159577000Y-116089548D01*
X159577000Y-115558452D01*
X159373758Y-115067783D01*
X158998217Y-114692242D01*
X158971076Y-114681000D01*
X158998217Y-114669758D01*
X159373758Y-114294217D01*
X159548924Y-113871329D01*
X162029284Y-113871329D01*
X162172203Y-114216396D01*
X162519337Y-114604764D01*
X162677681Y-114681000D01*
X162519337Y-114757236D01*
X162172203Y-115145604D01*
X162029284Y-115490671D01*
X162152626Y-115697000D01*
X163195000Y-115697000D01*
X163195000Y-113665000D01*
X163449000Y-113665000D01*
X163449000Y-115697000D01*
X164491374Y-115697000D01*
X164614716Y-115490671D01*
X164471797Y-115145604D01*
X164124663Y-114757236D01*
X163966319Y-114681000D01*
X164124663Y-114604764D01*
X164471797Y-114216396D01*
X164614716Y-113871329D01*
X164491374Y-113665000D01*
X163449000Y-113665000D01*
X163195000Y-113665000D01*
X162152626Y-113665000D01*
X162029284Y-113871329D01*
X159548924Y-113871329D01*
X159577000Y-113803548D01*
X159577000Y-113272452D01*
X159548925Y-113204671D01*
X162029284Y-113204671D01*
X162152626Y-113411000D01*
X163195000Y-113411000D01*
X163195000Y-112367794D01*
X163449000Y-112367794D01*
X163449000Y-113411000D01*
X164491374Y-113411000D01*
X164614716Y-113204671D01*
X164471797Y-112859604D01*
X164124663Y-112471236D01*
X163655331Y-112245273D01*
X163449000Y-112367794D01*
X163195000Y-112367794D01*
X162988669Y-112245273D01*
X162519337Y-112471236D01*
X162172203Y-112859604D01*
X162029284Y-113204671D01*
X159548925Y-113204671D01*
X159373758Y-112781783D01*
X158998217Y-112406242D01*
X158507548Y-112203000D01*
X157976452Y-112203000D01*
X157485783Y-112406242D01*
X157110242Y-112781783D01*
X156970000Y-113120357D01*
X156970000Y-108406043D01*
X157244577Y-108222577D01*
X157561740Y-107747909D01*
X157673113Y-107188000D01*
X157561740Y-106628091D01*
X157244577Y-106153423D01*
X156948614Y-105955667D01*
X156965896Y-105868786D01*
X157244577Y-105682577D01*
X157561740Y-105207909D01*
X157673113Y-104648000D01*
X157561740Y-104088091D01*
X157244577Y-103613423D01*
X156860892Y-103357053D01*
X157065134Y-103260389D01*
X157441041Y-102845423D01*
X157601904Y-102457039D01*
X157479915Y-102235000D01*
X156337000Y-102235000D01*
X156337000Y-102255000D01*
X156083000Y-102255000D01*
X156083000Y-102235000D01*
X156063000Y-102235000D01*
X156063000Y-101981000D01*
X156083000Y-101981000D01*
X156083000Y-101961000D01*
X156337000Y-101961000D01*
X156337000Y-101981000D01*
X157479915Y-101981000D01*
X157601904Y-101758961D01*
X157441041Y-101370577D01*
X157065134Y-100955611D01*
X156944106Y-100898330D01*
X156965896Y-100788786D01*
X157244577Y-100602577D01*
X157561740Y-100127909D01*
X157673113Y-99568000D01*
X157561740Y-99008091D01*
X157543719Y-98981121D01*
X158563965Y-100001366D01*
X158432500Y-100318750D01*
X158432500Y-100849250D01*
X158635513Y-101339367D01*
X159010633Y-101714487D01*
X159500750Y-101917500D01*
X160031250Y-101917500D01*
X160052901Y-101908532D01*
X160052901Y-104302297D01*
X160024698Y-104330500D01*
X159500750Y-104330500D01*
X159010633Y-104533513D01*
X158635513Y-104908633D01*
X158432500Y-105398750D01*
X158432500Y-105929250D01*
X158635513Y-106419367D01*
X159010633Y-106794487D01*
X159500750Y-106997500D01*
X160031250Y-106997500D01*
X160521367Y-106794487D01*
X160896487Y-106419367D01*
X161099500Y-105929250D01*
X161099500Y-105405302D01*
X161127702Y-105377100D01*
X166024299Y-105377100D01*
X166052500Y-105405301D01*
X166052500Y-105929250D01*
X166255513Y-106419367D01*
X166630633Y-106794487D01*
X167120750Y-106997500D01*
X167651250Y-106997500D01*
X168141367Y-106794487D01*
X168516487Y-106419367D01*
X168719500Y-105929250D01*
X168719500Y-105398750D01*
X168516487Y-104908633D01*
X168141367Y-104533513D01*
X167651250Y-104330500D01*
X167127301Y-104330500D01*
X166929431Y-104132630D01*
X166887029Y-104069171D01*
X166635637Y-103901196D01*
X166413952Y-103857100D01*
X166413947Y-103857100D01*
X166339100Y-103842212D01*
X166264253Y-103857100D01*
X161572900Y-103857100D01*
X161572900Y-100318750D01*
X166052500Y-100318750D01*
X166052500Y-100849250D01*
X166255513Y-101339367D01*
X166630633Y-101714487D01*
X167120750Y-101917500D01*
X167651250Y-101917500D01*
X168141367Y-101714487D01*
X168516487Y-101339367D01*
X168719500Y-100849250D01*
X168719500Y-100318750D01*
X168516487Y-99828633D01*
X168141367Y-99453513D01*
X167728653Y-99282561D01*
X168999000Y-99282561D01*
X168999000Y-99853439D01*
X169217466Y-100380862D01*
X169621138Y-100784534D01*
X170148561Y-101003000D01*
X170719439Y-101003000D01*
X171246862Y-100784534D01*
X171650534Y-100380862D01*
X171869000Y-99853439D01*
X171869000Y-99282561D01*
X171650534Y-98755138D01*
X171246862Y-98351466D01*
X171181701Y-98324475D01*
X171188005Y-98321864D01*
X171262139Y-98075745D01*
X170434000Y-97247605D01*
X169605861Y-98075745D01*
X169679995Y-98321864D01*
X169686746Y-98324290D01*
X169621138Y-98351466D01*
X169217466Y-98755138D01*
X168999000Y-99282561D01*
X167728653Y-99282561D01*
X167651250Y-99250500D01*
X167120750Y-99250500D01*
X166630633Y-99453513D01*
X166255513Y-99828633D01*
X166052500Y-100318750D01*
X161572900Y-100318750D01*
X161572900Y-97564900D01*
X166264253Y-97564900D01*
X166339100Y-97579788D01*
X166413947Y-97564900D01*
X166413952Y-97564900D01*
X166635637Y-97520804D01*
X166887029Y-97352829D01*
X166929431Y-97289370D01*
X167127301Y-97091500D01*
X167651250Y-97091500D01*
X168141367Y-96888487D01*
X168178631Y-96851223D01*
X168987035Y-96851223D01*
X169014222Y-97421454D01*
X169180136Y-97822005D01*
X169426255Y-97896139D01*
X170254395Y-97068000D01*
X170613605Y-97068000D01*
X171441745Y-97896139D01*
X171687864Y-97822005D01*
X171880965Y-97284777D01*
X171853778Y-96714546D01*
X171687864Y-96313995D01*
X171441745Y-96239861D01*
X170613605Y-97068000D01*
X170254395Y-97068000D01*
X169426255Y-96239861D01*
X169180136Y-96313995D01*
X168987035Y-96851223D01*
X168178631Y-96851223D01*
X168516487Y-96513367D01*
X168704172Y-96060255D01*
X169605861Y-96060255D01*
X170434000Y-96888395D01*
X171262139Y-96060255D01*
X171188005Y-95814136D01*
X170650777Y-95621035D01*
X170080546Y-95648222D01*
X169679995Y-95814136D01*
X169605861Y-96060255D01*
X168704172Y-96060255D01*
X168719500Y-96023250D01*
X168719500Y-95499302D01*
X169308873Y-94909929D01*
X169372329Y-94867529D01*
X169483620Y-94700971D01*
X169540304Y-94616138D01*
X169549880Y-94567995D01*
X169584400Y-94394452D01*
X169584400Y-94394448D01*
X169599288Y-94319600D01*
X169584400Y-94244752D01*
X169584400Y-92683440D01*
X171284000Y-92683440D01*
X171531765Y-92634157D01*
X171741809Y-92493809D01*
X171882157Y-92283765D01*
X171931440Y-92036000D01*
X171931440Y-90336000D01*
X171882157Y-90088235D01*
X171741809Y-89878191D01*
X171531765Y-89737843D01*
X171284000Y-89688560D01*
X169584400Y-89688560D01*
X169584400Y-83855247D01*
X169599288Y-83780400D01*
X169584400Y-83705553D01*
X169584400Y-83705548D01*
X169540304Y-83483863D01*
X169372329Y-83232471D01*
X169308873Y-83190071D01*
X168817491Y-82698689D01*
X169038839Y-82367418D01*
X169154092Y-81788000D01*
X169038839Y-81208582D01*
X168710625Y-80717375D01*
X168219418Y-80389161D01*
X167786256Y-80303000D01*
X167493744Y-80303000D01*
X167060582Y-80389161D01*
X166569375Y-80717375D01*
X166554904Y-80739032D01*
X166488327Y-80578301D01*
X166309698Y-80399673D01*
X166076309Y-80303000D01*
X165385750Y-80303000D01*
X165227000Y-80461750D01*
X165227000Y-81661000D01*
X165247000Y-81661000D01*
X165247000Y-81915000D01*
X165227000Y-81915000D01*
X165227000Y-81935000D01*
X164973000Y-81935000D01*
X164973000Y-81915000D01*
X163773750Y-81915000D01*
X163615000Y-82073750D01*
X163615000Y-82764310D01*
X163711673Y-82997699D01*
X163890302Y-83176327D01*
X164051033Y-83242904D01*
X164029375Y-83257375D01*
X163701161Y-83748582D01*
X163585908Y-84328000D01*
X163668516Y-84743300D01*
X160010802Y-84743300D01*
X159001631Y-83734130D01*
X158959229Y-83670671D01*
X158707837Y-83502696D01*
X158486152Y-83458600D01*
X158486147Y-83458600D01*
X158411300Y-83443712D01*
X158336453Y-83458600D01*
X157359646Y-83458600D01*
X157284799Y-83443712D01*
X157209952Y-83458600D01*
X157209948Y-83458600D01*
X156988263Y-83502696D01*
X156736871Y-83670671D01*
X156694471Y-83734127D01*
X154672599Y-85756000D01*
X154284794Y-85756000D01*
X154354965Y-85560777D01*
X154327778Y-84990546D01*
X154161864Y-84589995D01*
X153915745Y-84515861D01*
X153087605Y-85344000D01*
X153101748Y-85358143D01*
X152922143Y-85537748D01*
X152908000Y-85523605D01*
X152893858Y-85537748D01*
X152714252Y-85358142D01*
X152728395Y-85344000D01*
X151900255Y-84515861D01*
X151654136Y-84589995D01*
X151625755Y-84668953D01*
X151293057Y-84336255D01*
X152079861Y-84336255D01*
X152908000Y-85164395D01*
X153736139Y-84336255D01*
X153662005Y-84090136D01*
X153124777Y-83897035D01*
X152554546Y-83924222D01*
X152153995Y-84090136D01*
X152079861Y-84336255D01*
X151293057Y-84336255D01*
X147768492Y-80811690D01*
X163615000Y-80811690D01*
X163615000Y-81502250D01*
X163773750Y-81661000D01*
X164973000Y-81661000D01*
X164973000Y-80461750D01*
X164814250Y-80303000D01*
X164123691Y-80303000D01*
X163890302Y-80399673D01*
X163711673Y-80578301D01*
X163615000Y-80811690D01*
X147768492Y-80811690D01*
X146810000Y-79853199D01*
X146810000Y-79764178D01*
X147120625Y-79556625D01*
X147320000Y-79258239D01*
X147519375Y-79556625D01*
X148010582Y-79884839D01*
X148443744Y-79971000D01*
X148736256Y-79971000D01*
X149169418Y-79884839D01*
X149660625Y-79556625D01*
X149873843Y-79237522D01*
X149934817Y-79367358D01*
X150363076Y-79757645D01*
X150773110Y-79927476D01*
X151003000Y-79806155D01*
X151003000Y-78613000D01*
X150983000Y-78613000D01*
X150983000Y-78359000D01*
X151003000Y-78359000D01*
X151003000Y-77165845D01*
X151257000Y-77165845D01*
X151257000Y-78359000D01*
X151277000Y-78359000D01*
X151277000Y-78613000D01*
X151257000Y-78613000D01*
X151257000Y-79806155D01*
X151486890Y-79927476D01*
X151896924Y-79757645D01*
X152201261Y-79480292D01*
X152221843Y-79583765D01*
X152362191Y-79793809D01*
X152572235Y-79934157D01*
X152820000Y-79983440D01*
X154520000Y-79983440D01*
X154767765Y-79934157D01*
X154977809Y-79793809D01*
X155118157Y-79583765D01*
X155167440Y-79336000D01*
X155167440Y-77636000D01*
X155118157Y-77388235D01*
X154977809Y-77178191D01*
X154767765Y-77037843D01*
X154520000Y-76988560D01*
X152820000Y-76988560D01*
X152572235Y-77037843D01*
X152362191Y-77178191D01*
X152221843Y-77388235D01*
X152201261Y-77491708D01*
X151896924Y-77214355D01*
X151486890Y-77044524D01*
X151257000Y-77165845D01*
X151003000Y-77165845D01*
X150773110Y-77044524D01*
X150363076Y-77214355D01*
X149934817Y-77604642D01*
X149873843Y-77734478D01*
X149660625Y-77415375D01*
X149169418Y-77087161D01*
X148736256Y-77001000D01*
X148443744Y-77001000D01*
X148010582Y-77087161D01*
X147519375Y-77415375D01*
X147320000Y-77713761D01*
X147120625Y-77415375D01*
X146629418Y-77087161D01*
X146196256Y-77001000D01*
X145903744Y-77001000D01*
X145470582Y-77087161D01*
X144979375Y-77415375D01*
X144651161Y-77906582D01*
X144535908Y-78486000D01*
X144651161Y-79065418D01*
X144979375Y-79556625D01*
X145290000Y-79764178D01*
X145290000Y-80093153D01*
X145275112Y-80168000D01*
X145290000Y-80242847D01*
X145290000Y-80242851D01*
X145334096Y-80464536D01*
X145502071Y-80715929D01*
X145565530Y-80758331D01*
X148720459Y-83913260D01*
X148490546Y-83924222D01*
X148089995Y-84090136D01*
X148015861Y-84336255D01*
X148844000Y-85164395D01*
X148858142Y-85150252D01*
X149037748Y-85329858D01*
X149023605Y-85344000D01*
X149851745Y-86172139D01*
X150097864Y-86098005D01*
X150290965Y-85560777D01*
X150287110Y-85479911D01*
X151807671Y-87000473D01*
X151850071Y-87063929D01*
X151913527Y-87106329D01*
X152101462Y-87231904D01*
X152149605Y-87241480D01*
X152323148Y-87276000D01*
X152323152Y-87276000D01*
X152398000Y-87290888D01*
X152472848Y-87276000D01*
X154901198Y-87276000D01*
X150615943Y-91561256D01*
X150590540Y-91535853D01*
X150081494Y-91325000D01*
X149530506Y-91325000D01*
X149021460Y-91535853D01*
X148631853Y-91925460D01*
X148421000Y-92434506D01*
X148421000Y-92985494D01*
X148431165Y-93010034D01*
X146065158Y-95376041D01*
X145910487Y-95002633D01*
X145535367Y-94627513D01*
X145045250Y-94424500D01*
X144514750Y-94424500D01*
X144024633Y-94627513D01*
X143649513Y-95002633D01*
X143446500Y-95492750D01*
X143446500Y-96023250D01*
X143649513Y-96513367D01*
X144024633Y-96888487D01*
X144398041Y-97043158D01*
X140622430Y-100818769D01*
X140558971Y-100861171D01*
X140390996Y-101112564D01*
X140346900Y-101334249D01*
X140346900Y-101334253D01*
X140332012Y-101409100D01*
X140346900Y-101483947D01*
X140346901Y-128610197D01*
X138279128Y-130677971D01*
X138100206Y-130410195D01*
X139589576Y-128920827D01*
X139653029Y-128878429D01*
X139695427Y-128814976D01*
X139695429Y-128814974D01*
X139798152Y-128661237D01*
X139821004Y-128627037D01*
X139865100Y-128405352D01*
X139865100Y-128405348D01*
X139879988Y-128330501D01*
X139865100Y-128255654D01*
X139865100Y-90412750D01*
X143446500Y-90412750D01*
X143446500Y-90943250D01*
X143649513Y-91433367D01*
X144024633Y-91808487D01*
X144514750Y-92011500D01*
X145045250Y-92011500D01*
X145535367Y-91808487D01*
X145910487Y-91433367D01*
X146113500Y-90943250D01*
X146113500Y-90412750D01*
X145910487Y-89922633D01*
X145535367Y-89547513D01*
X145045250Y-89344500D01*
X144514750Y-89344500D01*
X144024633Y-89547513D01*
X143649513Y-89922633D01*
X143446500Y-90412750D01*
X139865100Y-90412750D01*
X139865100Y-90397701D01*
X143505698Y-86757104D01*
X143558561Y-86779000D01*
X144129439Y-86779000D01*
X144656862Y-86560534D01*
X144865651Y-86351745D01*
X148015861Y-86351745D01*
X148089995Y-86597864D01*
X148627223Y-86790965D01*
X149197454Y-86763778D01*
X149598005Y-86597864D01*
X149672139Y-86351745D01*
X148844000Y-85523605D01*
X148015861Y-86351745D01*
X144865651Y-86351745D01*
X145060534Y-86156862D01*
X145279000Y-85629439D01*
X145279000Y-85127223D01*
X147397035Y-85127223D01*
X147424222Y-85697454D01*
X147590136Y-86098005D01*
X147836255Y-86172139D01*
X148664395Y-85344000D01*
X147836255Y-84515861D01*
X147590136Y-84589995D01*
X147397035Y-85127223D01*
X145279000Y-85127223D01*
X145279000Y-85058561D01*
X145060534Y-84531138D01*
X144656862Y-84127466D01*
X144129439Y-83909000D01*
X143558561Y-83909000D01*
X143031138Y-84127466D01*
X142627466Y-84531138D01*
X142409000Y-85058561D01*
X142409000Y-85629439D01*
X142430896Y-85682302D01*
X138620628Y-89492571D01*
X138557172Y-89534971D01*
X138514772Y-89598427D01*
X138514771Y-89598428D01*
X138389197Y-89786363D01*
X138338861Y-90039418D01*
X138290487Y-89922633D01*
X137915367Y-89547513D01*
X137425250Y-89344500D01*
X136894750Y-89344500D01*
X136404633Y-89547513D01*
X136029513Y-89922633D01*
X135826500Y-90412750D01*
X135826500Y-90936699D01*
X135637228Y-91125971D01*
X135573772Y-91168371D01*
X135531372Y-91231827D01*
X135531371Y-91231828D01*
X135405797Y-91419763D01*
X135346812Y-91716300D01*
X135361701Y-91791152D01*
X135361700Y-101872553D01*
X135346812Y-101947400D01*
X135361700Y-102022247D01*
X135361700Y-102022251D01*
X135405796Y-102243936D01*
X135573771Y-102495329D01*
X135637230Y-102537731D01*
X136921998Y-103822500D01*
X136894750Y-103822500D01*
X136404633Y-104025513D01*
X136029513Y-104400633D01*
X135826500Y-104890750D01*
X135826500Y-105421250D01*
X136029513Y-105911367D01*
X136404633Y-106286487D01*
X136894750Y-106489500D01*
X137423901Y-106489500D01*
X137423901Y-109601560D01*
X136215000Y-109601560D01*
X135967235Y-109650843D01*
X135757191Y-109791191D01*
X135616843Y-110001235D01*
X135567560Y-110249000D01*
X135567560Y-111849000D01*
X135616843Y-112096765D01*
X135757191Y-112306809D01*
X135967235Y-112447157D01*
X136101106Y-112473785D01*
X135980423Y-112554423D01*
X135663260Y-113029091D01*
X135551887Y-113589000D01*
X135663260Y-114148909D01*
X135907243Y-114514055D01*
X134504430Y-115916869D01*
X134496000Y-115922502D01*
X134496000Y-112131290D01*
X134528655Y-112098635D01*
X134671000Y-111754983D01*
X134671000Y-111383017D01*
X134528655Y-111039365D01*
X134265635Y-110776345D01*
X133921983Y-110634000D01*
X133550017Y-110634000D01*
X133206365Y-110776345D01*
X132943345Y-111039365D01*
X132801000Y-111383017D01*
X132801000Y-111754983D01*
X132943345Y-112098635D01*
X132976001Y-112131291D01*
X132976001Y-116068255D01*
X132510777Y-115901035D01*
X131940546Y-115928222D01*
X131912000Y-115940046D01*
X131912000Y-109636846D01*
X131926888Y-109561999D01*
X131912000Y-109487152D01*
X131912000Y-109487148D01*
X131867904Y-109265463D01*
X131699929Y-109014071D01*
X131636473Y-108971671D01*
X131622547Y-108957745D01*
X132211861Y-108957745D01*
X132285995Y-109203864D01*
X132823223Y-109396965D01*
X133393454Y-109369778D01*
X133794005Y-109203864D01*
X133868139Y-108957745D01*
X133040000Y-108129605D01*
X132211861Y-108957745D01*
X131622547Y-108957745D01*
X130953103Y-108288302D01*
X130975000Y-108235439D01*
X130975000Y-107733223D01*
X131593035Y-107733223D01*
X131620222Y-108303454D01*
X131786136Y-108704005D01*
X132032255Y-108778139D01*
X132860395Y-107950000D01*
X133219605Y-107950000D01*
X134047745Y-108778139D01*
X134293864Y-108704005D01*
X134486965Y-108166777D01*
X134459778Y-107596546D01*
X134293864Y-107195995D01*
X134047745Y-107121861D01*
X133219605Y-107950000D01*
X132860395Y-107950000D01*
X132032255Y-107121861D01*
X131786136Y-107195995D01*
X131593035Y-107733223D01*
X130975000Y-107733223D01*
X130975000Y-107664561D01*
X130756534Y-107137138D01*
X130561651Y-106942255D01*
X132211861Y-106942255D01*
X133040000Y-107770395D01*
X133868139Y-106942255D01*
X133794005Y-106696136D01*
X133256777Y-106503035D01*
X132686546Y-106530222D01*
X132285995Y-106696136D01*
X132211861Y-106942255D01*
X130561651Y-106942255D01*
X130352862Y-106733466D01*
X129825439Y-106515000D01*
X129254561Y-106515000D01*
X128727138Y-106733466D01*
X128323466Y-107137138D01*
X128105000Y-107664561D01*
X126441711Y-107664561D01*
X126344042Y-98972000D01*
X128296560Y-98972000D01*
X128296560Y-100672000D01*
X128345843Y-100919765D01*
X128486191Y-101129809D01*
X128696235Y-101270157D01*
X128944000Y-101319440D01*
X130644000Y-101319440D01*
X130891765Y-101270157D01*
X131101809Y-101129809D01*
X131242157Y-100919765D01*
X131251184Y-100874381D01*
X131263375Y-100892625D01*
X131754582Y-101220839D01*
X132187744Y-101307000D01*
X132480256Y-101307000D01*
X132913418Y-101220839D01*
X133404625Y-100892625D01*
X133732839Y-100401418D01*
X133848092Y-99822000D01*
X133732839Y-99242582D01*
X133404625Y-98751375D01*
X132913418Y-98423161D01*
X132480256Y-98337000D01*
X132187744Y-98337000D01*
X131754582Y-98423161D01*
X131263375Y-98751375D01*
X131251184Y-98769619D01*
X131242157Y-98724235D01*
X131101809Y-98514191D01*
X130891765Y-98373843D01*
X130644000Y-98324560D01*
X128944000Y-98324560D01*
X128696235Y-98373843D01*
X128486191Y-98514191D01*
X128345843Y-98724235D01*
X128296560Y-98972000D01*
X126344042Y-98972000D01*
X126289109Y-94082890D01*
X128352524Y-94082890D01*
X128522355Y-94492924D01*
X128912642Y-94921183D01*
X129437108Y-95167486D01*
X129667000Y-95046819D01*
X129667000Y-93853000D01*
X129921000Y-93853000D01*
X129921000Y-95046819D01*
X130150892Y-95167486D01*
X130675358Y-94921183D01*
X131065645Y-94492924D01*
X131235476Y-94082890D01*
X131114155Y-93853000D01*
X129921000Y-93853000D01*
X129667000Y-93853000D01*
X128473845Y-93853000D01*
X128352524Y-94082890D01*
X126289109Y-94082890D01*
X126247009Y-90336000D01*
X128296560Y-90336000D01*
X128296560Y-92036000D01*
X128345843Y-92283765D01*
X128486191Y-92493809D01*
X128696235Y-92634157D01*
X128799708Y-92654739D01*
X128522355Y-92959076D01*
X128352524Y-93369110D01*
X128473845Y-93599000D01*
X129667000Y-93599000D01*
X129667000Y-93579000D01*
X129921000Y-93579000D01*
X129921000Y-93599000D01*
X131114155Y-93599000D01*
X131235476Y-93369110D01*
X131065645Y-92959076D01*
X130788292Y-92654739D01*
X130891765Y-92634157D01*
X131101809Y-92493809D01*
X131242157Y-92283765D01*
X131291440Y-92036000D01*
X131291440Y-90336000D01*
X131242157Y-90088235D01*
X131101809Y-89878191D01*
X130891765Y-89737843D01*
X130644000Y-89688560D01*
X128944000Y-89688560D01*
X128696235Y-89737843D01*
X128486191Y-89878191D01*
X128345843Y-90088235D01*
X128296560Y-90336000D01*
X126247009Y-90336000D01*
X126144267Y-81192000D01*
X128550560Y-81192000D01*
X128550560Y-82892000D01*
X128599843Y-83139765D01*
X128740191Y-83349809D01*
X128950235Y-83490157D01*
X129198000Y-83539440D01*
X130898000Y-83539440D01*
X131145765Y-83490157D01*
X131355809Y-83349809D01*
X131496157Y-83139765D01*
X131545440Y-82892000D01*
X131545440Y-81239000D01*
X132360560Y-81239000D01*
X132360560Y-82939000D01*
X132409843Y-83186765D01*
X132550191Y-83396809D01*
X132760235Y-83537157D01*
X133008000Y-83586440D01*
X134708000Y-83586440D01*
X134955765Y-83537157D01*
X135165809Y-83396809D01*
X135306157Y-83186765D01*
X135355440Y-82939000D01*
X135355440Y-81239000D01*
X135346092Y-81192000D01*
X136170560Y-81192000D01*
X136170560Y-82892000D01*
X136219843Y-83139765D01*
X136360191Y-83349809D01*
X136570235Y-83490157D01*
X136818000Y-83539440D01*
X138518000Y-83539440D01*
X138765765Y-83490157D01*
X138975809Y-83349809D01*
X139116157Y-83139765D01*
X139165440Y-82892000D01*
X139165440Y-81192000D01*
X139116157Y-80944235D01*
X138975809Y-80734191D01*
X138765765Y-80593843D01*
X138518000Y-80544560D01*
X136818000Y-80544560D01*
X136570235Y-80593843D01*
X136360191Y-80734191D01*
X136219843Y-80944235D01*
X136170560Y-81192000D01*
X135346092Y-81192000D01*
X135306157Y-80991235D01*
X135165809Y-80781191D01*
X134955765Y-80640843D01*
X134708000Y-80591560D01*
X133008000Y-80591560D01*
X132760235Y-80640843D01*
X132550191Y-80781191D01*
X132409843Y-80991235D01*
X132360560Y-81239000D01*
X131545440Y-81239000D01*
X131545440Y-81192000D01*
X131496157Y-80944235D01*
X131355809Y-80734191D01*
X131145765Y-80593843D01*
X130898000Y-80544560D01*
X129198000Y-80544560D01*
X128950235Y-80593843D01*
X128740191Y-80734191D01*
X128599843Y-80944235D01*
X128550560Y-81192000D01*
X126144267Y-81192000D01*
X126112119Y-78330879D01*
X129062802Y-77593208D01*
X129107607Y-77572042D01*
X129145592Y-77526796D01*
X130126748Y-75564484D01*
X168567259Y-75311586D01*
X169552646Y-78021401D01*
G36*
X143600423Y-119703577D02*
X143879104Y-119889786D01*
X143896386Y-119976667D01*
X143600423Y-120174423D01*
X143283260Y-120649091D01*
X143171887Y-121209000D01*
X143283260Y-121768909D01*
X143600423Y-122243577D01*
X143952758Y-122479000D01*
X143600423Y-122714423D01*
X143283260Y-123189091D01*
X143171887Y-123749000D01*
X143283260Y-124308909D01*
X143600423Y-124783577D01*
X143984108Y-125039947D01*
X143779866Y-125136611D01*
X143403959Y-125551577D01*
X143243096Y-125939961D01*
X143365085Y-126162000D01*
X144508000Y-126162000D01*
X144508000Y-126142000D01*
X144762000Y-126142000D01*
X144762000Y-126162000D01*
X145904915Y-126162000D01*
X146026904Y-125939961D01*
X145866041Y-125551577D01*
X145490134Y-125136611D01*
X145285892Y-125039947D01*
X145669577Y-124783577D01*
X145986740Y-124308909D01*
X146098113Y-123749000D01*
X145986740Y-123189091D01*
X145669577Y-122714423D01*
X145317242Y-122479000D01*
X145669577Y-122243577D01*
X145899128Y-121900029D01*
X148476301Y-124477203D01*
X148476300Y-128333953D01*
X148461412Y-128408800D01*
X148476300Y-128483647D01*
X148476300Y-128483651D01*
X148520396Y-128705336D01*
X148688371Y-128956729D01*
X148751830Y-128999131D01*
X148820469Y-129067770D01*
X148862871Y-129131229D01*
X149114263Y-129299204D01*
X149335948Y-129343300D01*
X149335952Y-129343300D01*
X149410799Y-129358188D01*
X149485646Y-129343300D01*
X151309148Y-129343300D01*
X151384000Y-129358189D01*
X151680537Y-129299204D01*
X151931929Y-129131229D01*
X152099904Y-128879837D01*
X152121316Y-128772190D01*
X152201392Y-128825695D01*
X152654000Y-128915725D01*
X153106609Y-128825695D01*
X153490313Y-128569313D01*
X153708885Y-128242194D01*
X153800837Y-128223904D01*
X153874301Y-128174817D01*
X153874301Y-128459597D01*
X152677528Y-129656371D01*
X152614072Y-129698771D01*
X152571672Y-129762227D01*
X152571671Y-129762228D01*
X152446097Y-129950163D01*
X152415405Y-130104462D01*
X151983231Y-130393231D01*
X151621864Y-130934055D01*
X151494969Y-131572000D01*
X151621864Y-132209945D01*
X151983231Y-132750769D01*
X152524055Y-133112136D01*
X153000969Y-133207000D01*
X153323031Y-133207000D01*
X153799945Y-133112136D01*
X154324700Y-132761506D01*
X154324700Y-135529197D01*
X147597528Y-142256371D01*
X147534072Y-142298771D01*
X147491672Y-142362227D01*
X147491671Y-142362228D01*
X147383204Y-142524560D01*
X146982000Y-142524560D01*
X146734235Y-142573843D01*
X146524191Y-142714191D01*
X146383843Y-142924235D01*
X146334560Y-143172000D01*
X146334560Y-144944300D01*
X145776002Y-144944300D01*
X145986740Y-144628909D01*
X146098113Y-144069000D01*
X145986740Y-143509091D01*
X145669577Y-143034423D01*
X145317242Y-142799000D01*
X145669577Y-142563577D01*
X145986740Y-142088909D01*
X146098113Y-141529000D01*
X145986740Y-140969091D01*
X145669577Y-140494423D01*
X145317242Y-140259000D01*
X145669577Y-140023577D01*
X145986740Y-139548909D01*
X146098113Y-138989000D01*
X145986740Y-138429091D01*
X145669577Y-137954423D01*
X145317242Y-137719000D01*
X145669577Y-137483577D01*
X145986740Y-137008909D01*
X146057733Y-136652000D01*
X146313010Y-136652000D01*
X146447666Y-137328963D01*
X146831135Y-137902865D01*
X147405037Y-138286334D01*
X147911120Y-138387000D01*
X148252880Y-138387000D01*
X148758963Y-138286334D01*
X149332865Y-137902865D01*
X149716334Y-137328963D01*
X149850990Y-136652000D01*
X149716334Y-135975037D01*
X149332865Y-135401135D01*
X148758963Y-135017666D01*
X148252880Y-134917000D01*
X147911120Y-134917000D01*
X147405037Y-135017666D01*
X146831135Y-135401135D01*
X146447666Y-135975037D01*
X146313010Y-136652000D01*
X146057733Y-136652000D01*
X146098113Y-136449000D01*
X145986740Y-135889091D01*
X145669577Y-135414423D01*
X145317242Y-135179000D01*
X145669577Y-134943577D01*
X145986740Y-134468909D01*
X146098113Y-133909000D01*
X145986740Y-133349091D01*
X145669577Y-132874423D01*
X145317242Y-132639000D01*
X145669577Y-132403577D01*
X145986740Y-131928909D01*
X146098113Y-131369000D01*
X145986740Y-130809091D01*
X145669577Y-130334423D01*
X145317242Y-130099000D01*
X145669577Y-129863577D01*
X145986740Y-129388909D01*
X146098113Y-128829000D01*
X145986740Y-128269091D01*
X145669577Y-127794423D01*
X145285892Y-127538053D01*
X145490134Y-127441389D01*
X145866041Y-127026423D01*
X146026904Y-126638039D01*
X145904915Y-126416000D01*
X144762000Y-126416000D01*
X144762000Y-126436000D01*
X144508000Y-126436000D01*
X144508000Y-126416000D01*
X143365085Y-126416000D01*
X143243096Y-126638039D01*
X143403959Y-127026423D01*
X143779866Y-127441389D01*
X143984108Y-127538053D01*
X143600423Y-127794423D01*
X143283260Y-128269091D01*
X143171887Y-128829000D01*
X143283260Y-129388909D01*
X143600423Y-129863577D01*
X143952758Y-130099000D01*
X143600423Y-130334423D01*
X143283260Y-130809091D01*
X143171887Y-131369000D01*
X143283260Y-131928909D01*
X143600423Y-132403577D01*
X143952758Y-132639000D01*
X143600423Y-132874423D01*
X143283260Y-133349091D01*
X143171887Y-133909000D01*
X143283260Y-134468909D01*
X143600423Y-134943577D01*
X143952758Y-135179000D01*
X143600423Y-135414423D01*
X143283260Y-135889091D01*
X143171887Y-136449000D01*
X143283260Y-137008909D01*
X143600423Y-137483577D01*
X143952758Y-137719000D01*
X143600423Y-137954423D01*
X143283260Y-138429091D01*
X143171887Y-138989000D01*
X143283260Y-139548909D01*
X143600423Y-140023577D01*
X143952758Y-140259000D01*
X143600423Y-140494423D01*
X143283260Y-140969091D01*
X143171887Y-141529000D01*
X143283260Y-142088909D01*
X143600423Y-142563577D01*
X143952758Y-142799000D01*
X143600423Y-143034423D01*
X143580196Y-143064694D01*
X140434731Y-139919230D01*
X140392329Y-139855771D01*
X140140937Y-139687796D01*
X139919252Y-139643700D01*
X139919247Y-139643700D01*
X139844400Y-139628812D01*
X139769553Y-139643700D01*
X138303403Y-139643700D01*
X138366740Y-139548909D01*
X138478113Y-138989000D01*
X138366740Y-138429091D01*
X138049577Y-137954423D01*
X137697242Y-137719000D01*
X138049577Y-137483577D01*
X138366740Y-137008909D01*
X138478113Y-136449000D01*
X138366740Y-135889091D01*
X138114425Y-135511476D01*
X142041673Y-131584229D01*
X142105129Y-131541829D01*
X142273104Y-131290437D01*
X142317200Y-131068752D01*
X142317200Y-131068747D01*
X142332088Y-130993900D01*
X142317200Y-130919053D01*
X142317200Y-120414501D01*
X143371193Y-119360509D01*
X143600423Y-119703577D01*
X143600423Y-119703577D01*
G37*
X143600423Y-119703577D02*
X143879104Y-119889786D01*
X143896386Y-119976667D01*
X143600423Y-120174423D01*
X143283260Y-120649091D01*
X143171887Y-121209000D01*
X143283260Y-121768909D01*
X143600423Y-122243577D01*
X143952758Y-122479000D01*
X143600423Y-122714423D01*
X143283260Y-123189091D01*
X143171887Y-123749000D01*
X143283260Y-124308909D01*
X143600423Y-124783577D01*
X143984108Y-125039947D01*
X143779866Y-125136611D01*
X143403959Y-125551577D01*
X143243096Y-125939961D01*
X143365085Y-126162000D01*
X144508000Y-126162000D01*
X144508000Y-126142000D01*
X144762000Y-126142000D01*
X144762000Y-126162000D01*
X145904915Y-126162000D01*
X146026904Y-125939961D01*
X145866041Y-125551577D01*
X145490134Y-125136611D01*
X145285892Y-125039947D01*
X145669577Y-124783577D01*
X145986740Y-124308909D01*
X146098113Y-123749000D01*
X145986740Y-123189091D01*
X145669577Y-122714423D01*
X145317242Y-122479000D01*
X145669577Y-122243577D01*
X145899128Y-121900029D01*
X148476301Y-124477203D01*
X148476300Y-128333953D01*
X148461412Y-128408800D01*
X148476300Y-128483647D01*
X148476300Y-128483651D01*
X148520396Y-128705336D01*
X148688371Y-128956729D01*
X148751830Y-128999131D01*
X148820469Y-129067770D01*
X148862871Y-129131229D01*
X149114263Y-129299204D01*
X149335948Y-129343300D01*
X149335952Y-129343300D01*
X149410799Y-129358188D01*
X149485646Y-129343300D01*
X151309148Y-129343300D01*
X151384000Y-129358189D01*
X151680537Y-129299204D01*
X151931929Y-129131229D01*
X152099904Y-128879837D01*
X152121316Y-128772190D01*
X152201392Y-128825695D01*
X152654000Y-128915725D01*
X153106609Y-128825695D01*
X153490313Y-128569313D01*
X153708885Y-128242194D01*
X153800837Y-128223904D01*
X153874301Y-128174817D01*
X153874301Y-128459597D01*
X152677528Y-129656371D01*
X152614072Y-129698771D01*
X152571672Y-129762227D01*
X152571671Y-129762228D01*
X152446097Y-129950163D01*
X152415405Y-130104462D01*
X151983231Y-130393231D01*
X151621864Y-130934055D01*
X151494969Y-131572000D01*
X151621864Y-132209945D01*
X151983231Y-132750769D01*
X152524055Y-133112136D01*
X153000969Y-133207000D01*
X153323031Y-133207000D01*
X153799945Y-133112136D01*
X154324700Y-132761506D01*
X154324700Y-135529197D01*
X147597528Y-142256371D01*
X147534072Y-142298771D01*
X147491672Y-142362227D01*
X147491671Y-142362228D01*
X147383204Y-142524560D01*
X146982000Y-142524560D01*
X146734235Y-142573843D01*
X146524191Y-142714191D01*
X146383843Y-142924235D01*
X146334560Y-143172000D01*
X146334560Y-144944300D01*
X145776002Y-144944300D01*
X145986740Y-144628909D01*
X146098113Y-144069000D01*
X145986740Y-143509091D01*
X145669577Y-143034423D01*
X145317242Y-142799000D01*
X145669577Y-142563577D01*
X145986740Y-142088909D01*
X146098113Y-141529000D01*
X145986740Y-140969091D01*
X145669577Y-140494423D01*
X145317242Y-140259000D01*
X145669577Y-140023577D01*
X145986740Y-139548909D01*
X146098113Y-138989000D01*
X145986740Y-138429091D01*
X145669577Y-137954423D01*
X145317242Y-137719000D01*
X145669577Y-137483577D01*
X145986740Y-137008909D01*
X146057733Y-136652000D01*
X146313010Y-136652000D01*
X146447666Y-137328963D01*
X146831135Y-137902865D01*
X147405037Y-138286334D01*
X147911120Y-138387000D01*
X148252880Y-138387000D01*
X148758963Y-138286334D01*
X149332865Y-137902865D01*
X149716334Y-137328963D01*
X149850990Y-136652000D01*
X149716334Y-135975037D01*
X149332865Y-135401135D01*
X148758963Y-135017666D01*
X148252880Y-134917000D01*
X147911120Y-134917000D01*
X147405037Y-135017666D01*
X146831135Y-135401135D01*
X146447666Y-135975037D01*
X146313010Y-136652000D01*
X146057733Y-136652000D01*
X146098113Y-136449000D01*
X145986740Y-135889091D01*
X145669577Y-135414423D01*
X145317242Y-135179000D01*
X145669577Y-134943577D01*
X145986740Y-134468909D01*
X146098113Y-133909000D01*
X145986740Y-133349091D01*
X145669577Y-132874423D01*
X145317242Y-132639000D01*
X145669577Y-132403577D01*
X145986740Y-131928909D01*
X146098113Y-131369000D01*
X145986740Y-130809091D01*
X145669577Y-130334423D01*
X145317242Y-130099000D01*
X145669577Y-129863577D01*
X145986740Y-129388909D01*
X146098113Y-128829000D01*
X145986740Y-128269091D01*
X145669577Y-127794423D01*
X145285892Y-127538053D01*
X145490134Y-127441389D01*
X145866041Y-127026423D01*
X146026904Y-126638039D01*
X145904915Y-126416000D01*
X144762000Y-126416000D01*
X144762000Y-126436000D01*
X144508000Y-126436000D01*
X144508000Y-126416000D01*
X143365085Y-126416000D01*
X143243096Y-126638039D01*
X143403959Y-127026423D01*
X143779866Y-127441389D01*
X143984108Y-127538053D01*
X143600423Y-127794423D01*
X143283260Y-128269091D01*
X143171887Y-128829000D01*
X143283260Y-129388909D01*
X143600423Y-129863577D01*
X143952758Y-130099000D01*
X143600423Y-130334423D01*
X143283260Y-130809091D01*
X143171887Y-131369000D01*
X143283260Y-131928909D01*
X143600423Y-132403577D01*
X143952758Y-132639000D01*
X143600423Y-132874423D01*
X143283260Y-133349091D01*
X143171887Y-133909000D01*
X143283260Y-134468909D01*
X143600423Y-134943577D01*
X143952758Y-135179000D01*
X143600423Y-135414423D01*
X143283260Y-135889091D01*
X143171887Y-136449000D01*
X143283260Y-137008909D01*
X143600423Y-137483577D01*
X143952758Y-137719000D01*
X143600423Y-137954423D01*
X143283260Y-138429091D01*
X143171887Y-138989000D01*
X143283260Y-139548909D01*
X143600423Y-140023577D01*
X143952758Y-140259000D01*
X143600423Y-140494423D01*
X143283260Y-140969091D01*
X143171887Y-141529000D01*
X143283260Y-142088909D01*
X143600423Y-142563577D01*
X143952758Y-142799000D01*
X143600423Y-143034423D01*
X143580196Y-143064694D01*
X140434731Y-139919230D01*
X140392329Y-139855771D01*
X140140937Y-139687796D01*
X139919252Y-139643700D01*
X139919247Y-139643700D01*
X139844400Y-139628812D01*
X139769553Y-139643700D01*
X138303403Y-139643700D01*
X138366740Y-139548909D01*
X138478113Y-138989000D01*
X138366740Y-138429091D01*
X138049577Y-137954423D01*
X137697242Y-137719000D01*
X138049577Y-137483577D01*
X138366740Y-137008909D01*
X138478113Y-136449000D01*
X138366740Y-135889091D01*
X138114425Y-135511476D01*
X142041673Y-131584229D01*
X142105129Y-131541829D01*
X142273104Y-131290437D01*
X142317200Y-131068752D01*
X142317200Y-131068747D01*
X142332088Y-130993900D01*
X142317200Y-130919053D01*
X142317200Y-120414501D01*
X143371193Y-119360509D01*
X143600423Y-119703577D01*
G36*
X135980423Y-132403577D02*
X136276386Y-132601333D01*
X136259104Y-132688214D01*
X135980423Y-132874423D01*
X135663260Y-133349091D01*
X135551887Y-133909000D01*
X135663260Y-134468909D01*
X135980423Y-134943577D01*
X136276386Y-135141333D01*
X136259104Y-135228214D01*
X135980423Y-135414423D01*
X135663260Y-135889091D01*
X135551887Y-136449000D01*
X135663260Y-137008909D01*
X135980423Y-137483577D01*
X136332758Y-137719000D01*
X135980423Y-137954423D01*
X135663260Y-138429091D01*
X135551887Y-138989000D01*
X135663260Y-139548909D01*
X135780415Y-139724244D01*
X135583571Y-139855771D01*
X135541171Y-139919227D01*
X134581000Y-140879398D01*
X134581000Y-140247690D01*
X134484327Y-140014301D01*
X134305698Y-139835673D01*
X134072309Y-139739000D01*
X133381750Y-139739000D01*
X133223000Y-139897750D01*
X133223000Y-141097000D01*
X133243000Y-141097000D01*
X133243000Y-141351000D01*
X133223000Y-141351000D01*
X133223000Y-141371000D01*
X132969000Y-141371000D01*
X132969000Y-141351000D01*
X132949000Y-141351000D01*
X132949000Y-141097000D01*
X132969000Y-141097000D01*
X132969000Y-139897750D01*
X132810250Y-139739000D01*
X132119691Y-139739000D01*
X132078000Y-139756269D01*
X132078000Y-135725788D01*
X132516582Y-136018839D01*
X132949744Y-136105000D01*
X133242256Y-136105000D01*
X133675418Y-136018839D01*
X134166625Y-135690625D01*
X134494839Y-135199418D01*
X134610092Y-134620000D01*
X134494839Y-134040582D01*
X134272689Y-133708112D01*
X135818924Y-132161877D01*
X135980423Y-132403577D01*
X135980423Y-132403577D01*
G37*
X135980423Y-132403577D02*
X136276386Y-132601333D01*
X136259104Y-132688214D01*
X135980423Y-132874423D01*
X135663260Y-133349091D01*
X135551887Y-133909000D01*
X135663260Y-134468909D01*
X135980423Y-134943577D01*
X136276386Y-135141333D01*
X136259104Y-135228214D01*
X135980423Y-135414423D01*
X135663260Y-135889091D01*
X135551887Y-136449000D01*
X135663260Y-137008909D01*
X135980423Y-137483577D01*
X136332758Y-137719000D01*
X135980423Y-137954423D01*
X135663260Y-138429091D01*
X135551887Y-138989000D01*
X135663260Y-139548909D01*
X135780415Y-139724244D01*
X135583571Y-139855771D01*
X135541171Y-139919227D01*
X134581000Y-140879398D01*
X134581000Y-140247690D01*
X134484327Y-140014301D01*
X134305698Y-139835673D01*
X134072309Y-139739000D01*
X133381750Y-139739000D01*
X133223000Y-139897750D01*
X133223000Y-141097000D01*
X133243000Y-141097000D01*
X133243000Y-141351000D01*
X133223000Y-141351000D01*
X133223000Y-141371000D01*
X132969000Y-141371000D01*
X132969000Y-141351000D01*
X132949000Y-141351000D01*
X132949000Y-141097000D01*
X132969000Y-141097000D01*
X132969000Y-139897750D01*
X132810250Y-139739000D01*
X132119691Y-139739000D01*
X132078000Y-139756269D01*
X132078000Y-135725788D01*
X132516582Y-136018839D01*
X132949744Y-136105000D01*
X133242256Y-136105000D01*
X133675418Y-136018839D01*
X134166625Y-135690625D01*
X134494839Y-135199418D01*
X134610092Y-134620000D01*
X134494839Y-134040582D01*
X134272689Y-133708112D01*
X135818924Y-132161877D01*
X135980423Y-132403577D01*
G36*
X137142000Y-128702000D02*
X137162000Y-128702000D01*
X137162000Y-128956000D01*
X137142000Y-128956000D01*
X137142000Y-128976000D01*
X136888000Y-128976000D01*
X136888000Y-128956000D01*
X136868000Y-128956000D01*
X136868000Y-128702000D01*
X136888000Y-128702000D01*
X136888000Y-128682000D01*
X137142000Y-128682000D01*
X137142000Y-128702000D01*
X137142000Y-128702000D01*
G37*
X137142000Y-128702000D02*
X137162000Y-128702000D01*
X137162000Y-128956000D01*
X137142000Y-128956000D01*
X137142000Y-128976000D01*
X136888000Y-128976000D01*
X136888000Y-128956000D01*
X136868000Y-128956000D01*
X136868000Y-128702000D01*
X136888000Y-128702000D01*
X136888000Y-128682000D01*
X137142000Y-128682000D01*
X137142000Y-128702000D01*
G36*
X148715672Y-114731429D02*
X148779128Y-114773829D01*
X152148000Y-118142702D01*
X152148001Y-119116653D01*
X152090608Y-119078305D01*
X151638000Y-118988275D01*
X151185391Y-119078305D01*
X151184016Y-119079224D01*
X151019309Y-119011000D01*
X150653750Y-119011000D01*
X150495000Y-119169750D01*
X150495000Y-119971291D01*
X150478000Y-120056755D01*
X150478000Y-120735246D01*
X150495000Y-120820710D01*
X150495000Y-121622250D01*
X150653750Y-121781000D01*
X151019309Y-121781000D01*
X151184016Y-121712776D01*
X151185392Y-121713695D01*
X151638000Y-121803725D01*
X152090609Y-121713695D01*
X152273000Y-121591825D01*
X152455392Y-121713695D01*
X152908000Y-121803725D01*
X153360609Y-121713695D01*
X153370501Y-121707086D01*
X153370501Y-126366632D01*
X153106608Y-126190305D01*
X152654000Y-126100275D01*
X152201391Y-126190305D01*
X152019000Y-126312175D01*
X151836608Y-126190305D01*
X151384000Y-126100275D01*
X150931391Y-126190305D01*
X150930016Y-126191224D01*
X150765309Y-126123000D01*
X150399750Y-126123000D01*
X150241000Y-126281750D01*
X150241000Y-127083291D01*
X150224000Y-127168755D01*
X150224000Y-127655000D01*
X149996300Y-127655000D01*
X149996300Y-124237246D01*
X150011188Y-124162399D01*
X149996300Y-124087552D01*
X149996300Y-124087548D01*
X149952204Y-123865863D01*
X149784229Y-123614471D01*
X149720773Y-123572071D01*
X146830452Y-120681750D01*
X149208000Y-120681750D01*
X149208000Y-121272310D01*
X149304673Y-121505699D01*
X149483302Y-121684327D01*
X149716691Y-121781000D01*
X150082250Y-121781000D01*
X150241000Y-121622250D01*
X150241000Y-120523000D01*
X149366750Y-120523000D01*
X149208000Y-120681750D01*
X146830452Y-120681750D01*
X145742757Y-119594056D01*
X145792446Y-119519690D01*
X149208000Y-119519690D01*
X149208000Y-120110250D01*
X149366750Y-120269000D01*
X150241000Y-120269000D01*
X150241000Y-119169750D01*
X150082250Y-119011000D01*
X149716691Y-119011000D01*
X149483302Y-119107673D01*
X149304673Y-119286301D01*
X149208000Y-119519690D01*
X145792446Y-119519690D01*
X145986740Y-119228909D01*
X146098113Y-118669000D01*
X145986740Y-118109091D01*
X145752931Y-117759170D01*
X148397473Y-115114629D01*
X148460929Y-115072229D01*
X148628904Y-114820837D01*
X148662513Y-114651872D01*
X148715672Y-114731429D01*
X148715672Y-114731429D01*
G37*
X148715672Y-114731429D02*
X148779128Y-114773829D01*
X152148000Y-118142702D01*
X152148001Y-119116653D01*
X152090608Y-119078305D01*
X151638000Y-118988275D01*
X151185391Y-119078305D01*
X151184016Y-119079224D01*
X151019309Y-119011000D01*
X150653750Y-119011000D01*
X150495000Y-119169750D01*
X150495000Y-119971291D01*
X150478000Y-120056755D01*
X150478000Y-120735246D01*
X150495000Y-120820710D01*
X150495000Y-121622250D01*
X150653750Y-121781000D01*
X151019309Y-121781000D01*
X151184016Y-121712776D01*
X151185392Y-121713695D01*
X151638000Y-121803725D01*
X152090609Y-121713695D01*
X152273000Y-121591825D01*
X152455392Y-121713695D01*
X152908000Y-121803725D01*
X153360609Y-121713695D01*
X153370501Y-121707086D01*
X153370501Y-126366632D01*
X153106608Y-126190305D01*
X152654000Y-126100275D01*
X152201391Y-126190305D01*
X152019000Y-126312175D01*
X151836608Y-126190305D01*
X151384000Y-126100275D01*
X150931391Y-126190305D01*
X150930016Y-126191224D01*
X150765309Y-126123000D01*
X150399750Y-126123000D01*
X150241000Y-126281750D01*
X150241000Y-127083291D01*
X150224000Y-127168755D01*
X150224000Y-127655000D01*
X149996300Y-127655000D01*
X149996300Y-124237246D01*
X150011188Y-124162399D01*
X149996300Y-124087552D01*
X149996300Y-124087548D01*
X149952204Y-123865863D01*
X149784229Y-123614471D01*
X149720773Y-123572071D01*
X146830452Y-120681750D01*
X149208000Y-120681750D01*
X149208000Y-121272310D01*
X149304673Y-121505699D01*
X149483302Y-121684327D01*
X149716691Y-121781000D01*
X150082250Y-121781000D01*
X150241000Y-121622250D01*
X150241000Y-120523000D01*
X149366750Y-120523000D01*
X149208000Y-120681750D01*
X146830452Y-120681750D01*
X145742757Y-119594056D01*
X145792446Y-119519690D01*
X149208000Y-119519690D01*
X149208000Y-120110250D01*
X149366750Y-120269000D01*
X150241000Y-120269000D01*
X150241000Y-119169750D01*
X150082250Y-119011000D01*
X149716691Y-119011000D01*
X149483302Y-119107673D01*
X149304673Y-119286301D01*
X149208000Y-119519690D01*
X145792446Y-119519690D01*
X145986740Y-119228909D01*
X146098113Y-118669000D01*
X145986740Y-118109091D01*
X145752931Y-117759170D01*
X148397473Y-115114629D01*
X148460929Y-115072229D01*
X148628904Y-114820837D01*
X148662513Y-114651872D01*
X148715672Y-114731429D01*
G36*
X132487748Y-117333858D02*
X132473605Y-117348000D01*
X132487748Y-117362142D01*
X132308143Y-117541748D01*
X132294000Y-117527605D01*
X132279858Y-117541748D01*
X132100253Y-117362143D01*
X132114395Y-117348000D01*
X132100253Y-117333858D01*
X132279858Y-117154253D01*
X132294000Y-117168395D01*
X132308142Y-117154252D01*
X132487748Y-117333858D01*
X132487748Y-117333858D01*
G37*
X132487748Y-117333858D02*
X132473605Y-117348000D01*
X132487748Y-117362142D01*
X132308143Y-117541748D01*
X132294000Y-117527605D01*
X132279858Y-117541748D01*
X132100253Y-117362143D01*
X132114395Y-117348000D01*
X132100253Y-117333858D01*
X132279858Y-117154253D01*
X132294000Y-117168395D01*
X132308142Y-117154252D01*
X132487748Y-117333858D01*
G36*
X152841301Y-111913532D02*
X152654000Y-111876275D01*
X152201391Y-111966305D01*
X152019000Y-112088175D01*
X151836608Y-111966305D01*
X151384000Y-111876275D01*
X150931391Y-111966305D01*
X150930016Y-111967224D01*
X150765309Y-111899000D01*
X150399750Y-111899000D01*
X150241000Y-112057750D01*
X150241000Y-112859291D01*
X150224000Y-112944755D01*
X150224000Y-113431000D01*
X150023600Y-113431000D01*
X150023600Y-111560001D01*
X152841301Y-108742302D01*
X152841301Y-111913532D01*
X152841301Y-111913532D01*
G37*
X152841301Y-111913532D02*
X152654000Y-111876275D01*
X152201391Y-111966305D01*
X152019000Y-112088175D01*
X151836608Y-111966305D01*
X151384000Y-111876275D01*
X150931391Y-111966305D01*
X150930016Y-111967224D01*
X150765309Y-111899000D01*
X150399750Y-111899000D01*
X150241000Y-112057750D01*
X150241000Y-112859291D01*
X150224000Y-112944755D01*
X150224000Y-113431000D01*
X150023600Y-113431000D01*
X150023600Y-111560001D01*
X152841301Y-108742302D01*
X152841301Y-111913532D01*
G36*
X151061501Y-106709697D02*
X149777526Y-107993672D01*
X149941740Y-107747909D01*
X150053113Y-107188000D01*
X149941740Y-106628091D01*
X149624577Y-106153423D01*
X149272242Y-105918000D01*
X149624577Y-105682577D01*
X149941740Y-105207909D01*
X150053113Y-104648000D01*
X149941740Y-104088091D01*
X149624577Y-103613423D01*
X149240892Y-103357053D01*
X149445134Y-103260389D01*
X149821041Y-102845423D01*
X149981904Y-102457039D01*
X149859915Y-102235000D01*
X148717000Y-102235000D01*
X148717000Y-102255000D01*
X148463000Y-102255000D01*
X148463000Y-102235000D01*
X148443000Y-102235000D01*
X148443000Y-101981000D01*
X148463000Y-101981000D01*
X148463000Y-101961000D01*
X148717000Y-101961000D01*
X148717000Y-101981000D01*
X149859915Y-101981000D01*
X149981904Y-101758961D01*
X149821041Y-101370577D01*
X149482639Y-100997013D01*
X149637765Y-100966157D01*
X149847809Y-100825809D01*
X149988157Y-100615765D01*
X150037440Y-100368000D01*
X150037440Y-98768000D01*
X149988157Y-98520235D01*
X149847809Y-98310191D01*
X149637765Y-98169843D01*
X149390000Y-98120560D01*
X149350000Y-98120560D01*
X149350000Y-98073201D01*
X151061500Y-96361701D01*
X151061501Y-106709697D01*
X151061501Y-106709697D01*
G37*
X151061501Y-106709697D02*
X149777526Y-107993672D01*
X149941740Y-107747909D01*
X150053113Y-107188000D01*
X149941740Y-106628091D01*
X149624577Y-106153423D01*
X149272242Y-105918000D01*
X149624577Y-105682577D01*
X149941740Y-105207909D01*
X150053113Y-104648000D01*
X149941740Y-104088091D01*
X149624577Y-103613423D01*
X149240892Y-103357053D01*
X149445134Y-103260389D01*
X149821041Y-102845423D01*
X149981904Y-102457039D01*
X149859915Y-102235000D01*
X148717000Y-102235000D01*
X148717000Y-102255000D01*
X148463000Y-102255000D01*
X148463000Y-102235000D01*
X148443000Y-102235000D01*
X148443000Y-101981000D01*
X148463000Y-101981000D01*
X148463000Y-101961000D01*
X148717000Y-101961000D01*
X148717000Y-101981000D01*
X149859915Y-101981000D01*
X149981904Y-101758961D01*
X149821041Y-101370577D01*
X149482639Y-100997013D01*
X149637765Y-100966157D01*
X149847809Y-100825809D01*
X149988157Y-100615765D01*
X150037440Y-100368000D01*
X150037440Y-98768000D01*
X149988157Y-98520235D01*
X149847809Y-98310191D01*
X149637765Y-98169843D01*
X149390000Y-98120560D01*
X149350000Y-98120560D01*
X149350000Y-98073201D01*
X151061500Y-96361701D01*
X151061501Y-106709697D01*
G36*
X163194998Y-119315000D02*
X163136405Y-119315000D01*
X163194998Y-119280207D01*
X163194998Y-119315000D01*
X163194998Y-119315000D01*
G37*
X163194998Y-119315000D02*
X163136405Y-119315000D01*
X163194998Y-119280207D01*
X163194998Y-119315000D01*
G36*
X163507595Y-119315000D02*
X163449002Y-119315000D01*
X163449002Y-119280207D01*
X163507595Y-119315000D01*
X163507595Y-119315000D01*
G37*
X163507595Y-119315000D02*
X163449002Y-119315000D01*
X163449002Y-119280207D01*
X163507595Y-119315000D01*
M02*
