M48
;DRILL file {KiCad 5.0.2-bee76a0~70~ubuntu16.04.1} date Tue 16 Apr 2019 10:49:30 PM CEST
;FORMAT={-:-/ absolute / inch / decimal}
FMAT,2
INCH,TZ
T1C0.0157
T2C0.0276
T3C0.0295
T4C0.0315
T5C0.0320
T6C0.0394
T7C0.0433
T8C0.0866
%
G90
G05
T1
X5.2652Y-4.3925
X5.7827Y-3.9422
X6.0114Y-3.75
X6.0225Y-3.7913
X6.0816Y-3.7706
T2
X6.23Y-4.75
X6.43Y-4.75
X6.23Y-4.65
X6.43Y-4.65
X6.23Y-5.05
X6.43Y-5.05
X6.23Y-4.95
X6.43Y-4.95
X6.23Y-5.25
X6.43Y-5.25
X6.23Y-4.85
X6.43Y-4.85
X6.23Y-4.56
X6.43Y-4.56
X6.23Y-5.15
X6.43Y-5.15
X6.23Y-4.47
X6.43Y-4.47
T3
X5.91Y-4.46
X5.96Y-4.46
X6.01Y-4.46
X5.12Y-4.9
X5.17Y-4.9
X5.22Y-4.9
X5.91Y-5.02
X5.96Y-5.02
X6.01Y-5.02
X5.92Y-4.74
X5.97Y-4.74
X6.02Y-4.74
T4
X6.02Y-3.36
X6.2169Y-3.36
X5.1Y-4.25
X5.2378Y-4.25
X6.71Y-3.8216
X6.71Y-3.92
X5.3943Y-4.372
X5.3943Y-4.472
X5.3943Y-4.572
X5.3943Y-4.672
X5.3943Y-4.772
X5.3943Y-4.872
X5.3943Y-4.972
X5.3943Y-5.072
X5.3943Y-5.172
X5.3943Y-5.272
X5.3943Y-5.372
X5.3943Y-5.472
X5.3943Y-5.572
X5.3943Y-5.672
X5.6943Y-4.372
X5.6943Y-4.472
X5.6943Y-4.572
X5.6943Y-4.672
X5.6943Y-4.772
X5.6943Y-4.872
X5.6943Y-4.972
X5.6943Y-5.072
X5.6943Y-5.172
X5.6943Y-5.272
X5.6943Y-5.372
X5.6943Y-5.472
X5.6943Y-5.572
X5.6943Y-5.672
X5.6631Y-3.36
X5.86Y-3.36
X5.85Y-3.92
X5.85Y-4.02
X5.85Y-4.12
X5.85Y-4.22
X6.15Y-3.92
X6.15Y-4.02
X6.15Y-4.12
X6.15Y-4.22
X5.11Y-4.62
X5.2084Y-4.62
X5.8979Y-3.65
X6.09Y-3.65
T5
X5.4Y-3.57
X5.4Y-3.77
X5.7Y-3.57
X5.7Y-3.77
X5.4Y-3.94
X5.4Y-4.14
X5.7Y-3.94
X5.7Y-4.14
X6.29Y-3.57
X6.29Y-3.77
X6.59Y-3.57
X6.59Y-3.77
X6.29Y-3.96
X6.29Y-4.16
X6.59Y-3.96
X6.59Y-4.16
T6
X5.75Y-3.09
X5.85Y-3.09
X5.95Y-3.09
X6.05Y-3.09
X6.03Y-5.18
X6.03Y-5.68
X6.71Y-3.59
X5.27Y-3.2319
X5.12Y-3.23
X5.11Y-3.59
X5.11Y-3.69
X5.42Y-3.23
X5.24Y-5.56
X5.24Y-5.66
X6.5Y-3.22
X6.5Y-3.32
X6.6Y-3.22
X6.6Y-3.32
X5.24Y-5.1
X5.24Y-5.2
X5.24Y-5.3
X6.26Y-5.57
X6.26Y-5.67
X6.36Y-5.57
X6.36Y-5.67
X6.46Y-5.57
X6.46Y-5.67
X6.56Y-5.57
X6.56Y-5.67
X6.66Y-5.57
X6.66Y-5.67
X5.11Y-3.93
X5.21Y-3.93
T7
X5.83Y-5.38
X5.83Y-5.68
T8
X5.0181Y-2.9685
X6.7504Y-2.9685
X6.7504Y-5.8819
X5.0181Y-5.8819
T0
M30
