%TF.GenerationSoftware,KiCad,Pcbnew,5.0.2-bee76a0~70~ubuntu16.04.1*%
%TF.CreationDate,2019-04-16T22:46:50+02:00*%
%TF.ProjectId,birduino-kicad,62697264-7569-46e6-9f2d-6b696361642e,rev?*%
%TF.SameCoordinates,Original*%
%TF.FileFunction,Legend,Bot*%
%TF.FilePolarity,Positive*%
%FSLAX46Y46*%
G04 Gerber Fmt 4.6, Leading zero omitted, Abs format (unit mm)*
G04 Created by KiCad (PCBNEW 5.0.2-bee76a0~70~ubuntu16.04.1) date Tue 16 Apr 2019 10:46:50 PM CEST*
%MOMM*%
%LPD*%
G01*
G04 APERTURE LIST*
%ADD10C,0.250000*%
%ADD11C,0.300000*%
G04 APERTURE END LIST*
D10*
X124460000Y-72400000D02*
X174460000Y-72400000D01*
D11*
X167038571Y-115856571D02*
X165538571Y-115856571D01*
X166110000Y-115856571D02*
X166038571Y-115999428D01*
X166038571Y-116285142D01*
X166110000Y-116428000D01*
X166181428Y-116499428D01*
X166324285Y-116570857D01*
X166752857Y-116570857D01*
X166895714Y-116499428D01*
X166967142Y-116428000D01*
X167038571Y-116285142D01*
X167038571Y-115999428D01*
X166967142Y-115856571D01*
X167038571Y-117213714D02*
X166038571Y-117213714D01*
X165538571Y-117213714D02*
X165610000Y-117142285D01*
X165681428Y-117213714D01*
X165610000Y-117285142D01*
X165538571Y-117213714D01*
X165681428Y-117213714D01*
X167038571Y-117928000D02*
X166038571Y-117928000D01*
X166324285Y-117928000D02*
X166181428Y-117999428D01*
X166110000Y-118070857D01*
X166038571Y-118213714D01*
X166038571Y-118356571D01*
X167038571Y-119499428D02*
X165538571Y-119499428D01*
X166967142Y-119499428D02*
X167038571Y-119356571D01*
X167038571Y-119070857D01*
X166967142Y-118928000D01*
X166895714Y-118856571D01*
X166752857Y-118785142D01*
X166324285Y-118785142D01*
X166181428Y-118856571D01*
X166110000Y-118928000D01*
X166038571Y-119070857D01*
X166038571Y-119356571D01*
X166110000Y-119499428D01*
X166038571Y-120856571D02*
X167038571Y-120856571D01*
X166038571Y-120213714D02*
X166824285Y-120213714D01*
X166967142Y-120285142D01*
X167038571Y-120428000D01*
X167038571Y-120642285D01*
X166967142Y-120785142D01*
X166895714Y-120856571D01*
X167038571Y-121570857D02*
X166038571Y-121570857D01*
X165538571Y-121570857D02*
X165610000Y-121499428D01*
X165681428Y-121570857D01*
X165610000Y-121642285D01*
X165538571Y-121570857D01*
X165681428Y-121570857D01*
X166038571Y-122285142D02*
X167038571Y-122285142D01*
X166181428Y-122285142D02*
X166110000Y-122356571D01*
X166038571Y-122499428D01*
X166038571Y-122713714D01*
X166110000Y-122856571D01*
X166252857Y-122928000D01*
X167038571Y-122928000D01*
X167038571Y-123856571D02*
X166967142Y-123713714D01*
X166895714Y-123642285D01*
X166752857Y-123570857D01*
X166324285Y-123570857D01*
X166181428Y-123642285D01*
X166110000Y-123713714D01*
X166038571Y-123856571D01*
X166038571Y-124070857D01*
X166110000Y-124213714D01*
X166181428Y-124285142D01*
X166324285Y-124356571D01*
X166752857Y-124356571D01*
X166895714Y-124285142D01*
X166967142Y-124213714D01*
X167038571Y-124070857D01*
X167038571Y-123856571D01*
X167038571Y-126928000D02*
X167038571Y-126070857D01*
X167038571Y-126499428D02*
X165538571Y-126499428D01*
X165752857Y-126356571D01*
X165895714Y-126213714D01*
X165967142Y-126070857D01*
X166895714Y-127570857D02*
X166967142Y-127642285D01*
X167038571Y-127570857D01*
X166967142Y-127499428D01*
X166895714Y-127570857D01*
X167038571Y-127570857D01*
X167038571Y-129070857D02*
X167038571Y-128213714D01*
X167038571Y-128642285D02*
X165538571Y-128642285D01*
X165752857Y-128499428D01*
X165895714Y-128356571D01*
X165967142Y-128213714D01*
X168231428Y-117642285D02*
X168160000Y-117713714D01*
X168088571Y-117856571D01*
X168088571Y-118213714D01*
X168160000Y-118356571D01*
X168231428Y-118428000D01*
X168374285Y-118499428D01*
X168517142Y-118499428D01*
X168731428Y-118428000D01*
X169588571Y-117570857D01*
X169588571Y-118499428D01*
X168088571Y-119428000D02*
X168088571Y-119570857D01*
X168160000Y-119713714D01*
X168231428Y-119785142D01*
X168374285Y-119856571D01*
X168660000Y-119928000D01*
X169017142Y-119928000D01*
X169302857Y-119856571D01*
X169445714Y-119785142D01*
X169517142Y-119713714D01*
X169588571Y-119570857D01*
X169588571Y-119428000D01*
X169517142Y-119285142D01*
X169445714Y-119213714D01*
X169302857Y-119142285D01*
X169017142Y-119070857D01*
X168660000Y-119070857D01*
X168374285Y-119142285D01*
X168231428Y-119213714D01*
X168160000Y-119285142D01*
X168088571Y-119428000D01*
X169588571Y-121356571D02*
X169588571Y-120499428D01*
X169588571Y-120928000D02*
X168088571Y-120928000D01*
X168302857Y-120785142D01*
X168445714Y-120642285D01*
X168517142Y-120499428D01*
X169588571Y-122070857D02*
X169588571Y-122356571D01*
X169517142Y-122499428D01*
X169445714Y-122570857D01*
X169231428Y-122713714D01*
X168945714Y-122785142D01*
X168374285Y-122785142D01*
X168231428Y-122713714D01*
X168160000Y-122642285D01*
X168088571Y-122499428D01*
X168088571Y-122213714D01*
X168160000Y-122070857D01*
X168231428Y-121999428D01*
X168374285Y-121928000D01*
X168731428Y-121928000D01*
X168874285Y-121999428D01*
X168945714Y-122070857D01*
X169017142Y-122213714D01*
X169017142Y-122499428D01*
X168945714Y-122642285D01*
X168874285Y-122713714D01*
X168731428Y-122785142D01*
X170160000Y-124999428D02*
X170088571Y-124928000D01*
X169874285Y-124785142D01*
X169731428Y-124713714D01*
X169517142Y-124642285D01*
X169160000Y-124570857D01*
X168874285Y-124570857D01*
X168517142Y-124642285D01*
X168302857Y-124713714D01*
X168160000Y-124785142D01*
X167945714Y-124928000D01*
X167874285Y-124999428D01*
X169517142Y-126213714D02*
X169588571Y-126070857D01*
X169588571Y-125785142D01*
X169517142Y-125642285D01*
X169445714Y-125570857D01*
X169302857Y-125499428D01*
X168874285Y-125499428D01*
X168731428Y-125570857D01*
X168660000Y-125642285D01*
X168588571Y-125785142D01*
X168588571Y-126070857D01*
X168660000Y-126213714D01*
X170160000Y-126713714D02*
X170088571Y-126785142D01*
X169874285Y-126928000D01*
X169731428Y-126999428D01*
X169517142Y-127070857D01*
X169160000Y-127142285D01*
X168874285Y-127142285D01*
X168517142Y-127070857D01*
X168302857Y-126999428D01*
X168160000Y-126928000D01*
X167945714Y-126785142D01*
X167874285Y-126713714D01*
X172138571Y-112285142D02*
X170638571Y-112285142D01*
X170638571Y-112642285D01*
X170710000Y-112856571D01*
X170852857Y-112999428D01*
X170995714Y-113070857D01*
X171281428Y-113142285D01*
X171495714Y-113142285D01*
X171781428Y-113070857D01*
X171924285Y-112999428D01*
X172067142Y-112856571D01*
X172138571Y-112642285D01*
X172138571Y-112285142D01*
X172067142Y-114356571D02*
X172138571Y-114213714D01*
X172138571Y-113928000D01*
X172067142Y-113785142D01*
X171924285Y-113713714D01*
X171352857Y-113713714D01*
X171210000Y-113785142D01*
X171138571Y-113928000D01*
X171138571Y-114213714D01*
X171210000Y-114356571D01*
X171352857Y-114428000D01*
X171495714Y-114428000D01*
X171638571Y-113713714D01*
X172067142Y-114999428D02*
X172138571Y-115142285D01*
X172138571Y-115428000D01*
X172067142Y-115570857D01*
X171924285Y-115642285D01*
X171852857Y-115642285D01*
X171710000Y-115570857D01*
X171638571Y-115428000D01*
X171638571Y-115213714D01*
X171567142Y-115070857D01*
X171424285Y-114999428D01*
X171352857Y-114999428D01*
X171210000Y-115070857D01*
X171138571Y-115213714D01*
X171138571Y-115428000D01*
X171210000Y-115570857D01*
X172138571Y-116285142D02*
X171138571Y-116285142D01*
X170638571Y-116285142D02*
X170710000Y-116213714D01*
X170781428Y-116285142D01*
X170710000Y-116356571D01*
X170638571Y-116285142D01*
X170781428Y-116285142D01*
X171138571Y-117642285D02*
X172352857Y-117642285D01*
X172495714Y-117570857D01*
X172567142Y-117499428D01*
X172638571Y-117356571D01*
X172638571Y-117142285D01*
X172567142Y-116999428D01*
X172067142Y-117642285D02*
X172138571Y-117499428D01*
X172138571Y-117213714D01*
X172067142Y-117070857D01*
X171995714Y-116999428D01*
X171852857Y-116928000D01*
X171424285Y-116928000D01*
X171281428Y-116999428D01*
X171210000Y-117070857D01*
X171138571Y-117213714D01*
X171138571Y-117499428D01*
X171210000Y-117642285D01*
X171138571Y-118356571D02*
X172138571Y-118356571D01*
X171281428Y-118356571D02*
X171210000Y-118428000D01*
X171138571Y-118570857D01*
X171138571Y-118785142D01*
X171210000Y-118928000D01*
X171352857Y-118999428D01*
X172138571Y-118999428D01*
X172067142Y-120285142D02*
X172138571Y-120142285D01*
X172138571Y-119856571D01*
X172067142Y-119713714D01*
X171924285Y-119642285D01*
X171352857Y-119642285D01*
X171210000Y-119713714D01*
X171138571Y-119856571D01*
X171138571Y-120142285D01*
X171210000Y-120285142D01*
X171352857Y-120356571D01*
X171495714Y-120356571D01*
X171638571Y-119642285D01*
X172138571Y-121642285D02*
X170638571Y-121642285D01*
X172067142Y-121642285D02*
X172138571Y-121499428D01*
X172138571Y-121213714D01*
X172067142Y-121070857D01*
X171995714Y-120999428D01*
X171852857Y-120928000D01*
X171424285Y-120928000D01*
X171281428Y-120999428D01*
X171210000Y-121070857D01*
X171138571Y-121213714D01*
X171138571Y-121499428D01*
X171210000Y-121642285D01*
X172138571Y-123499428D02*
X171138571Y-123499428D01*
X170638571Y-123499428D02*
X170710000Y-123428000D01*
X170781428Y-123499428D01*
X170710000Y-123570857D01*
X170638571Y-123499428D01*
X170781428Y-123499428D01*
X171138571Y-124213714D02*
X172138571Y-124213714D01*
X171281428Y-124213714D02*
X171210000Y-124285142D01*
X171138571Y-124428000D01*
X171138571Y-124642285D01*
X171210000Y-124785142D01*
X171352857Y-124856571D01*
X172138571Y-124856571D01*
X171352857Y-127213714D02*
X171424285Y-127428000D01*
X171495714Y-127499428D01*
X171638571Y-127570857D01*
X171852857Y-127570857D01*
X171995714Y-127499428D01*
X172067142Y-127428000D01*
X172138571Y-127285142D01*
X172138571Y-126713714D01*
X170638571Y-126713714D01*
X170638571Y-127213714D01*
X170710000Y-127356571D01*
X170781428Y-127428000D01*
X170924285Y-127499428D01*
X171067142Y-127499428D01*
X171210000Y-127428000D01*
X171281428Y-127356571D01*
X171352857Y-127213714D01*
X171352857Y-126713714D01*
X172067142Y-128785142D02*
X172138571Y-128642285D01*
X172138571Y-128356571D01*
X172067142Y-128213714D01*
X171924285Y-128142285D01*
X171352857Y-128142285D01*
X171210000Y-128213714D01*
X171138571Y-128356571D01*
X171138571Y-128642285D01*
X171210000Y-128785142D01*
X171352857Y-128856571D01*
X171495714Y-128856571D01*
X171638571Y-128142285D01*
X172138571Y-129499428D02*
X171138571Y-129499428D01*
X171424285Y-129499428D02*
X171281428Y-129570857D01*
X171210000Y-129642285D01*
X171138571Y-129785142D01*
X171138571Y-129928000D01*
X172138571Y-130642285D02*
X172067142Y-130499428D01*
X171924285Y-130428000D01*
X170638571Y-130428000D01*
X172138571Y-131213714D02*
X171138571Y-131213714D01*
X170638571Y-131213714D02*
X170710000Y-131142285D01*
X170781428Y-131213714D01*
X170710000Y-131285142D01*
X170638571Y-131213714D01*
X170781428Y-131213714D01*
X171138571Y-131928000D02*
X172138571Y-131928000D01*
X171281428Y-131928000D02*
X171210000Y-131999428D01*
X171138571Y-132142285D01*
X171138571Y-132356571D01*
X171210000Y-132499428D01*
X171352857Y-132570857D01*
X172138571Y-132570857D01*
D10*
X124460000Y-72400000D02*
X124460000Y-152400000D01*
X174460000Y-72400000D02*
X174460000Y-152400000D01*
X124460000Y-152400000D02*
X174460000Y-152400000D01*
M02*
